<svg width="456" height="45" viewBox="0 0 456 45" fill="none" xmlns="http://www.w3.org/2000/svg">
<rect x="0.5" y="0.5" width="98" height="44" rx="4.5" fill="#BBEDF4"/>
<path d="M21.0034 15.9V28.5H19.2214V17.466H16.3774V15.9H21.0034ZM29.1955 20.85C30.0235 20.85 30.7615 21.006 31.4095 21.318C32.0695 21.63 32.5855 22.08 32.9575 22.668C33.3295 23.244 33.5155 23.91 33.5155 24.666C33.5155 25.458 33.3175 26.154 32.9215 26.754C32.5375 27.354 32.0035 27.822 31.3195 28.158C30.6475 28.482 29.8915 28.644 29.0515 28.644C27.3595 28.644 26.0515 28.098 25.1275 27.006C24.2155 25.914 23.7595 24.366 23.7595 22.362C23.7595 20.958 24.0055 19.764 24.4975 18.78C25.0015 17.784 25.6975 17.034 26.5855 16.53C27.4855 16.014 28.5295 15.756 29.7175 15.756C30.3295 15.756 30.9055 15.822 31.4455 15.954C31.9855 16.074 32.4535 16.254 32.8495 16.494L32.1655 17.898C31.5655 17.502 30.7615 17.304 29.7535 17.304C28.4455 17.304 27.4195 17.712 26.6755 18.528C25.9315 19.332 25.5595 20.508 25.5595 22.056C25.5595 22.248 25.5655 22.398 25.5775 22.506C25.9375 21.966 26.4295 21.558 27.0535 21.282C27.6895 20.994 28.4035 20.85 29.1955 20.85ZM28.9795 27.186C29.8075 27.186 30.4795 26.964 30.9955 26.52C31.5115 26.076 31.7695 25.482 31.7695 24.738C31.7695 23.994 31.5055 23.406 30.9775 22.974C30.4615 22.53 29.7655 22.308 28.8895 22.308C28.3255 22.308 27.8215 22.416 27.3775 22.632C26.9455 22.848 26.6035 23.142 26.3515 23.514C26.1115 23.886 25.9915 24.3 25.9915 24.756C25.9915 25.2 26.1055 25.608 26.3335 25.98C26.5735 26.34 26.9155 26.634 27.3595 26.862C27.8155 27.078 28.3555 27.186 28.9795 27.186ZM43.3628 22.92H40.0868V26.142H38.5748V22.92H35.2988V21.498H38.5748V18.258H40.0868V21.498H43.3628V22.92ZM49.9058 21.192C51.1418 21.312 52.0838 21.696 52.7318 22.344C53.3798 22.98 53.7038 23.796 53.7038 24.792C53.7038 25.512 53.5238 26.166 53.1638 26.754C52.8038 27.33 52.2638 27.792 51.5438 28.14C50.8358 28.476 49.9658 28.644 48.9338 28.644C48.0338 28.644 47.1698 28.512 46.3418 28.248C45.5138 27.972 44.8358 27.594 44.3078 27.114L45.1358 25.692C45.5678 26.1 46.1198 26.43 46.7918 26.682C47.4638 26.922 48.1778 27.042 48.9338 27.042C49.8698 27.042 50.5958 26.844 51.1118 26.448C51.6398 26.052 51.9038 25.506 51.9038 24.81C51.9038 24.114 51.6458 23.574 51.1298 23.19C50.6138 22.806 49.8338 22.614 48.7898 22.614H47.7818V21.354L50.9498 17.466H44.8838V15.9H53.1998V17.124L49.9058 21.192ZM55.7246 19.356H63.7886V20.778H55.7246V19.356ZM55.7246 23.622H63.7886V25.044H55.7246V23.622ZM69.7651 15.9V28.5H67.9831V17.466H65.1391V15.9H69.7651ZM76.6072 15.756C78.2992 15.756 79.6012 16.302 80.5132 17.394C81.4372 18.486 81.8992 20.034 81.8992 22.038C81.8992 23.442 81.6472 24.642 81.1432 25.638C80.6512 26.622 79.9552 27.372 79.0552 27.888C78.1672 28.392 77.1292 28.644 75.9412 28.644C75.3292 28.644 74.7532 28.584 74.2132 28.464C73.6732 28.332 73.2052 28.146 72.8092 27.906L73.4932 26.502C74.1052 26.898 74.9152 27.096 75.9232 27.096C77.2312 27.096 78.2512 26.694 78.9832 25.89C79.7272 25.074 80.0992 23.892 80.0992 22.344V21.894C79.7392 22.434 79.2412 22.848 78.6052 23.136C77.9692 23.412 77.2552 23.55 76.4632 23.55C75.6352 23.55 74.8912 23.394 74.2312 23.082C73.5832 22.77 73.0732 22.326 72.7012 21.75C72.3412 21.162 72.1612 20.49 72.1612 19.734C72.1612 18.942 72.3532 18.246 72.7372 17.646C73.1332 17.046 73.6672 16.584 74.3392 16.26C75.0112 15.924 75.7672 15.756 76.6072 15.756ZM76.7692 22.092C77.3332 22.092 77.8372 21.984 78.2812 21.768C78.7252 21.552 79.0672 21.258 79.3072 20.886C79.5592 20.514 79.6852 20.1 79.6852 19.644C79.6852 19.2 79.5652 18.798 79.3252 18.438C79.0972 18.066 78.7552 17.772 78.2992 17.556C77.8552 17.328 77.3152 17.214 76.6792 17.214C75.8512 17.214 75.1792 17.436 74.6632 17.88C74.1592 18.324 73.9072 18.918 73.9072 19.662C73.9072 20.406 74.1652 21 74.6812 21.444C75.1972 21.876 75.8932 22.092 76.7692 22.092Z" fill="#0E80A4"/>
<rect x="0.5" y="0.5" width="98" height="44" rx="4.5" stroke="#BBEDF4"/>
<rect x="119.5" y="0.5" width="105" height="44" rx="4.5" fill="white"/>
<path d="M140.137 15.9V28.5H138.355V17.466H135.511V15.9H140.137ZM148.329 20.85C149.157 20.85 149.895 21.006 150.543 21.318C151.203 21.63 151.719 22.08 152.091 22.668C152.463 23.244 152.649 23.91 152.649 24.666C152.649 25.458 152.451 26.154 152.055 26.754C151.671 27.354 151.137 27.822 150.453 28.158C149.781 28.482 149.025 28.644 148.185 28.644C146.493 28.644 145.185 28.098 144.261 27.006C143.349 25.914 142.893 24.366 142.893 22.362C142.893 20.958 143.139 19.764 143.631 18.78C144.135 17.784 144.831 17.034 145.719 16.53C146.619 16.014 147.663 15.756 148.851 15.756C149.463 15.756 150.039 15.822 150.579 15.954C151.119 16.074 151.587 16.254 151.983 16.494L151.299 17.898C150.699 17.502 149.895 17.304 148.887 17.304C147.579 17.304 146.553 17.712 145.809 18.528C145.065 19.332 144.693 20.508 144.693 22.056C144.693 22.248 144.699 22.398 144.711 22.506C145.071 21.966 145.563 21.558 146.187 21.282C146.823 20.994 147.537 20.85 148.329 20.85ZM148.113 27.186C148.941 27.186 149.613 26.964 150.129 26.52C150.645 26.076 150.903 25.482 150.903 24.738C150.903 23.994 150.639 23.406 150.111 22.974C149.595 22.53 148.899 22.308 148.023 22.308C147.459 22.308 146.955 22.416 146.511 22.632C146.079 22.848 145.737 23.142 145.485 23.514C145.245 23.886 145.125 24.3 145.125 24.756C145.125 25.2 145.239 25.608 145.467 25.98C145.707 26.34 146.049 26.634 146.493 26.862C146.949 27.078 147.489 27.186 148.113 27.186ZM162.497 22.92H159.221V26.142H157.709V22.92H154.433V21.498H157.709V18.258H159.221V21.498H162.497V22.92ZM175.652 25.404H173.258V28.5H171.512V25.404H164.51V24.144L170.954 15.9H172.898L166.724 23.856H171.566V21.12H173.258V23.856H175.652V25.404ZM177.073 19.356H185.137V20.778H177.073V19.356ZM177.073 23.622H185.137V25.044H177.073V23.622ZM196.064 26.934V28.5H187.01V27.276L192.14 22.326C192.764 21.726 193.184 21.21 193.4 20.778C193.616 20.334 193.724 19.89 193.724 19.446C193.724 18.786 193.49 18.276 193.022 17.916C192.566 17.544 191.906 17.358 191.042 17.358C189.65 17.358 188.576 17.814 187.82 18.726L186.596 17.664C187.088 17.064 187.73 16.596 188.522 16.26C189.326 15.924 190.22 15.756 191.204 15.756C192.524 15.756 193.574 16.074 194.354 16.71C195.134 17.334 195.524 18.186 195.524 19.266C195.524 19.938 195.38 20.574 195.092 21.174C194.804 21.774 194.258 22.458 193.454 23.226L189.602 26.934H196.064ZM202.639 28.644C201.643 28.644 200.755 28.392 199.975 27.888C199.207 27.372 198.601 26.628 198.157 25.656C197.713 24.684 197.491 23.532 197.491 22.2C197.491 20.868 197.713 19.716 198.157 18.744C198.601 17.772 199.207 17.034 199.975 16.53C200.755 16.014 201.643 15.756 202.639 15.756C203.623 15.756 204.499 16.014 205.267 16.53C206.047 17.034 206.659 17.772 207.103 18.744C207.547 19.716 207.769 20.868 207.769 22.2C207.769 23.532 207.547 24.684 207.103 25.656C206.659 26.628 206.047 27.372 205.267 27.888C204.499 28.392 203.623 28.644 202.639 28.644ZM202.639 27.042C203.647 27.042 204.451 26.628 205.051 25.8C205.663 24.972 205.969 23.772 205.969 22.2C205.969 20.628 205.663 19.428 205.051 18.6C204.451 17.772 203.647 17.358 202.639 17.358C201.619 17.358 200.803 17.772 200.191 18.6C199.591 19.428 199.291 20.628 199.291 22.2C199.291 23.772 199.591 24.972 200.191 25.8C200.803 26.628 201.619 27.042 202.639 27.042Z" fill="black"/>
<rect x="119.5" y="0.5" width="105" height="44" rx="4.5" stroke="#2F2F2F"/>
<rect x="245.5" y="0.5" width="95" height="44" rx="4.5" fill="white"/>
<path d="M266.261 15.9V28.5H264.479V17.466H261.635V15.9H266.261ZM273.103 15.756C274.795 15.756 276.097 16.302 277.009 17.394C277.933 18.486 278.395 20.034 278.395 22.038C278.395 23.442 278.143 24.642 277.639 25.638C277.147 26.622 276.451 27.372 275.551 27.888C274.663 28.392 273.625 28.644 272.437 28.644C271.825 28.644 271.249 28.584 270.709 28.464C270.169 28.332 269.701 28.146 269.305 27.906L269.989 26.502C270.601 26.898 271.411 27.096 272.419 27.096C273.727 27.096 274.747 26.694 275.479 25.89C276.223 25.074 276.595 23.892 276.595 22.344V21.894C276.235 22.434 275.737 22.848 275.101 23.136C274.465 23.412 273.751 23.55 272.959 23.55C272.131 23.55 271.387 23.394 270.727 23.082C270.079 22.77 269.569 22.326 269.197 21.75C268.837 21.162 268.657 20.49 268.657 19.734C268.657 18.942 268.849 18.246 269.233 17.646C269.629 17.046 270.163 16.584 270.835 16.26C271.507 15.924 272.263 15.756 273.103 15.756ZM273.265 22.092C273.829 22.092 274.333 21.984 274.777 21.768C275.221 21.552 275.563 21.258 275.803 20.886C276.055 20.514 276.181 20.1 276.181 19.644C276.181 19.2 276.061 18.798 275.821 18.438C275.593 18.066 275.251 17.772 274.795 17.556C274.351 17.328 273.811 17.214 273.175 17.214C272.347 17.214 271.675 17.436 271.159 17.88C270.655 18.324 270.403 18.918 270.403 19.662C270.403 20.406 270.661 21 271.177 21.444C271.693 21.876 272.389 22.092 273.265 22.092ZM280.412 22.812H285.254V24.306H280.412V22.812ZM290.73 15.9V28.5H288.948V17.466H286.104V15.9H290.73ZM298.922 20.85C299.75 20.85 300.488 21.006 301.136 21.318C301.796 21.63 302.312 22.08 302.684 22.668C303.056 23.244 303.242 23.91 303.242 24.666C303.242 25.458 303.044 26.154 302.648 26.754C302.264 27.354 301.73 27.822 301.046 28.158C300.374 28.482 299.618 28.644 298.778 28.644C297.086 28.644 295.778 28.098 294.854 27.006C293.942 25.914 293.486 24.366 293.486 22.362C293.486 20.958 293.732 19.764 294.224 18.78C294.728 17.784 295.424 17.034 296.312 16.53C297.212 16.014 298.256 15.756 299.444 15.756C300.056 15.756 300.632 15.822 301.172 15.954C301.712 16.074 302.18 16.254 302.576 16.494L301.892 17.898C301.292 17.502 300.488 17.304 299.48 17.304C298.172 17.304 297.146 17.712 296.402 18.528C295.658 19.332 295.286 20.508 295.286 22.056C295.286 22.248 295.292 22.398 295.304 22.506C295.664 21.966 296.156 21.558 296.78 21.282C297.416 20.994 298.13 20.85 298.922 20.85ZM298.706 27.186C299.534 27.186 300.206 26.964 300.722 26.52C301.238 26.076 301.496 25.482 301.496 24.738C301.496 23.994 301.232 23.406 300.704 22.974C300.188 22.53 299.492 22.308 298.616 22.308C298.052 22.308 297.548 22.416 297.104 22.632C296.672 22.848 296.33 23.142 296.078 23.514C295.838 23.886 295.718 24.3 295.718 24.756C295.718 25.2 295.832 25.608 296.06 25.98C296.3 26.34 296.642 26.634 297.086 26.862C297.542 27.078 298.082 27.186 298.706 27.186ZM304.937 19.356H313.001V20.778H304.937V19.356ZM304.937 23.622H313.001V25.044H304.937V23.622ZM319.896 21.192C321.132 21.312 322.074 21.696 322.722 22.344C323.37 22.98 323.694 23.796 323.694 24.792C323.694 25.512 323.514 26.166 323.154 26.754C322.794 27.33 322.254 27.792 321.534 28.14C320.826 28.476 319.956 28.644 318.924 28.644C318.024 28.644 317.16 28.512 316.332 28.248C315.504 27.972 314.826 27.594 314.298 27.114L315.126 25.692C315.558 26.1 316.11 26.43 316.782 26.682C317.454 26.922 318.168 27.042 318.924 27.042C319.86 27.042 320.586 26.844 321.102 26.448C321.63 26.052 321.894 25.506 321.894 24.81C321.894 24.114 321.636 23.574 321.12 23.19C320.604 22.806 319.824 22.614 318.78 22.614H317.772V21.354L320.94 17.466H314.874V15.9H323.19V17.124L319.896 21.192Z" fill="black"/>
<rect x="245.5" y="0.5" width="95" height="44" rx="4.5" stroke="#2F2F2F"/>
<rect x="361.5" y="0.5" width="94" height="44" rx="4.5" fill="white"/>
<path d="M381.779 15.9V28.5H379.997V17.466H377.153V15.9H381.779ZM388.621 15.756C390.313 15.756 391.615 16.302 392.527 17.394C393.451 18.486 393.913 20.034 393.913 22.038C393.913 23.442 393.661 24.642 393.157 25.638C392.665 26.622 391.969 27.372 391.069 27.888C390.181 28.392 389.143 28.644 387.955 28.644C387.343 28.644 386.767 28.584 386.227 28.464C385.687 28.332 385.219 28.146 384.823 27.906L385.507 26.502C386.119 26.898 386.929 27.096 387.937 27.096C389.245 27.096 390.265 26.694 390.997 25.89C391.741 25.074 392.113 23.892 392.113 22.344V21.894C391.753 22.434 391.255 22.848 390.619 23.136C389.983 23.412 389.269 23.55 388.477 23.55C387.649 23.55 386.905 23.394 386.245 23.082C385.597 22.77 385.087 22.326 384.715 21.75C384.355 21.162 384.175 20.49 384.175 19.734C384.175 18.942 384.367 18.246 384.751 17.646C385.147 17.046 385.681 16.584 386.353 16.26C387.025 15.924 387.781 15.756 388.621 15.756ZM388.783 22.092C389.347 22.092 389.851 21.984 390.295 21.768C390.739 21.552 391.081 21.258 391.321 20.886C391.573 20.514 391.699 20.1 391.699 19.644C391.699 19.2 391.579 18.798 391.339 18.438C391.111 18.066 390.769 17.772 390.313 17.556C389.869 17.328 389.329 17.214 388.693 17.214C387.865 17.214 387.193 17.436 386.677 17.88C386.173 18.324 385.921 18.918 385.921 19.662C385.921 20.406 386.179 21 386.695 21.444C387.211 21.876 387.907 22.092 388.783 22.092ZM395.929 22.812H400.771V24.306H395.929V22.812ZM407.13 21.192C408.366 21.312 409.308 21.696 409.956 22.344C410.604 22.98 410.928 23.796 410.928 24.792C410.928 25.512 410.748 26.166 410.388 26.754C410.028 27.33 409.488 27.792 408.768 28.14C408.06 28.476 407.19 28.644 406.158 28.644C405.258 28.644 404.394 28.512 403.566 28.248C402.738 27.972 402.06 27.594 401.532 27.114L402.36 25.692C402.792 26.1 403.344 26.43 404.016 26.682C404.688 26.922 405.402 27.042 406.158 27.042C407.094 27.042 407.82 26.844 408.336 26.448C408.864 26.052 409.128 25.506 409.128 24.81C409.128 24.114 408.87 23.574 408.354 23.19C407.838 22.806 407.058 22.614 406.014 22.614H405.006V21.354L408.174 17.466H402.108V15.9H410.424V17.124L407.13 21.192ZM412.949 19.356H421.013V20.778H412.949V19.356ZM412.949 23.622H421.013V25.044H412.949V23.622ZM426.99 15.9V28.5H425.208V17.466H422.364V15.9H426.99ZM435.182 20.85C436.01 20.85 436.748 21.006 437.396 21.318C438.056 21.63 438.572 22.08 438.944 22.668C439.316 23.244 439.502 23.91 439.502 24.666C439.502 25.458 439.304 26.154 438.908 26.754C438.524 27.354 437.99 27.822 437.306 28.158C436.634 28.482 435.878 28.644 435.038 28.644C433.346 28.644 432.038 28.098 431.114 27.006C430.202 25.914 429.746 24.366 429.746 22.362C429.746 20.958 429.992 19.764 430.484 18.78C430.988 17.784 431.684 17.034 432.572 16.53C433.472 16.014 434.516 15.756 435.704 15.756C436.316 15.756 436.892 15.822 437.432 15.954C437.972 16.074 438.44 16.254 438.836 16.494L438.152 17.898C437.552 17.502 436.748 17.304 435.74 17.304C434.432 17.304 433.406 17.712 432.662 18.528C431.918 19.332 431.546 20.508 431.546 22.056C431.546 22.248 431.552 22.398 431.564 22.506C431.924 21.966 432.416 21.558 433.04 21.282C433.676 20.994 434.39 20.85 435.182 20.85ZM434.966 27.186C435.794 27.186 436.466 26.964 436.982 26.52C437.498 26.076 437.756 25.482 437.756 24.738C437.756 23.994 437.492 23.406 436.964 22.974C436.448 22.53 435.752 22.308 434.876 22.308C434.312 22.308 433.808 22.416 433.364 22.632C432.932 22.848 432.59 23.142 432.338 23.514C432.098 23.886 431.978 24.3 431.978 24.756C431.978 25.2 432.092 25.608 432.32 25.98C432.56 26.34 432.902 26.634 433.346 26.862C433.802 27.078 434.342 27.186 434.966 27.186Z" fill="black"/>
<rect x="361.5" y="0.5" width="94" height="44" rx="4.5" stroke="#2F2F2F"/>
</svg>
