<svg width="702" height="79" viewBox="0 0 702 79" fill="none" xmlns="http://www.w3.org/2000/svg">
<path d="M0.93934 44.9393C0.353553 45.5251 0.353553 46.4749 0.93934 47.0607L10.4853 56.6066C11.0711 57.1924 12.0208 57.1924 12.6066 56.6066C13.1924 56.0208 13.1924 55.0711 12.6066 54.4853L4.12132 46L12.6066 37.5147C13.1924 36.9289 13.1924 35.9792 12.6066 35.3934C12.0208 34.8076 11.0711 34.8076 10.4853 35.3934L0.93934 44.9393ZM701.061 47.0607C701.646 46.4749 701.646 45.5251 701.061 44.9393L691.515 35.3934C690.929 34.8076 689.979 34.8076 689.393 35.3934C688.808 35.9792 688.808 36.9289 689.393 37.5147L697.879 46L689.393 54.4853C688.808 55.0711 688.808 56.0208 689.393 56.6066C689.979 57.1924 690.929 57.1924 691.515 56.6066L701.061 47.0607ZM2 47.5H700V44.5H2V47.5Z" fill="#369CB7"/>
<line x1="80.5" y1="37.5" x2="80.5" y2="54.5" stroke="#369CB7" stroke-width="3" stroke-linecap="round"/>
<path d="M75.77 63.4V76H73.988V64.966H71.144V63.4H75.77ZM89.4881 72.904H87.0941V76H85.3481V72.904H78.3461V71.644L84.7901 63.4H86.7341L80.5601 71.356H85.4021V68.62H87.0941V71.356H89.4881V72.904Z" fill="#2F2F2F"/>
<path d="M155.77 63.4V76H153.988V64.966H151.144V63.4H155.77ZM162.126 68.422C163.926 68.422 165.246 68.764 166.086 69.448C166.938 70.12 167.364 71.044 167.364 72.22C167.364 72.964 167.184 73.636 166.824 74.236C166.476 74.824 165.942 75.292 165.222 75.64C164.514 75.976 163.638 76.144 162.594 76.144C161.706 76.144 160.848 76.012 160.02 75.748C159.192 75.472 158.508 75.094 157.968 74.614L158.796 73.192C159.228 73.6 159.78 73.93 160.452 74.182C161.124 74.422 161.832 74.542 162.576 74.542C163.524 74.542 164.256 74.344 164.772 73.948C165.3 73.54 165.564 72.988 165.564 72.292C165.564 71.536 165.276 70.966 164.7 70.582C164.124 70.186 163.14 69.988 161.748 69.988H158.886L159.552 63.4H166.662V64.966H161.064L160.722 68.422H162.126Z" fill="#2F2F2F"/>
<path d="M629.72 74.434V76H620.666V74.776L625.796 69.826C626.42 69.226 626.84 68.71 627.056 68.278C627.272 67.834 627.38 67.39 627.38 66.946C627.38 66.286 627.146 65.776 626.678 65.416C626.222 65.044 625.562 64.858 624.698 64.858C623.306 64.858 622.232 65.314 621.476 66.226L620.252 65.164C620.744 64.564 621.386 64.096 622.178 63.76C622.982 63.424 623.876 63.256 624.86 63.256C626.18 63.256 627.23 63.574 628.01 64.21C628.79 64.834 629.18 65.686 629.18 66.766C629.18 67.438 629.036 68.074 628.748 68.674C628.46 69.274 627.914 69.958 627.11 70.726L623.258 74.434H629.72ZM635.106 63.4V76H633.324V64.966H630.48V63.4H635.106Z" fill="#2F2F2F"/>
<path d="M232.77 63.4V76H230.988V64.966H228.144V63.4H232.77ZM240.962 68.35C241.79 68.35 242.528 68.506 243.176 68.818C243.836 69.13 244.352 69.58 244.724 70.168C245.096 70.744 245.282 71.41 245.282 72.166C245.282 72.958 245.084 73.654 244.688 74.254C244.304 74.854 243.77 75.322 243.086 75.658C242.414 75.982 241.658 76.144 240.818 76.144C239.126 76.144 237.818 75.598 236.894 74.506C235.982 73.414 235.526 71.866 235.526 69.862C235.526 68.458 235.772 67.264 236.264 66.28C236.768 65.284 237.464 64.534 238.352 64.03C239.252 63.514 240.296 63.256 241.484 63.256C242.096 63.256 242.672 63.322 243.212 63.454C243.752 63.574 244.22 63.754 244.616 63.994L243.932 65.398C243.332 65.002 242.528 64.804 241.52 64.804C240.212 64.804 239.186 65.212 238.442 66.028C237.698 66.832 237.326 68.008 237.326 69.556C237.326 69.748 237.332 69.898 237.344 70.006C237.704 69.466 238.196 69.058 238.82 68.782C239.456 68.494 240.17 68.35 240.962 68.35ZM240.746 74.686C241.574 74.686 242.246 74.464 242.762 74.02C243.278 73.576 243.536 72.982 243.536 72.238C243.536 71.494 243.272 70.906 242.744 70.474C242.228 70.03 241.532 69.808 240.656 69.808C240.092 69.808 239.588 69.916 239.144 70.132C238.712 70.348 238.37 70.642 238.118 71.014C237.878 71.386 237.758 71.8 237.758 72.256C237.758 72.7 237.872 73.108 238.1 73.48C238.34 73.84 238.682 74.134 239.126 74.362C239.582 74.578 240.122 74.686 240.746 74.686Z" fill="#2F2F2F"/>
<path d="M310.77 63.4V76H308.988V64.966H306.144V63.4H310.77ZM322.706 63.4V64.624L317.612 76H315.704L320.69 64.966H314.93V67.216H313.202V63.4H322.706Z" fill="#2F2F2F"/>
<path d="M387.77 63.4V76H385.988V64.966H383.144V63.4H387.77ZM398.23 69.394C398.95 69.67 399.502 70.066 399.886 70.582C400.27 71.098 400.462 71.716 400.462 72.436C400.462 73.192 400.258 73.852 399.85 74.416C399.442 74.968 398.86 75.394 398.104 75.694C397.348 75.994 396.46 76.144 395.44 76.144C394.432 76.144 393.55 75.994 392.794 75.694C392.05 75.394 391.474 74.968 391.066 74.416C390.658 73.852 390.454 73.192 390.454 72.436C390.454 71.716 390.64 71.098 391.012 70.582C391.396 70.066 391.948 69.67 392.668 69.394C392.092 69.118 391.654 68.752 391.354 68.296C391.054 67.84 390.904 67.3 390.904 66.676C390.904 65.98 391.09 65.374 391.462 64.858C391.846 64.342 392.38 63.946 393.064 63.67C393.748 63.394 394.54 63.256 395.44 63.256C396.352 63.256 397.15 63.394 397.834 63.67C398.53 63.946 399.064 64.342 399.436 64.858C399.82 65.374 400.012 65.98 400.012 66.676C400.012 67.288 399.856 67.828 399.544 68.296C399.244 68.752 398.806 69.118 398.23 69.394ZM395.44 64.714C394.588 64.714 393.916 64.9 393.424 65.272C392.932 65.632 392.686 66.124 392.686 66.748C392.686 67.372 392.926 67.864 393.406 68.224C393.898 68.584 394.576 68.764 395.44 68.764C396.316 68.764 397 68.584 397.492 68.224C397.996 67.864 398.248 67.372 398.248 66.748C398.248 66.124 397.99 65.632 397.474 65.272C396.97 64.9 396.292 64.714 395.44 64.714ZM395.44 74.686C396.436 74.686 397.222 74.482 397.798 74.074C398.374 73.654 398.662 73.09 398.662 72.382C398.662 71.686 398.374 71.14 397.798 70.744C397.222 70.336 396.436 70.132 395.44 70.132C394.444 70.132 393.664 70.336 393.1 70.744C392.536 71.14 392.254 71.686 392.254 72.382C392.254 73.09 392.536 73.654 393.1 74.074C393.664 74.482 394.444 74.686 395.44 74.686Z" fill="#2F2F2F"/>
<path d="M467.77 63.4V76H465.988V64.966H463.144V63.4H467.77ZM474.612 63.256C476.304 63.256 477.606 63.802 478.518 64.894C479.442 65.986 479.904 67.534 479.904 69.538C479.904 70.942 479.652 72.142 479.148 73.138C478.656 74.122 477.96 74.872 477.06 75.388C476.172 75.892 475.134 76.144 473.946 76.144C473.334 76.144 472.758 76.084 472.218 75.964C471.678 75.832 471.21 75.646 470.814 75.406L471.498 74.002C472.11 74.398 472.92 74.596 473.928 74.596C475.236 74.596 476.256 74.194 476.988 73.39C477.732 72.574 478.104 71.392 478.104 69.844V69.394C477.744 69.934 477.246 70.348 476.61 70.636C475.974 70.912 475.26 71.05 474.468 71.05C473.64 71.05 472.896 70.894 472.236 70.582C471.588 70.27 471.078 69.826 470.706 69.25C470.346 68.662 470.166 67.99 470.166 67.234C470.166 66.442 470.358 65.746 470.742 65.146C471.138 64.546 471.672 64.084 472.344 63.76C473.016 63.424 473.772 63.256 474.612 63.256ZM474.774 69.592C475.338 69.592 475.842 69.484 476.286 69.268C476.73 69.052 477.072 68.758 477.312 68.386C477.564 68.014 477.69 67.6 477.69 67.144C477.69 66.7 477.57 66.298 477.33 65.938C477.102 65.566 476.76 65.272 476.304 65.056C475.86 64.828 475.32 64.714 474.684 64.714C473.856 64.714 473.184 64.936 472.668 65.38C472.164 65.824 471.912 66.418 471.912 67.162C471.912 67.906 472.17 68.5 472.686 68.944C473.202 69.376 473.898 69.592 474.774 69.592Z" fill="#2F2F2F"/>
<path d="M546.72 74.434V76H537.666V74.776L542.796 69.826C543.42 69.226 543.84 68.71 544.056 68.278C544.272 67.834 544.38 67.39 544.38 66.946C544.38 66.286 544.146 65.776 543.678 65.416C543.222 65.044 542.562 64.858 541.698 64.858C540.306 64.858 539.232 65.314 538.476 66.226L537.252 65.164C537.744 64.564 538.386 64.096 539.178 63.76C539.982 63.424 540.876 63.256 541.86 63.256C543.18 63.256 544.23 63.574 545.01 64.21C545.79 64.834 546.18 65.686 546.18 66.766C546.18 67.438 546.036 68.074 545.748 68.674C545.46 69.274 544.914 69.958 544.11 70.726L540.258 74.434H546.72ZM553.295 76.144C552.299 76.144 551.411 75.892 550.631 75.388C549.863 74.872 549.257 74.128 548.813 73.156C548.369 72.184 548.147 71.032 548.147 69.7C548.147 68.368 548.369 67.216 548.813 66.244C549.257 65.272 549.863 64.534 550.631 64.03C551.411 63.514 552.299 63.256 553.295 63.256C554.279 63.256 555.155 63.514 555.923 64.03C556.703 64.534 557.315 65.272 557.759 66.244C558.203 67.216 558.425 68.368 558.425 69.7C558.425 71.032 558.203 72.184 557.759 73.156C557.315 74.128 556.703 74.872 555.923 75.388C555.155 75.892 554.279 76.144 553.295 76.144ZM553.295 74.542C554.303 74.542 555.107 74.128 555.707 73.3C556.319 72.472 556.625 71.272 556.625 69.7C556.625 68.128 556.319 66.928 555.707 66.1C555.107 65.272 554.303 64.858 553.295 64.858C552.275 64.858 551.459 65.272 550.847 66.1C550.247 66.928 549.947 68.128 549.947 69.7C549.947 71.272 550.247 72.472 550.847 73.3C551.459 74.128 552.275 74.542 553.295 74.542Z" fill="#2F2F2F"/>
<line x1="158.5" y1="37.5" x2="158.5" y2="54.5" stroke="#369CB7" stroke-width="3" stroke-linecap="round"/>
<line x1="236.5" y1="37.5" x2="236.5" y2="54.5" stroke="#369CB7" stroke-width="3" stroke-linecap="round"/>
<line x1="314.5" y1="37.5" x2="314.5" y2="54.5" stroke="#369CB7" stroke-width="3" stroke-linecap="round"/>
<line x1="392.5" y1="37.5" x2="392.5" y2="54.5" stroke="#369CB7" stroke-width="3" stroke-linecap="round"/>
<line x1="470.5" y1="37.5" x2="470.5" y2="54.5" stroke="#369CB7" stroke-width="3" stroke-linecap="round"/>
<line x1="548.5" y1="37.5" x2="548.5" y2="54.5" stroke="#369CB7" stroke-width="3" stroke-linecap="round"/>
<line x1="626.5" y1="37.5" x2="626.5" y2="54.5" stroke="#369CB7" stroke-width="3" stroke-linecap="round"/>
<path d="M233.508 29.841C233.421 30.6648 234.017 31.4037 234.841 31.4915C235.665 31.5794 236.404 30.9828 236.492 30.159L233.508 29.841ZM270.794 2.00272L270.808 0.502794L270.808 0.502794L270.794 2.00272ZM302.956 31.0771C303.551 31.6536 304.5 31.6388 305.077 31.044L314.473 21.3505C315.05 20.7556 315.035 19.806 314.44 19.2294C313.845 18.6528 312.896 18.6676 312.319 19.2625L303.967 27.8789L295.35 19.5269C294.756 18.9503 293.806 18.9651 293.229 19.5599C292.653 20.1548 292.668 21.1044 293.262 21.681L302.956 31.0771ZM235 30C236.492 30.159 236.491 30.1597 236.491 30.1603C236.491 30.1604 236.491 30.1609 236.491 30.1611C236.491 30.1613 236.491 30.1611 236.491 30.1606C236.492 30.1594 236.492 30.1565 236.492 30.152C236.493 30.143 236.495 30.1273 236.498 30.1052C236.504 30.0611 236.513 29.9913 236.526 29.8976C236.554 29.7102 236.598 29.4274 236.668 29.063C236.806 28.3336 237.04 27.28 237.421 26.0113C238.183 23.4694 239.526 20.0915 241.841 16.7319C246.425 10.0816 254.915 3.34689 270.779 3.50265L270.808 0.502794C253.897 0.336748 244.491 7.60069 239.371 15.0295C236.835 18.7094 235.375 22.3911 234.547 25.1491C234.133 26.5303 233.875 27.6865 233.72 28.5046C233.642 28.9139 233.59 29.2392 233.557 29.4665C233.541 29.5801 233.529 29.6693 233.521 29.7323C233.517 29.7638 233.514 29.7887 233.512 29.8069C233.511 29.816 233.51 29.8234 233.51 29.8291C233.509 29.832 233.509 29.8344 233.509 29.8364C233.509 29.8374 233.509 29.8385 233.509 29.839C233.509 29.8401 233.508 29.841 235 30ZM270.779 3.50265C286.652 3.6585 294.47 10.388 298.404 16.8977C300.397 20.1976 301.425 23.4992 301.953 25.9825C302.217 27.2216 302.354 28.2491 302.425 28.9596C302.46 29.3146 302.479 29.5896 302.489 29.7715C302.494 29.8625 302.497 29.93 302.499 29.9726C302.499 29.9939 302.5 30.0089 302.5 30.0174C302.5 30.0217 302.5 30.0243 302.5 30.0253C302.5 30.0258 302.5 30.0259 302.5 30.0256C302.5 30.0254 302.5 30.0249 302.5 30.0248C302.5 30.0241 302.5 30.0234 304 30C305.5 29.9766 305.5 29.9757 305.5 29.9746C305.5 29.9741 305.5 29.9729 305.5 29.9719C305.5 29.9699 305.5 29.9674 305.5 29.9646C305.499 29.9589 305.499 29.9515 305.499 29.9425C305.499 29.9244 305.498 29.8997 305.497 29.8686C305.495 29.8064 305.491 29.7185 305.485 29.6067C305.473 29.383 305.45 29.0632 305.41 28.6608C305.329 27.8565 305.177 26.7193 304.888 25.3588C304.31 22.643 303.182 19.0056 300.971 15.3463C296.495 7.93793 287.711 0.668754 270.808 0.502794L270.779 3.50265Z" fill="#065B5B"/>
<path d="M312.508 29.841C312.421 30.6648 313.017 31.4037 313.841 31.4915C314.665 31.5794 315.404 30.9828 315.492 30.159L312.508 29.841ZM349.794 2.00272L349.808 0.502794L349.808 0.502794L349.794 2.00272ZM381.956 31.0771C382.551 31.6536 383.5 31.6388 384.077 31.044L393.473 21.3505C394.05 20.7556 394.035 19.806 393.44 19.2294C392.845 18.6528 391.896 18.6676 391.319 19.2625L382.967 27.8789L374.35 19.5269C373.756 18.9503 372.806 18.9651 372.229 19.5599C371.653 20.1548 371.668 21.1044 372.262 21.681L381.956 31.0771ZM314 30C315.492 30.159 315.491 30.1597 315.491 30.1603C315.491 30.1604 315.491 30.1609 315.491 30.1611C315.491 30.1613 315.491 30.1611 315.491 30.1606C315.492 30.1594 315.492 30.1565 315.492 30.152C315.493 30.143 315.495 30.1273 315.498 30.1052C315.504 30.0611 315.513 29.9913 315.526 29.8976C315.554 29.7102 315.598 29.4274 315.668 29.063C315.806 28.3336 316.04 27.28 316.421 26.0113C317.183 23.4694 318.526 20.0915 320.841 16.7319C325.425 10.0816 333.915 3.34689 349.779 3.50265L349.808 0.502794C332.897 0.336748 323.491 7.60069 318.371 15.0295C315.835 18.7094 314.375 22.3911 313.547 25.1491C313.133 26.5303 312.875 27.6865 312.72 28.5046C312.642 28.9139 312.59 29.2392 312.557 29.4665C312.541 29.5801 312.529 29.6693 312.521 29.7323C312.517 29.7638 312.514 29.7887 312.512 29.8069C312.511 29.816 312.51 29.8234 312.51 29.8291C312.509 29.832 312.509 29.8344 312.509 29.8364C312.509 29.8374 312.509 29.8385 312.509 29.839C312.509 29.8401 312.508 29.841 314 30ZM349.779 3.50265C365.652 3.6585 373.47 10.388 377.404 16.8977C379.397 20.1976 380.425 23.4992 380.953 25.9825C381.217 27.2216 381.354 28.2491 381.425 28.9596C381.46 29.3146 381.479 29.5896 381.489 29.7715C381.494 29.8625 381.497 29.93 381.499 29.9726C381.499 29.9939 381.5 30.0089 381.5 30.0174C381.5 30.0217 381.5 30.0243 381.5 30.0253C381.5 30.0258 381.5 30.0259 381.5 30.0256C381.5 30.0254 381.5 30.0249 381.5 30.0248C381.5 30.0241 381.5 30.0234 383 30C384.5 29.9766 384.5 29.9757 384.5 29.9746C384.5 29.9741 384.5 29.9729 384.5 29.9719C384.5 29.9699 384.5 29.9674 384.5 29.9646C384.499 29.9589 384.499 29.9515 384.499 29.9425C384.499 29.9244 384.498 29.8997 384.497 29.8686C384.495 29.8064 384.491 29.7185 384.485 29.6067C384.473 29.383 384.45 29.0632 384.41 28.6608C384.329 27.8565 384.177 26.7193 383.888 25.3588C383.31 22.643 382.182 19.0056 379.971 15.3463C375.495 7.93793 366.711 0.668754 349.808 0.502794L349.779 3.50265Z" fill="#065B5B"/>
<path d="M391.508 29.841C391.421 30.6648 392.017 31.4037 392.841 31.4915C393.665 31.5794 394.404 30.9828 394.492 30.159L391.508 29.841ZM428.794 2.00272L428.808 0.502794L428.808 0.502794L428.794 2.00272ZM460.956 31.0771C461.551 31.6536 462.5 31.6388 463.077 31.044L472.473 21.3505C473.05 20.7556 473.035 19.806 472.44 19.2294C471.845 18.6528 470.896 18.6676 470.319 19.2625L461.967 27.8789L453.35 19.5269C452.756 18.9503 451.806 18.9651 451.229 19.5599C450.653 20.1548 450.668 21.1044 451.262 21.681L460.956 31.0771ZM393 30C394.492 30.159 394.491 30.1597 394.491 30.1603C394.491 30.1604 394.491 30.1609 394.491 30.1611C394.491 30.1613 394.491 30.1611 394.491 30.1606C394.492 30.1594 394.492 30.1565 394.492 30.152C394.493 30.143 394.495 30.1273 394.498 30.1052C394.504 30.0611 394.513 29.9913 394.526 29.8976C394.554 29.7102 394.598 29.4274 394.668 29.063C394.806 28.3336 395.04 27.28 395.421 26.0113C396.183 23.4694 397.526 20.0915 399.841 16.7319C404.425 10.0816 412.915 3.34689 428.779 3.50265L428.808 0.502794C411.897 0.336748 402.491 7.60069 397.371 15.0295C394.835 18.7094 393.375 22.3911 392.547 25.1491C392.133 26.5303 391.875 27.6865 391.72 28.5046C391.642 28.9139 391.59 29.2392 391.557 29.4665C391.541 29.5801 391.529 29.6693 391.521 29.7323C391.517 29.7638 391.514 29.7887 391.512 29.8069C391.511 29.816 391.51 29.8234 391.51 29.8291C391.509 29.832 391.509 29.8344 391.509 29.8364C391.509 29.8374 391.509 29.8385 391.509 29.839C391.509 29.8401 391.508 29.841 393 30ZM428.779 3.50265C444.652 3.6585 452.47 10.388 456.404 16.8977C458.397 20.1976 459.425 23.4992 459.953 25.9825C460.217 27.2216 460.354 28.2491 460.425 28.9596C460.46 29.3146 460.479 29.5896 460.489 29.7715C460.494 29.8625 460.497 29.93 460.499 29.9726C460.499 29.9939 460.5 30.0089 460.5 30.0174C460.5 30.0217 460.5 30.0243 460.5 30.0253C460.5 30.0258 460.5 30.0259 460.5 30.0256C460.5 30.0254 460.5 30.0249 460.5 30.0248C460.5 30.0241 460.5 30.0234 462 30C463.5 29.9766 463.5 29.9757 463.5 29.9746C463.5 29.9741 463.5 29.9729 463.5 29.9719C463.5 29.9699 463.5 29.9674 463.5 29.9646C463.499 29.9589 463.499 29.9515 463.499 29.9425C463.499 29.9244 463.498 29.8997 463.497 29.8686C463.495 29.8064 463.491 29.7185 463.485 29.6067C463.473 29.383 463.45 29.0632 463.41 28.6608C463.329 27.8565 463.177 26.7193 462.888 25.3588C462.31 22.643 461.182 19.0056 458.971 15.3463C454.495 7.93793 445.711 0.668754 428.808 0.502794L428.779 3.50265Z" fill="#065B5B"/>
</svg>
