<svg width="80" height="45" viewBox="0 0 80 45" fill="none" xmlns="http://www.w3.org/2000/svg">
<g opacity="0.3">
<path d="M0 5C0 2.23858 2.23858 0 5 0H75C77.7614 0 80 2.23858 80 5V40C80 42.7614 77.7614 45 75 45H5C2.23858 45 0 42.7614 0 40V5Z" fill="#369CB7"/>
<path d="M5 1H75V-1H5V1ZM79 5V40H81V5H79ZM75 44H5V46H75V44ZM1 40V5H-1V40H1ZM5 44C2.79086 44 1 42.2091 1 40H-1C-1 43.3137 1.68629 46 5 46V44ZM79 40C79 42.2091 77.2091 44 75 44V46C78.3137 46 81 43.3137 81 40H79ZM75 1C77.2091 1 79 2.79086 79 5H81C81 1.68629 78.3137 -1 75 -1V1ZM5 -1C1.68629 -1 -1 1.68629 -1 5H1C1 2.79086 2.79086 1 5 1V-1Z" fill="#369CB7"/>
</g>
</svg>
