<svg width="120" height="45" viewBox="0 0 120 45" fill="none" xmlns="http://www.w3.org/2000/svg">
<path d="M0 5C0 2.23858 2.23858 0 5 0H115C117.761 0 120 2.23858 120 5V40C120 42.7614 117.761 45 115 45H5C2.23858 45 0 42.7614 0 40V5Z" fill="#369CB7"/>
<path d="M28.5778 21.894C29.2978 22.17 29.8498 22.566 30.2338 23.082C30.6178 23.598 30.8098 24.216 30.8098 24.936C30.8098 25.692 30.6058 26.352 30.1978 26.916C29.7898 27.468 29.2078 27.894 28.4518 28.194C27.6958 28.494 26.8078 28.644 25.7878 28.644C24.7798 28.644 23.8978 28.494 23.1418 28.194C22.3978 27.894 21.8218 27.468 21.4138 26.916C21.0058 26.352 20.8018 25.692 20.8018 24.936C20.8018 24.216 20.9878 23.598 21.3598 23.082C21.7438 22.566 22.2958 22.17 23.0158 21.894C22.4398 21.618 22.0018 21.252 21.7018 20.796C21.4018 20.34 21.2518 19.8 21.2518 19.176C21.2518 18.48 21.4378 17.874 21.8098 17.358C22.1938 16.842 22.7278 16.446 23.4118 16.17C24.0958 15.894 24.8878 15.756 25.7878 15.756C26.6998 15.756 27.4978 15.894 28.1818 16.17C28.8778 16.446 29.4118 16.842 29.7838 17.358C30.1678 17.874 30.3598 18.48 30.3598 19.176C30.3598 19.788 30.2038 20.328 29.8918 20.796C29.5918 21.252 29.1538 21.618 28.5778 21.894ZM25.7878 17.214C24.9358 17.214 24.2638 17.4 23.7718 17.772C23.2798 18.132 23.0338 18.624 23.0338 19.248C23.0338 19.872 23.2738 20.364 23.7538 20.724C24.2458 21.084 24.9238 21.264 25.7878 21.264C26.6638 21.264 27.3478 21.084 27.8398 20.724C28.3438 20.364 28.5958 19.872 28.5958 19.248C28.5958 18.624 28.3378 18.132 27.8218 17.772C27.3178 17.4 26.6398 17.214 25.7878 17.214ZM25.7878 27.186C26.7838 27.186 27.5698 26.982 28.1458 26.574C28.7218 26.154 29.0098 25.59 29.0098 24.882C29.0098 24.186 28.7218 23.64 28.1458 23.244C27.5698 22.836 26.7838 22.632 25.7878 22.632C24.7918 22.632 24.0118 22.836 23.4478 23.244C22.8838 23.64 22.6018 24.186 22.6018 24.882C22.6018 25.59 22.8838 26.154 23.4478 26.574C24.0118 26.982 24.7918 27.186 25.7878 27.186ZM45.6977 22.92H42.4217V26.142H40.9097V22.92H37.6337V21.498H40.9097V18.258H42.4217V21.498H45.6977V22.92ZM58.0383 20.85C58.8663 20.85 59.6043 21.006 60.2523 21.318C60.9123 21.63 61.4283 22.08 61.8003 22.668C62.1723 23.244 62.3583 23.91 62.3583 24.666C62.3583 25.458 62.1603 26.154 61.7643 26.754C61.3803 27.354 60.8463 27.822 60.1623 28.158C59.4903 28.482 58.7343 28.644 57.8943 28.644C56.2023 28.644 54.8943 28.098 53.9703 27.006C53.0583 25.914 52.6023 24.366 52.6023 22.362C52.6023 20.958 52.8483 19.764 53.3403 18.78C53.8443 17.784 54.5403 17.034 55.4283 16.53C56.3283 16.014 57.3723 15.756 58.5603 15.756C59.1723 15.756 59.7483 15.822 60.2883 15.954C60.8283 16.074 61.2963 16.254 61.6923 16.494L61.0083 17.898C60.4083 17.502 59.6043 17.304 58.5963 17.304C57.2883 17.304 56.2623 17.712 55.5183 18.528C54.7743 19.332 54.4023 20.508 54.4023 22.056C54.4023 22.248 54.4083 22.398 54.4203 22.506C54.7803 21.966 55.2723 21.558 55.8963 21.282C56.5323 20.994 57.2463 20.85 58.0383 20.85ZM57.8223 27.186C58.6503 27.186 59.3223 26.964 59.8383 26.52C60.3543 26.076 60.6123 25.482 60.6123 24.738C60.6123 23.994 60.3483 23.406 59.8203 22.974C59.3043 22.53 58.6083 22.308 57.7323 22.308C57.1683 22.308 56.6643 22.416 56.2203 22.632C55.7883 22.848 55.4463 23.142 55.1943 23.514C54.9543 23.886 54.8343 24.3 54.8343 24.756C54.8343 25.2 54.9483 25.608 55.1763 25.98C55.4163 26.34 55.7583 26.634 56.2023 26.862C56.6583 27.078 57.1983 27.186 57.8223 27.186ZM68.8876 19.356H76.9516V20.778H68.8876V19.356ZM68.8876 23.622H76.9516V25.044H68.8876V23.622ZM87.7622 15.9V28.5H85.9802V17.466H83.1362V15.9H87.7622ZM99.3743 26.934V28.5H90.3203V27.276L95.4503 22.326C96.0743 21.726 96.4943 21.21 96.7103 20.778C96.9263 20.334 97.0343 19.89 97.0343 19.446C97.0343 18.786 96.8003 18.276 96.3323 17.916C95.8763 17.544 95.2163 17.358 94.3523 17.358C92.9603 17.358 91.8863 17.814 91.1303 18.726L89.9063 17.664C90.3983 17.064 91.0403 16.596 91.8323 16.26C92.6363 15.924 93.5303 15.756 94.5143 15.756C95.8343 15.756 96.8843 16.074 97.6643 16.71C98.4443 17.334 98.8343 18.186 98.8343 19.266C98.8343 19.938 98.6903 20.574 98.4023 21.174C98.1143 21.774 97.5683 22.458 96.7643 23.226L92.9123 26.934H99.3743Z" fill="white"/>
<path d="M5 1H115V-1H5V1ZM119 5V40H121V5H119ZM115 44H5V46H115V44ZM1 40V5H-1V40H1ZM5 44C2.79086 44 1 42.2091 1 40H-1C-1 43.3137 1.68629 46 5 46V44ZM119 40C119 42.2091 117.209 44 115 44V46C118.314 46 121 43.3137 121 40H119ZM115 1C117.209 1 119 2.79086 119 5H121C121 1.68629 118.314 -1 115 -1V1ZM5 -1C1.68629 -1 -1 1.68629 -1 5H1C1 2.79086 2.79086 1 5 1V-1Z" fill="#369CB7"/>
</svg>
