<svg width="80" height="45" viewBox="0 0 80 45" fill="none" xmlns="http://www.w3.org/2000/svg">
<path d="M0 5C0 2.23858 2.23858 0 5 0H75C77.7614 0 80 2.23858 80 5V40C80 42.7614 77.7614 45 75 45H5C2.23858 45 0 42.7614 0 40V5Z" fill="#369CB7"/>
<path d="M25.1184 20.85C25.9464 20.85 26.6844 21.006 27.3324 21.318C27.9924 21.63 28.5084 22.08 28.8804 22.668C29.2524 23.244 29.4384 23.91 29.4384 24.666C29.4384 25.458 29.2404 26.154 28.8444 26.754C28.4604 27.354 27.9264 27.822 27.2424 28.158C26.5704 28.482 25.8144 28.644 24.9744 28.644C23.2824 28.644 21.9744 28.098 21.0504 27.006C20.1384 25.914 19.6824 24.366 19.6824 22.362C19.6824 20.958 19.9284 19.764 20.4204 18.78C20.9244 17.784 21.6204 17.034 22.5084 16.53C23.4084 16.014 24.4524 15.756 25.6404 15.756C26.2524 15.756 26.8284 15.822 27.3684 15.954C27.9084 16.074 28.3764 16.254 28.7724 16.494L28.0884 17.898C27.4884 17.502 26.6844 17.304 25.6764 17.304C24.3684 17.304 23.3424 17.712 22.5984 18.528C21.8544 19.332 21.4824 20.508 21.4824 22.056C21.4824 22.248 21.4884 22.398 21.5004 22.506C21.8604 21.966 22.3524 21.558 22.9764 21.282C23.6124 20.994 24.3264 20.85 25.1184 20.85ZM24.9024 27.186C25.7304 27.186 26.4024 26.964 26.9184 26.52C27.4344 26.076 27.6924 25.482 27.6924 24.738C27.6924 23.994 27.4284 23.406 26.9004 22.974C26.3844 22.53 25.6884 22.308 24.8124 22.308C24.2484 22.308 23.7444 22.416 23.3004 22.632C22.8684 22.848 22.5264 23.142 22.2744 23.514C22.0344 23.886 21.9144 24.3 21.9144 24.756C21.9144 25.2 22.0284 25.608 22.2564 25.98C22.4964 26.34 22.8384 26.634 23.2824 26.862C23.7384 27.078 24.2784 27.186 24.9024 27.186ZM35.9677 19.356H44.0317V20.778H35.9677V19.356ZM35.9677 23.622H44.0317V25.044H35.9677V23.622ZM56.3723 20.85C57.2003 20.85 57.9383 21.006 58.5863 21.318C59.2463 21.63 59.7623 22.08 60.1343 22.668C60.5063 23.244 60.6923 23.91 60.6923 24.666C60.6923 25.458 60.4943 26.154 60.0983 26.754C59.7143 27.354 59.1803 27.822 58.4963 28.158C57.8243 28.482 57.0683 28.644 56.2283 28.644C54.5363 28.644 53.2283 28.098 52.3043 27.006C51.3923 25.914 50.9363 24.366 50.9363 22.362C50.9363 20.958 51.1823 19.764 51.6743 18.78C52.1783 17.784 52.8743 17.034 53.7623 16.53C54.6623 16.014 55.7063 15.756 56.8943 15.756C57.5063 15.756 58.0823 15.822 58.6223 15.954C59.1623 16.074 59.6303 16.254 60.0263 16.494L59.3423 17.898C58.7423 17.502 57.9383 17.304 56.9303 17.304C55.6223 17.304 54.5963 17.712 53.8523 18.528C53.1083 19.332 52.7363 20.508 52.7363 22.056C52.7363 22.248 52.7423 22.398 52.7543 22.506C53.1143 21.966 53.6063 21.558 54.2303 21.282C54.8663 20.994 55.5803 20.85 56.3723 20.85ZM56.1563 27.186C56.9843 27.186 57.6563 26.964 58.1723 26.52C58.6883 26.076 58.9463 25.482 58.9463 24.738C58.9463 23.994 58.6823 23.406 58.1543 22.974C57.6383 22.53 56.9423 22.308 56.0663 22.308C55.5023 22.308 54.9983 22.416 54.5543 22.632C54.1223 22.848 53.7803 23.142 53.5283 23.514C53.2883 23.886 53.1683 24.3 53.1683 24.756C53.1683 25.2 53.2823 25.608 53.5103 25.98C53.7503 26.34 54.0923 26.634 54.5363 26.862C54.9923 27.078 55.5323 27.186 56.1563 27.186Z" fill="white"/>
<path d="M5 1H75V-1H5V1ZM79 5V40H81V5H79ZM75 44H5V46H75V44ZM1 40V5H-1V40H1ZM5 44C2.79086 44 1 42.2091 1 40H-1C-1 43.3137 1.68629 46 5 46V44ZM79 40C79 42.2091 77.2091 44 75 44V46C78.3137 46 81 43.3137 81 40H79ZM75 1C77.2091 1 79 2.79086 79 5H81C81 1.68629 78.3137 -1 75 -1V1ZM5 -1C1.68629 -1 -1 1.68629 -1 5H1C1 2.79086 2.79086 1 5 1V-1Z" fill="#369CB7"/>
</svg>
