<svg width="120" height="45" viewBox="0 0 120 45" fill="none" xmlns="http://www.w3.org/2000/svg">
<path d="M0 5C0 2.23858 2.23858 0 5 0H115C117.761 0 120 2.23858 120 5V40C120 42.7614 117.761 45 115 45H5C2.23858 45 0 42.7614 0 40V5Z" fill="#369CB7"/>
<path d="M21.9217 25.404H19.5277V28.5H17.7817V25.404H10.7797V24.144L17.2237 15.9H19.1677L12.9937 23.856H17.8357V21.12H19.5277V23.856H21.9217V25.404ZM36.2407 22.92H32.9647V26.142H31.4527V22.92H28.1767V21.498H31.4527V18.258H32.9647V21.498H36.2407V22.92ZM47.0513 15.9V28.5H45.2693V17.466H42.4253V15.9H47.0513ZM54.9833 19.356H63.0473V20.778H54.9833V19.356ZM54.9833 23.622H63.0473V25.044H54.9833V23.622ZM73.5519 20.922C75.3519 20.922 76.6719 21.264 77.5119 21.948C78.3639 22.62 78.7899 23.544 78.7899 24.72C78.7899 25.464 78.6099 26.136 78.2499 26.736C77.9019 27.324 77.3679 27.792 76.6479 28.14C75.9399 28.476 75.0639 28.644 74.0199 28.644C73.1319 28.644 72.2739 28.512 71.4459 28.248C70.6179 27.972 69.9339 27.594 69.3939 27.114L70.2219 25.692C70.6539 26.1 71.2059 26.43 71.8779 26.682C72.5499 26.922 73.2579 27.042 74.0019 27.042C74.9499 27.042 75.6819 26.844 76.1979 26.448C76.7259 26.04 76.9899 25.488 76.9899 24.792C76.9899 24.036 76.7019 23.466 76.1259 23.082C75.5499 22.686 74.5659 22.488 73.1739 22.488H70.3119L70.9779 15.9H78.0879V17.466H72.4899L72.1479 20.922H73.5519ZM93.5278 22.92H90.2518V26.142H88.7398V22.92H85.4638V21.498H88.7398V18.258H90.2518V21.498H93.5278V22.92ZM109.288 26.934V28.5H100.234V27.276L105.364 22.326C105.988 21.726 106.408 21.21 106.624 20.778C106.84 20.334 106.948 19.89 106.948 19.446C106.948 18.786 106.714 18.276 106.246 17.916C105.79 17.544 105.13 17.358 104.266 17.358C102.874 17.358 101.8 17.814 101.044 18.726L99.8204 17.664C100.312 17.064 100.954 16.596 101.746 16.26C102.55 15.924 103.444 15.756 104.428 15.756C105.748 15.756 106.798 16.074 107.578 16.71C108.358 17.334 108.748 18.186 108.748 19.266C108.748 19.938 108.604 20.574 108.316 21.174C108.028 21.774 107.482 22.458 106.678 23.226L102.826 26.934H109.288Z" fill="white"/>
<path d="M5 1H115V-1H5V1ZM119 5V40H121V5H119ZM115 44H5V46H115V44ZM1 40V5H-1V40H1ZM5 44C2.79086 44 1 42.2091 1 40H-1C-1 43.3137 1.68629 46 5 46V44ZM119 40C119 42.2091 117.209 44 115 44V46C118.314 46 121 43.3137 121 40H119ZM115 1C117.209 1 119 2.79086 119 5H121C121 1.68629 118.314 -1 115 -1V1ZM5 -1C1.68629 -1 -1 1.68629 -1 5H1C1 2.79086 2.79086 1 5 1V-1Z" fill="#369CB7"/>
</svg>
