<svg width="80" height="45" viewBox="0 0 80 45" fill="none" xmlns="http://www.w3.org/2000/svg">
<path d="M0 5C0 2.23858 2.23858 0 5 0H75C77.7614 0 80 2.23858 80 5V40C80 42.7614 77.7614 45 75 45H5C2.23858 45 0 42.7614 0 40V5Z" fill="#369CB7"/>
<path d="M17.1905 15.9V17.124L12.0965 28.5H10.1885L15.1745 17.466H9.41448V19.716H7.68648V15.9H17.1905ZM23.9443 19.356H32.0083V20.778H23.9443V19.356ZM23.9443 23.622H32.0083V25.044H23.9443V23.622ZM46.6168 21.894C47.3368 22.17 47.8888 22.566 48.2728 23.082C48.6568 23.598 48.8488 24.216 48.8488 24.936C48.8488 25.692 48.6448 26.352 48.2368 26.916C47.8288 27.468 47.2468 27.894 46.4908 28.194C45.7348 28.494 44.8468 28.644 43.8268 28.644C42.8188 28.644 41.9368 28.494 41.1808 28.194C40.4368 27.894 39.8608 27.468 39.4528 26.916C39.0448 26.352 38.8408 25.692 38.8408 24.936C38.8408 24.216 39.0268 23.598 39.3988 23.082C39.7828 22.566 40.3348 22.17 41.0548 21.894C40.4788 21.618 40.0408 21.252 39.7408 20.796C39.4408 20.34 39.2908 19.8 39.2908 19.176C39.2908 18.48 39.4768 17.874 39.8488 17.358C40.2328 16.842 40.7668 16.446 41.4508 16.17C42.1348 15.894 42.9268 15.756 43.8268 15.756C44.7388 15.756 45.5368 15.894 46.2208 16.17C46.9168 16.446 47.4508 16.842 47.8228 17.358C48.2068 17.874 48.3988 18.48 48.3988 19.176C48.3988 19.788 48.2428 20.328 47.9308 20.796C47.6308 21.252 47.1928 21.618 46.6168 21.894ZM43.8268 17.214C42.9748 17.214 42.3028 17.4 41.8108 17.772C41.3188 18.132 41.0728 18.624 41.0728 19.248C41.0728 19.872 41.3128 20.364 41.7928 20.724C42.2848 21.084 42.9628 21.264 43.8268 21.264C44.7028 21.264 45.3868 21.084 45.8788 20.724C46.3828 20.364 46.6348 19.872 46.6348 19.248C46.6348 18.624 46.3768 18.132 45.8608 17.772C45.3568 17.4 44.6788 17.214 43.8268 17.214ZM43.8268 27.186C44.8228 27.186 45.6088 26.982 46.1848 26.574C46.7608 26.154 47.0488 25.59 47.0488 24.882C47.0488 24.186 46.7608 23.64 46.1848 23.244C45.6088 22.836 44.8228 22.632 43.8268 22.632C42.8308 22.632 42.0508 22.836 41.4868 23.244C40.9228 23.64 40.6408 24.186 40.6408 24.882C40.6408 25.59 40.9228 26.154 41.4868 26.574C42.0508 26.982 42.8308 27.186 43.8268 27.186ZM55.4928 22.812H60.3348V24.306H55.4928V22.812ZM70.9614 15.9V28.5H69.1794V17.466H66.3354V15.9H70.9614Z" fill="white"/>
<path d="M5 1H75V-1H5V1ZM79 5V40H81V5H79ZM75 44H5V46H75V44ZM1 40V5H-1V40H1ZM5 44C2.79086 44 1 42.2091 1 40H-1C-1 43.3137 1.68629 46 5 46V44ZM79 40C79 42.2091 77.2091 44 75 44V46C78.3137 46 81 43.3137 81 40H79ZM75 1C77.2091 1 79 2.79086 79 5H81C81 1.68629 78.3137 -1 75 -1V1ZM5 -1C1.68629 -1 -1 1.68629 -1 5H1C1 2.79086 2.79086 1 5 1V-1Z" fill="#369CB7"/>
</svg>
