<svg width="120" height="45" viewBox="0 0 120 45" fill="none" xmlns="http://www.w3.org/2000/svg">
<path d="M0 5C0 2.23858 2.23858 0 5 0H115C117.761 0 120 2.23858 120 5V40C120 42.7614 117.761 45 115 45H5C2.23858 45 0 42.7614 0 40V5Z" fill="#369CB7"/>
<path d="M14.9371 21.894C15.6571 22.17 16.2091 22.566 16.5931 23.082C16.9771 23.598 17.1691 24.216 17.1691 24.936C17.1691 25.692 16.9651 26.352 16.5571 26.916C16.1491 27.468 15.5671 27.894 14.8111 28.194C14.0551 28.494 13.1671 28.644 12.1471 28.644C11.1391 28.644 10.2571 28.494 9.50114 28.194C8.75714 27.894 8.18114 27.468 7.77314 26.916C7.36514 26.352 7.16114 25.692 7.16114 24.936C7.16114 24.216 7.34714 23.598 7.71914 23.082C8.10314 22.566 8.65514 22.17 9.37514 21.894C8.79914 21.618 8.36114 21.252 8.06114 20.796C7.76114 20.34 7.61114 19.8 7.61114 19.176C7.61114 18.48 7.79714 17.874 8.16914 17.358C8.55314 16.842 9.08714 16.446 9.77114 16.17C10.4551 15.894 11.2471 15.756 12.1471 15.756C13.0591 15.756 13.8571 15.894 14.5411 16.17C15.2371 16.446 15.7711 16.842 16.1431 17.358C16.5271 17.874 16.7191 18.48 16.7191 19.176C16.7191 19.788 16.5631 20.328 16.2511 20.796C15.9511 21.252 15.5131 21.618 14.9371 21.894ZM12.1471 17.214C11.2951 17.214 10.6231 17.4 10.1311 17.772C9.63914 18.132 9.39314 18.624 9.39314 19.248C9.39314 19.872 9.63314 20.364 10.1131 20.724C10.6051 21.084 11.2831 21.264 12.1471 21.264C13.0231 21.264 13.7071 21.084 14.1991 20.724C14.7031 20.364 14.9551 19.872 14.9551 19.248C14.9551 18.624 14.6971 18.132 14.1811 17.772C13.6771 17.4 12.9991 17.214 12.1471 17.214ZM12.1471 27.186C13.1431 27.186 13.9291 26.982 14.5051 26.574C15.0811 26.154 15.3691 25.59 15.3691 24.882C15.3691 24.186 15.0811 23.64 14.5051 23.244C13.9291 22.836 13.1431 22.632 12.1471 22.632C11.1511 22.632 10.3711 22.836 9.80714 23.244C9.24314 23.64 8.96114 24.186 8.96114 24.882C8.96114 25.59 9.24314 26.154 9.80714 26.574C10.3711 26.982 11.1511 27.186 12.1471 27.186ZM32.0571 22.92H28.7811V26.142H27.2691V22.92H23.9931V21.498H27.2691V18.258H28.7811V21.498H32.0571V22.92ZM44.3977 20.85C45.2257 20.85 45.9637 21.006 46.6117 21.318C47.2717 21.63 47.7877 22.08 48.1597 22.668C48.5317 23.244 48.7177 23.91 48.7177 24.666C48.7177 25.458 48.5197 26.154 48.1237 26.754C47.7397 27.354 47.2057 27.822 46.5217 28.158C45.8497 28.482 45.0937 28.644 44.2537 28.644C42.5617 28.644 41.2537 28.098 40.3297 27.006C39.4177 25.914 38.9617 24.366 38.9617 22.362C38.9617 20.958 39.2077 19.764 39.6997 18.78C40.2037 17.784 40.8997 17.034 41.7877 16.53C42.6877 16.014 43.7317 15.756 44.9197 15.756C45.5317 15.756 46.1077 15.822 46.6477 15.954C47.1877 16.074 47.6557 16.254 48.0517 16.494L47.3677 17.898C46.7677 17.502 45.9637 17.304 44.9557 17.304C43.6477 17.304 42.6217 17.712 41.8777 18.528C41.1337 19.332 40.7617 20.508 40.7617 22.056C40.7617 22.248 40.7677 22.398 40.7797 22.506C41.1397 21.966 41.6317 21.558 42.2557 21.282C42.8917 20.994 43.6057 20.85 44.3977 20.85ZM44.1817 27.186C45.0097 27.186 45.6817 26.964 46.1977 26.52C46.7137 26.076 46.9717 25.482 46.9717 24.738C46.9717 23.994 46.7077 23.406 46.1797 22.974C45.6637 22.53 44.9677 22.308 44.0917 22.308C43.5277 22.308 43.0237 22.416 42.5797 22.632C42.1477 22.848 41.8057 23.142 41.5537 23.514C41.3137 23.886 41.1937 24.3 41.1937 24.756C41.1937 25.2 41.3077 25.608 41.5357 25.98C41.7757 26.34 42.1177 26.634 42.5617 26.862C43.0177 27.078 43.5577 27.186 44.1817 27.186ZM55.247 19.356H63.311V20.778H55.247V19.356ZM55.247 23.622H63.311V25.044H55.247V23.622ZM74.1216 15.9V28.5H72.3396V17.466H69.4956V15.9H74.1216ZM86.0577 15.9V17.124L80.9637 28.5H79.0557L84.0417 17.466H78.2817V19.716H76.5537V15.9H86.0577ZM92.6315 22.812H97.4735V24.306H92.6315V22.812ZM109.018 21.192C110.254 21.312 111.196 21.696 111.844 22.344C112.492 22.98 112.816 23.796 112.816 24.792C112.816 25.512 112.636 26.166 112.276 26.754C111.916 27.33 111.376 27.792 110.656 28.14C109.948 28.476 109.078 28.644 108.046 28.644C107.146 28.644 106.282 28.512 105.454 28.248C104.626 27.972 103.948 27.594 103.42 27.114L104.248 25.692C104.68 26.1 105.232 26.43 105.904 26.682C106.576 26.922 107.29 27.042 108.046 27.042C108.982 27.042 109.708 26.844 110.224 26.448C110.752 26.052 111.016 25.506 111.016 24.81C111.016 24.114 110.758 23.574 110.242 23.19C109.726 22.806 108.946 22.614 107.902 22.614H106.894V21.354L110.062 17.466H103.996V15.9H112.312V17.124L109.018 21.192Z" fill="white"/>
<path d="M5 1H115V-1H5V1ZM119 5V40H121V5H119ZM115 44H5V46H115V44ZM1 40V5H-1V40H1ZM5 44C2.79086 44 1 42.2091 1 40H-1C-1 43.3137 1.68629 46 5 46V44ZM119 40C119 42.2091 117.209 44 115 44V46C118.314 46 121 43.3137 121 40H119ZM115 1C117.209 1 119 2.79086 119 5H121C121 1.68629 118.314 -1 115 -1V1ZM5 -1C1.68629 -1 -1 1.68629 -1 5H1C1 2.79086 2.79086 1 5 1V-1Z" fill="#369CB7"/>
</svg>
