<svg width="120" height="45" viewBox="0 0 120 45" fill="none" xmlns="http://www.w3.org/2000/svg">
<path d="M0 5C0 2.23858 2.23858 0 5 0H115C117.761 0 120 2.23858 120 5V40C120 42.7614 117.761 45 115 45H5C2.23858 45 0 42.7614 0 40V5Z" fill="#369CB7"/>
<path d="M12.9145 15.9V28.5H11.1325V17.466H8.28853V15.9H12.9145ZM26.6326 25.404H24.2386V28.5H22.4926V25.404H15.4906V24.144L21.9346 15.9H23.8786L17.7046 23.856H22.5466V21.12H24.2386V23.856H26.6326V25.404ZM32.7076 22.812H37.5496V24.306H32.7076V22.812ZM53.1263 26.934V28.5H44.0723V27.276L49.2023 22.326C49.8263 21.726 50.2463 21.21 50.4623 20.778C50.6783 20.334 50.7863 19.89 50.7863 19.446C50.7863 18.786 50.5523 18.276 50.0843 17.916C49.6283 17.544 48.9683 17.358 48.1043 17.358C46.7123 17.358 45.6383 17.814 44.8823 18.726L43.6583 17.664C44.1503 17.064 44.7923 16.596 45.5843 16.26C46.3883 15.924 47.2823 15.756 48.2663 15.756C49.5863 15.756 50.6363 16.074 51.4163 16.71C52.1963 17.334 52.5863 18.186 52.5863 19.266C52.5863 19.938 52.4423 20.574 52.1543 21.174C51.8663 21.774 51.3203 22.458 50.5163 23.226L46.6643 26.934H53.1263ZM59.6022 22.812H64.4442V24.306H59.6022V22.812ZM75.9888 21.192C77.2248 21.312 78.1668 21.696 78.8148 22.344C79.4628 22.98 79.7868 23.796 79.7868 24.792C79.7868 25.512 79.6068 26.166 79.2468 26.754C78.8868 27.33 78.3468 27.792 77.6268 28.14C76.9188 28.476 76.0488 28.644 75.0168 28.644C74.1168 28.644 73.2528 28.512 72.4248 28.248C71.5968 27.972 70.9188 27.594 70.3908 27.114L71.2188 25.692C71.6508 26.1 72.2028 26.43 72.8748 26.682C73.5468 26.922 74.2608 27.042 75.0168 27.042C75.9528 27.042 76.6788 26.844 77.1948 26.448C77.7228 26.052 77.9868 25.506 77.9868 24.81C77.9868 24.114 77.7288 23.574 77.2128 23.19C76.6968 22.806 75.9168 22.614 74.8728 22.614H73.8648V21.354L77.0328 17.466H70.9668V15.9H79.2828V17.124L75.9888 21.192ZM86.6415 19.356H94.7055V20.778H86.6415V19.356ZM86.6415 23.622H94.7055V25.044H86.6415V23.622ZM105.696 15.756C107.388 15.756 108.69 16.302 109.602 17.394C110.526 18.486 110.988 20.034 110.988 22.038C110.988 23.442 110.736 24.642 110.232 25.638C109.74 26.622 109.044 27.372 108.144 27.888C107.256 28.392 106.218 28.644 105.03 28.644C104.418 28.644 103.842 28.584 103.302 28.464C102.762 28.332 102.294 28.146 101.898 27.906L102.582 26.502C103.194 26.898 104.004 27.096 105.012 27.096C106.32 27.096 107.34 26.694 108.072 25.89C108.816 25.074 109.188 23.892 109.188 22.344V21.894C108.828 22.434 108.33 22.848 107.694 23.136C107.058 23.412 106.344 23.55 105.552 23.55C104.724 23.55 103.98 23.394 103.32 23.082C102.672 22.77 102.162 22.326 101.79 21.75C101.43 21.162 101.25 20.49 101.25 19.734C101.25 18.942 101.442 18.246 101.826 17.646C102.222 17.046 102.756 16.584 103.428 16.26C104.1 15.924 104.856 15.756 105.696 15.756ZM105.858 22.092C106.422 22.092 106.926 21.984 107.37 21.768C107.814 21.552 108.156 21.258 108.396 20.886C108.648 20.514 108.774 20.1 108.774 19.644C108.774 19.2 108.654 18.798 108.414 18.438C108.186 18.066 107.844 17.772 107.388 17.556C106.944 17.328 106.404 17.214 105.768 17.214C104.94 17.214 104.268 17.436 103.752 17.88C103.248 18.324 102.996 18.918 102.996 19.662C102.996 20.406 103.254 21 103.77 21.444C104.286 21.876 104.982 22.092 105.858 22.092Z" fill="white"/>
<path d="M5 1H115V-1H5V1ZM119 5V40H121V5H119ZM115 44H5V46H115V44ZM1 40V5H-1V40H1ZM5 44C2.79086 44 1 42.2091 1 40H-1C-1 43.3137 1.68629 46 5 46V44ZM119 40C119 42.2091 117.209 44 115 44V46C118.314 46 121 43.3137 121 40H119ZM115 1C117.209 1 119 2.79086 119 5H121C121 1.68629 118.314 -1 115 -1V1ZM5 -1C1.68629 -1 -1 1.68629 -1 5H1C1 2.79086 2.79086 1 5 1V-1Z" fill="#369CB7"/>
</svg>
