<svg width="120" height="45" viewBox="0 0 120 45" fill="none" xmlns="http://www.w3.org/2000/svg">
<path d="M0 5C0 2.23858 2.23858 0 5 0H115C117.761 0 120 2.23858 120 5V40C120 42.7614 117.761 45 115 45H5C2.23858 45 0 42.7614 0 40V5Z" fill="#369CB7"/>
<path d="M15.0255 20.922C16.8255 20.922 18.1455 21.264 18.9855 21.948C19.8375 22.62 20.2635 23.544 20.2635 24.72C20.2635 25.464 20.0835 26.136 19.7235 26.736C19.3755 27.324 18.8415 27.792 18.1215 28.14C17.4135 28.476 16.5375 28.644 15.4935 28.644C14.6055 28.644 13.7475 28.512 12.9195 28.248C12.0915 27.972 11.4075 27.594 10.8675 27.114L11.6955 25.692C12.1275 26.1 12.6795 26.43 13.3515 26.682C14.0235 26.922 14.7315 27.042 15.4755 27.042C16.4235 27.042 17.1555 26.844 17.6715 26.448C18.1995 26.04 18.4635 25.488 18.4635 24.792C18.4635 24.036 18.1755 23.466 17.5995 23.082C17.0235 22.686 16.0395 22.488 14.6475 22.488H11.7855L12.4515 15.9H19.5615V17.466H13.9635L13.6215 20.922H15.0255ZM35.0014 22.92H31.7254V26.142H30.2134V22.92H26.9374V21.498H30.2134V18.258H31.7254V21.498H35.0014V22.92ZM50.762 26.934V28.5H41.708V27.276L46.838 22.326C47.462 21.726 47.882 21.21 48.098 20.778C48.314 20.334 48.422 19.89 48.422 19.446C48.422 18.786 48.188 18.276 47.72 17.916C47.264 17.544 46.604 17.358 45.74 17.358C44.348 17.358 43.274 17.814 42.518 18.726L41.294 17.664C41.786 17.064 42.428 16.596 43.22 16.26C44.024 15.924 44.918 15.756 45.902 15.756C47.222 15.756 48.272 16.074 49.052 16.71C49.832 17.334 50.222 18.186 50.222 19.266C50.222 19.938 50.078 20.574 49.79 21.174C49.502 21.774 48.956 22.458 48.152 23.226L44.3 26.934H50.762ZM57.4179 19.356H65.4819V20.778H57.4179V19.356ZM57.4179 23.622H65.4819V25.044H57.4179V23.622ZM76.2925 15.9V28.5H74.5105V17.466H71.6665V15.9H76.2925ZM92.2886 22.92H89.0126V26.142H87.5006V22.92H84.2246V21.498H87.5006V18.258H89.0126V21.498H92.2886V22.92ZM104.629 20.85C105.457 20.85 106.195 21.006 106.843 21.318C107.503 21.63 108.019 22.08 108.391 22.668C108.763 23.244 108.949 23.91 108.949 24.666C108.949 25.458 108.751 26.154 108.355 26.754C107.971 27.354 107.437 27.822 106.753 28.158C106.081 28.482 105.325 28.644 104.485 28.644C102.793 28.644 101.485 28.098 100.561 27.006C99.6491 25.914 99.1931 24.366 99.1931 22.362C99.1931 20.958 99.4391 19.764 99.9311 18.78C100.435 17.784 101.131 17.034 102.019 16.53C102.919 16.014 103.963 15.756 105.151 15.756C105.763 15.756 106.339 15.822 106.879 15.954C107.419 16.074 107.887 16.254 108.283 16.494L107.599 17.898C106.999 17.502 106.195 17.304 105.187 17.304C103.879 17.304 102.853 17.712 102.109 18.528C101.365 19.332 100.993 20.508 100.993 22.056C100.993 22.248 100.999 22.398 101.011 22.506C101.371 21.966 101.863 21.558 102.487 21.282C103.123 20.994 103.837 20.85 104.629 20.85ZM104.413 27.186C105.241 27.186 105.913 26.964 106.429 26.52C106.945 26.076 107.203 25.482 107.203 24.738C107.203 23.994 106.939 23.406 106.411 22.974C105.895 22.53 105.199 22.308 104.323 22.308C103.759 22.308 103.255 22.416 102.811 22.632C102.379 22.848 102.037 23.142 101.785 23.514C101.545 23.886 101.425 24.3 101.425 24.756C101.425 25.2 101.539 25.608 101.767 25.98C102.007 26.34 102.349 26.634 102.793 26.862C103.249 27.078 103.789 27.186 104.413 27.186Z" fill="white"/>
<path d="M5 1H115V-1H5V1ZM119 5V40H121V5H119ZM115 44H5V46H115V44ZM1 40V5H-1V40H1ZM5 44C2.79086 44 1 42.2091 1 40H-1C-1 43.3137 1.68629 46 5 46V44ZM119 40C119 42.2091 117.209 44 115 44V46C118.314 46 121 43.3137 121 40H119ZM115 1C117.209 1 119 2.79086 119 5H121C121 1.68629 118.314 -1 115 -1V1ZM5 -1C1.68629 -1 -1 1.68629 -1 5H1C1 2.79086 2.79086 1 5 1V-1Z" fill="#369CB7"/>
</svg>
