<svg width="315" height="167" viewBox="0 0 315 167" fill="none" xmlns="http://www.w3.org/2000/svg">
<path d="M3 138C3 135.239 5.23858 133 8 133H98C100.761 133 103 135.239 103 138V162C103 164.761 100.761 167 98 167H8C5.23858 167 3 164.761 3 162V138Z" fill="white"/>
<path d="M53.0129 148.836C52.6769 148.836 52.3889 148.722 52.1489 148.494C51.9089 148.254 51.7889 147.954 51.7889 147.594C51.7889 147.246 51.9089 146.958 52.1489 146.73C52.3889 146.49 52.6769 146.37 53.0129 146.37C53.3489 146.37 53.6309 146.484 53.8589 146.712C54.0869 146.94 54.2009 147.234 54.2009 147.594C54.2009 147.954 54.0809 148.254 53.8409 148.494C53.6129 148.722 53.3369 148.836 53.0129 148.836ZM53.0129 156.108C52.6769 156.108 52.3889 155.994 52.1489 155.766C51.9089 155.526 51.7889 155.226 51.7889 154.866C51.7889 154.518 51.9089 154.23 52.1489 154.002C52.3889 153.762 52.6769 153.642 53.0129 153.642C53.3489 153.642 53.6309 153.756 53.8589 153.984C54.0869 154.212 54.2009 154.506 54.2009 154.866C54.2009 155.226 54.0809 155.526 53.8409 155.766C53.6129 155.994 53.3369 156.108 53.0129 156.108Z" fill="#369CB7"/>
<path d="M8 134H98V132H8V134ZM102 138V162H104V138H102ZM98 166H8V168H98V166ZM4 162V138H2V162H4ZM8 166C5.79086 166 4 164.209 4 162H2C2 165.314 4.68629 168 8 168V166ZM102 162C102 164.209 100.209 166 98 166V168C101.314 168 104 165.314 104 162H102ZM98 134C100.209 134 102 135.791 102 138H104C104 134.686 101.314 132 98 132V134ZM8 132C4.68629 132 2 134.686 2 138H4C4 135.791 5.79086 134 8 134V132Z" fill="#369CB7"/>
<path d="M215 138C215 135.239 217.239 133 220 133H310C312.761 133 315 135.239 315 138V162C315 164.761 312.761 167 310 167H220C217.239 167 215 164.761 215 162V138Z" fill="white"/>
<path d="M265.013 148.836C264.677 148.836 264.389 148.722 264.149 148.494C263.909 148.254 263.789 147.954 263.789 147.594C263.789 147.246 263.909 146.958 264.149 146.73C264.389 146.49 264.677 146.37 265.013 146.37C265.349 146.37 265.631 146.484 265.859 146.712C266.087 146.94 266.201 147.234 266.201 147.594C266.201 147.954 266.081 148.254 265.841 148.494C265.613 148.722 265.337 148.836 265.013 148.836ZM265.013 156.108C264.677 156.108 264.389 155.994 264.149 155.766C263.909 155.526 263.789 155.226 263.789 154.866C263.789 154.518 263.909 154.23 264.149 154.002C264.389 153.762 264.677 153.642 265.013 153.642C265.349 153.642 265.631 153.756 265.859 153.984C266.087 154.212 266.201 154.506 266.201 154.866C266.201 155.226 266.081 155.526 265.841 155.766C265.613 155.994 265.337 156.108 265.013 156.108Z" fill="#369CB7"/>
<path d="M220 134H310V132H220V134ZM314 138V162H316V138H314ZM310 166H220V168H310V166ZM216 162V138H214V162H216ZM220 166C217.791 166 216 164.209 216 162H214C214 165.314 216.686 168 220 168V166ZM314 162C314 164.209 312.209 166 310 166V168C313.314 168 316 165.314 316 162H314ZM310 134C312.209 134 314 135.791 314 138H316C316 134.686 313.314 132 310 132V134ZM220 132C216.686 132 214 134.686 214 138H216C216 135.791 217.791 134 220 134V132Z" fill="#369CB7"/>
<path d="M53.0011 16.8086H52.666V20.7295H53.0011V16.8086Z" fill="black"/>
<path d="M53.0011 85.0059H52.666V88.9268H53.0011V85.0059Z" fill="black"/>
<path d="M36.6121 25.1226L36.9023 24.9551L34.9419 21.5596L34.6517 21.7271L36.6121 25.1226Z" fill="black"/>
<path d="M70.7078 84.1519L70.998 83.9844L69.0376 80.5889L68.7474 80.7564L70.7078 84.1519Z" fill="black"/>
<path d="M24.9047 36.9426L25.0723 36.6523L21.6768 34.6919L21.5092 34.9821L24.9047 36.9426Z" fill="black"/>
<path d="M83.9828 71.0383L84.1504 70.748L80.7549 68.7876L80.5873 69.0778L83.9828 71.0383Z" fill="black"/>
<path d="M20.6943 52.6992H16.7734V53.0343H20.6943V52.6992Z" fill="black"/>
<path d="M88.8916 52.6992H84.9707V53.0343H88.8916V52.6992Z" fill="black"/>
<path d="M25.0855 69.0715L24.918 68.7812L21.5225 70.7417L21.69 71.0319L25.0855 69.0715Z" fill="black"/>
<path d="M84.1344 34.9953L83.9668 34.7051L80.5713 36.6655L80.7388 36.9557L84.1344 34.9953Z" fill="black"/>
<path d="M36.9015 80.7828L36.6113 80.6152L34.6509 84.0107L34.9411 84.1783L36.9015 80.7828Z" fill="black"/>
<path d="M71.0129 21.7144L70.7227 21.5469L68.7622 24.9424L69.0524 25.1099L71.0129 21.7144Z" fill="black"/>
<path d="M49.1435 13.9602V13.2229H50.1154V9.53661C49.7467 9.70417 49.4116 9.83822 49.043 9.97227V9.06744C49.4116 8.96691 49.8137 8.76583 50.2159 8.53125H51.0537V13.2229H52.0255V13.9602H49.1435Z" fill="black"/>
<path d="M55.0073 8.4632C55.51 8.4632 55.9121 8.63076 56.2138 8.93237C56.5154 9.23398 56.6494 9.66963 56.6494 10.2393C56.6494 10.3734 56.6494 10.4739 56.6159 10.5745C56.5824 10.675 56.5824 10.7755 56.5489 10.8761C56.5154 10.9766 56.4818 11.0436 56.4148 11.1442C56.3478 11.2447 56.3143 11.3117 56.2808 11.3787C56.2473 11.4458 56.1802 11.5128 56.1132 11.6133C56.0462 11.7139 55.9792 11.7809 55.9457 11.8144C55.9121 11.8479 55.8451 11.9149 55.7446 12.0155L54.6722 13.1549H56.6494V13.9257H53.4993V13.2554L55.0743 11.5128C55.2084 11.3787 55.2754 11.2782 55.3424 11.2112C55.376 11.1442 55.443 11.0771 55.5435 10.9766C55.6105 10.8761 55.6776 10.7755 55.7111 10.742C55.7446 10.675 55.7781 10.608 55.7781 10.5074C55.8116 10.4069 55.8116 10.3399 55.8116 10.2393C55.8116 10.1723 55.8116 10.0718 55.7781 9.93773C55.7446 9.80368 55.7111 9.66963 55.6776 9.60261C55.6105 9.50207 55.577 9.43505 55.4765 9.36802C55.4095 9.301 55.3089 9.26749 55.2419 9.26749C55.1749 9.23398 55.0743 9.23398 54.9738 9.23398C54.9068 9.23398 54.8398 9.23398 54.7727 9.26749C54.7057 9.26749 54.6387 9.301 54.5717 9.301C54.5046 9.33451 54.4376 9.33451 54.3706 9.36802C54.3036 9.40154 54.2365 9.40154 54.1695 9.43505C54.1025 9.46856 54.069 9.50207 54.002 9.50207C53.9349 9.53559 53.9014 9.5691 53.8679 9.5691C53.8344 9.60261 53.8009 9.60261 53.7674 9.63612C53.7339 9.66963 53.7004 9.66963 53.7004 9.66963H53.6668L53.3652 8.93237C53.3987 8.93237 53.3987 8.89886 53.4323 8.86534C53.4658 8.83183 53.5328 8.79832 53.6668 8.7313C53.8009 8.66427 53.9014 8.63076 54.0355 8.56374C54.1695 8.53022 54.3371 8.4632 54.5046 8.42969C54.6387 8.4632 54.8062 8.4632 55.0073 8.4632Z" fill="black"/>
<path d="M52.6296 97.5382C52.1939 97.5382 51.8253 97.4377 51.5237 97.2031C51.2221 96.9685 50.9875 96.6669 50.8534 96.2648C50.7194 95.8626 50.6523 95.3935 50.6523 94.8573C50.6523 94.4551 50.6859 94.0865 50.7864 93.7179C50.8869 93.3827 51.021 93.0476 51.1885 92.7795C51.3561 92.5114 51.5907 92.3104 51.8923 92.1428C52.1604 91.9752 52.4955 91.9082 52.8306 91.9082C53.4003 91.9082 53.8695 92.0758 54.2046 92.3774L53.903 93.0811C53.5679 92.813 53.2328 92.7125 52.8306 92.7125C52.4955 92.7125 52.2274 92.8801 51.9928 93.1817C51.7582 93.5168 51.6577 93.9189 51.6242 94.3881C51.8923 94.0195 52.2609 93.8184 52.6966 93.8184C53.2328 93.8184 53.6684 93.986 53.9701 94.3211C54.2717 94.6562 54.4392 95.0919 54.4392 95.628C54.4392 96.1642 54.2717 96.5999 53.9365 96.9685C53.6014 97.3707 53.1658 97.5382 52.6296 97.5382ZM52.5961 96.7339C52.8641 96.7339 53.0652 96.6334 53.2328 96.4323C53.4003 96.2313 53.4674 95.9967 53.4674 95.6951C53.4674 95.3935 53.4003 95.1254 53.2328 94.9578C53.0987 94.7567 52.8641 94.6562 52.5961 94.6562C52.2944 94.6562 52.0599 94.7567 51.8923 94.9578C51.7247 95.1589 51.6242 95.3935 51.6242 95.7286C51.6242 95.8961 51.6577 96.0302 51.6912 96.1642C51.7582 96.2983 51.8253 96.3988 51.8923 96.4994C51.9928 96.5999 52.0934 96.6334 52.1939 96.7004C52.3615 96.7004 52.4955 96.7339 52.5961 96.7339Z" fill="black"/>
<path d="M11.7791 55.4793C11.377 55.4793 10.9078 55.3453 10.3716 55.1107L10.7067 54.3399C11.0419 54.541 11.3435 54.675 11.6786 54.675C11.8461 54.675 12.0137 54.6415 12.1477 54.5745C12.2818 54.5075 12.4158 54.4069 12.5499 54.3064C12.6504 54.1724 12.751 54.0048 12.818 53.8037C12.885 53.6027 12.9185 53.3346 12.9185 53.0665V52.9659C12.6839 53.301 12.3153 53.4686 11.8461 53.4686C11.3099 53.4686 10.9078 53.301 10.5727 52.9659C10.2711 52.6308 10.1035 52.2287 10.1035 51.6925C10.1035 51.1563 10.2711 50.7206 10.6062 50.3855C10.9413 50.0504 11.4105 49.8828 11.9467 49.8828C12.5499 49.8828 13.0191 50.1174 13.3542 50.5531C13.6893 50.9887 13.8569 51.659 13.8569 52.5303C13.8569 53.1 13.7898 53.6362 13.6223 54.0718C13.4547 54.5075 13.2201 54.8761 12.9185 55.1107C12.5834 55.3788 12.2148 55.4793 11.7791 55.4793ZM11.9132 52.6978C12.2148 52.6978 12.4494 52.5973 12.6169 52.4297C12.7845 52.2622 12.885 51.9941 12.885 51.6254C12.885 51.3573 12.818 51.1563 12.6504 50.9552C12.4829 50.7876 12.2818 50.6871 11.9802 50.6871C11.6786 50.6871 11.4775 50.7876 11.2764 50.9552C11.1089 51.1563 11.0083 51.3909 11.0083 51.6925C11.0083 51.9941 11.0754 52.2287 11.2429 52.3962C11.4105 52.5973 11.6451 52.6978 11.9132 52.6978Z" fill="black"/>
<path d="M94.1174 55.5142C93.9163 55.5142 93.7152 55.5142 93.5142 55.4807C93.3131 55.4472 93.179 55.4136 93.045 55.3801C92.911 55.3466 92.8104 55.2796 92.7099 55.2461C92.6093 55.2126 92.5423 55.1456 92.5088 55.1456L92.4418 55.112L92.7434 54.4083C92.7769 54.4418 92.8439 54.4753 92.9445 54.5088C93.045 54.5423 93.179 54.6094 93.4136 54.6764C93.6147 54.7434 93.8158 54.7769 94.0168 54.7769C94.352 54.7769 94.6201 54.7099 94.7876 54.5423C94.9552 54.3748 95.0557 54.1737 95.0557 53.9056C95.0557 53.6375 94.9217 53.4029 94.6871 53.2689C94.4525 53.1348 94.1174 53.0678 93.6817 53.0678H93.5477H93.3131V52.2635H93.5812C94.0503 52.2635 94.3855 52.1965 94.5865 52.0624C94.7876 51.9284 94.8882 51.7273 94.8882 51.3922C94.8882 51.1911 94.7876 51.0236 94.6201 50.923C94.419 50.8225 94.2179 50.7555 93.9833 50.7555C93.8828 50.7555 93.7487 50.7555 93.6482 50.789C93.5477 50.8225 93.4471 50.8225 93.3466 50.856C93.2461 50.8895 93.179 50.923 93.1455 50.9565C93.0785 50.99 93.045 51.0236 92.978 51.0571C92.9109 51.0906 92.8774 51.1241 92.8439 51.1241L92.4083 50.4539C92.7099 50.2528 92.9445 50.1187 93.179 50.0517C93.4136 49.9847 93.7152 49.9512 94.0839 49.9512C94.3184 49.9512 94.5195 49.9847 94.7206 50.0517C94.9217 50.1187 95.1227 50.1858 95.2903 50.3198C95.4579 50.4203 95.5919 50.5879 95.6924 50.7555C95.793 50.923 95.8265 51.1576 95.8265 51.3922C95.8265 51.5933 95.793 51.7608 95.726 51.9284C95.6589 52.0959 95.5584 52.2635 95.3908 52.3976C95.2233 52.5316 95.0557 52.6321 94.8211 52.6657C95.1898 52.7327 95.4579 52.8667 95.6589 53.1348C95.86 53.3694 95.9605 53.671 95.9605 53.9726C95.9605 54.2072 95.927 54.4418 95.8265 54.6429C95.7259 54.8439 95.5919 55.0115 95.4243 55.1456C95.2568 55.2796 95.0557 55.3801 94.8546 55.4472C94.5865 55.4807 94.352 55.5142 94.1174 55.5142Z" fill="black"/>
<path d="M72.8056 20.4267V19.6894H73.7775V16.0031C73.4088 16.1707 73.0737 16.3047 72.7051 16.4388V15.5674C73.0737 15.4669 73.4759 15.2658 73.878 15.0312H74.7158V19.7229H75.6876V20.4602H72.8056V20.4267V20.4267Z" fill="black"/>
<path d="M87.3823 27.8655C87.885 27.8655 88.2871 28.0331 88.5888 28.3347C88.8904 28.6363 89.0244 29.072 89.0244 29.6417C89.0244 29.7757 89.0244 29.8763 88.9909 29.9768C88.9574 30.0773 88.9574 30.1779 88.9239 30.2784C88.8904 30.3789 88.8569 30.446 88.7898 30.5465C88.7228 30.647 88.6893 30.7141 88.6558 30.7811C88.6223 30.8481 88.5552 30.9151 88.4882 31.0157C88.4212 31.1162 88.3542 31.1832 88.3207 31.2167C88.2871 31.2503 88.2201 31.3173 88.1196 31.4178L87.0472 32.5572H89.0244V33.328H85.8743V32.6578L87.4493 30.9151C87.5834 30.7811 87.6504 30.6806 87.7174 30.6135C87.751 30.5465 87.818 30.4795 87.9185 30.3789C87.9855 30.2784 88.0526 30.1779 88.0861 30.1444C88.1196 30.0773 88.1531 30.0103 88.1531 29.9098C88.1866 29.8092 88.1866 29.7422 88.1866 29.6417C88.1866 29.5747 88.1866 29.4741 88.1531 29.3401C88.1196 29.206 88.0861 29.072 88.0526 29.005C87.9855 28.9044 87.952 28.8374 87.8515 28.7704C87.7845 28.7033 87.6839 28.6698 87.6169 28.6698C87.5499 28.6363 87.4493 28.6363 87.3488 28.6363C87.2818 28.6363 87.2148 28.6363 87.1477 28.6698C87.0807 28.6698 87.0137 28.7033 86.9467 28.7033C86.8796 28.7369 86.8126 28.7369 86.7456 28.7704C86.6786 28.8039 86.6115 28.8039 86.5445 28.8374C86.4775 28.8709 86.444 28.9044 86.377 28.9044C86.3099 28.9379 86.2764 28.9714 86.2429 28.9714C86.2094 29.005 86.1759 29.005 86.1424 29.0385C86.1089 29.072 86.0754 29.072 86.0754 29.072H86.0418L85.7402 28.3347C85.7737 28.3347 85.7738 28.3012 85.8073 28.2677C85.8408 28.2342 85.9078 28.2007 86.0418 28.1336C86.1759 28.0666 86.2764 28.0331 86.4105 27.9661C86.5445 27.9326 86.7121 27.8655 86.8796 27.832C87.0137 27.8991 87.1813 27.8655 87.3823 27.8655Z" fill="black"/>
<path d="M88.1206 77.7314V76.3239H85.8418V75.6201L88.0201 72.3359H89.0925V75.5866H89.9303V76.3239H89.0925V77.7314H88.1206ZM86.8472 75.5531H88.1206V73.5089C88.0536 73.6094 87.6514 74.2796 86.8472 75.5531Z" fill="black"/>
<path d="M74.1798 90.9039C73.8782 90.9039 73.5766 90.8368 73.275 90.7028C72.9734 90.5688 72.7053 90.4012 72.4707 90.1666L72.9734 89.4629C73.1409 89.6639 73.342 89.8315 73.5431 89.932C73.7442 90.0326 73.9787 90.0996 74.1798 90.0996C74.4479 90.0996 74.6825 89.999 74.8836 89.8315C75.0846 89.6639 75.1852 89.3958 75.1852 89.0607C75.1852 88.7926 75.1182 88.558 74.9841 88.3905C74.8501 88.1894 74.6825 88.1224 74.4479 88.1224C74.1463 88.1224 73.9452 88.1894 73.8112 88.357L72.8728 88.2229V85.4414H75.8889V86.2457H73.7106L73.6771 87.6197C73.8447 87.3851 74.1798 87.2846 74.649 87.2846C75.0511 87.2846 75.4198 87.4521 75.7214 87.8208C76.023 88.1559 76.157 88.5915 76.157 89.1277C76.157 89.3623 76.1235 89.5969 76.0565 89.798C75.9895 89.999 75.8889 90.1666 75.7549 90.3007C75.6208 90.4347 75.4868 90.5687 75.3192 90.6693C75.1517 90.7698 74.9841 90.8368 74.783 90.9039C74.582 90.8704 74.3809 90.9039 74.1798 90.9039Z" fill="black"/>
<path d="M29.5742 90.8017L31.6185 86.177H28.9375V85.4062H32.6909V86.1435L30.5461 90.8352H29.5742V90.8017V90.8017Z" fill="black"/>
<path d="M18.1459 77.8989C17.7773 77.8989 17.4757 77.8319 17.2076 77.7314C16.9395 77.5973 16.7049 77.4298 16.5373 77.1952C16.3698 76.9606 16.3027 76.6925 16.3027 76.3574C16.3027 76.0558 16.3698 75.7877 16.5373 75.5531C16.7049 75.3185 16.9395 75.1174 17.2076 74.9834C16.6714 74.6818 16.4033 74.2461 16.4033 73.7434C16.4033 73.3078 16.5708 72.9392 16.8724 72.7046C17.2076 72.4365 17.6097 72.3359 18.1124 72.3359C18.6486 72.3359 19.0842 72.47 19.3858 72.7381C19.6875 73.0062 19.855 73.3748 19.855 73.8105C19.855 74.3467 19.5869 74.7823 19.0507 75.0169C19.3188 75.1509 19.5199 75.352 19.6875 75.5866C19.855 75.8547 19.9555 76.1228 19.9555 76.3909C19.9555 76.6925 19.855 76.9941 19.6875 77.2287C19.5199 77.4633 19.2853 77.6308 19.0172 77.7649C18.7826 77.8654 18.481 77.8989 18.1459 77.8989ZM18.1459 77.0947C18.414 77.0947 18.6486 77.0276 18.7826 76.8936C18.9502 76.7595 19.0172 76.5585 19.0172 76.2904C19.0172 76.0893 18.9502 75.8882 18.7826 75.6871C18.6151 75.4861 18.414 75.3855 18.1794 75.3185C17.9113 75.3855 17.7102 75.4861 17.5427 75.6871C17.3751 75.8547 17.2746 76.0893 17.2746 76.3239C17.2746 76.5585 17.3416 76.7595 17.5092 76.8936C17.6432 77.0276 17.8778 77.0947 18.1459 77.0947ZM18.1459 74.6483C18.3805 74.5812 18.5816 74.4807 18.7156 74.3132C18.8497 74.1791 18.9167 73.978 18.9167 73.777C18.9167 73.5759 18.8497 73.4418 18.6821 73.3413C18.548 73.2408 18.347 73.1737 18.1124 73.1737C17.8778 73.1737 17.6767 73.2408 17.5427 73.3413C17.4086 73.4418 17.3416 73.6094 17.3416 73.844C17.3416 74.0451 17.4086 74.2126 17.5427 74.3802C17.7102 74.4472 17.8778 74.5812 18.1459 74.6483Z" fill="black"/>
<path d="M13.0537 33.6298V32.8925H14.0255V29.2062C13.6569 29.3738 13.3218 29.5078 12.9531 29.6419V28.7706C13.3218 28.67 13.7239 28.469 14.126 28.2344H14.9638V32.9261H15.9357V33.6633H13.0537V33.6298V33.6298Z" fill="black"/>
<path d="M19.086 33.7316C18.4828 33.7316 18.0136 33.4635 17.6785 32.9608C17.3434 32.4581 17.1758 31.7544 17.1758 30.8831C17.1758 30.0117 17.3434 29.3415 17.6785 28.8388C18.0136 28.3697 18.4828 28.1016 19.086 28.1016C19.6892 28.1016 20.1584 28.3361 20.4935 28.8388C20.8287 29.3415 20.9962 30.0117 20.9962 30.8495C20.9962 31.4193 20.9292 31.9219 20.7951 32.3241C20.6611 32.7597 20.4265 33.0613 20.1584 33.3294C19.8233 33.5975 19.4882 33.7316 19.086 33.7316ZM19.086 32.8938C19.6892 32.8938 20.0244 32.2235 20.0244 30.8495C20.0244 30.5815 20.0244 30.3469 19.9909 30.1123C19.9573 29.8777 19.9238 29.6766 19.8568 29.5091C19.7898 29.308 19.6892 29.1739 19.5552 29.0734C19.4212 28.9729 19.2871 28.9059 19.1195 28.9059C18.952 28.9059 18.7844 28.9729 18.6504 29.0734C18.5163 29.1739 18.4158 29.3415 18.3488 29.5091C18.2817 29.7101 18.2147 29.9112 18.1812 30.1123C18.1477 30.3469 18.1477 30.5815 18.1477 30.8495C18.1477 31.1512 18.1477 31.4193 18.1812 31.6538C18.2147 31.8884 18.2482 32.0895 18.3488 32.2906C18.4158 32.4916 18.5163 32.6257 18.6504 32.7262C18.7509 32.8603 18.9185 32.8938 19.086 32.8938Z" fill="black"/>
<path d="M28.0341 19.9915V19.2542H29.006V15.5679C28.6373 15.7354 28.3022 15.8695 27.9336 16.0035V15.0987C28.3022 14.9982 28.7044 14.7971 29.1065 14.5625H29.9443V19.2542H30.9162V19.9915H28.0341V19.9915Z" fill="black"/>
<path d="M32.7939 19.9915V19.2542H33.7657V15.5679C33.3971 15.7354 33.062 15.8695 32.6934 16.0035V15.0987C33.062 14.9982 33.4641 14.7971 33.8663 14.5625H34.7041V19.2542H35.6759V19.9915H32.7939V19.9915Z" fill="black"/>
<path d="M52.8293 55.1117C54.0693 55.1117 55.0746 54.1065 55.0746 52.8664C55.0746 51.6264 54.0693 50.6211 52.8293 50.6211C51.5892 50.6211 50.584 51.6264 50.584 52.8664C50.584 54.1065 51.5892 55.1117 52.8293 55.1117Z" fill="url(#paint0_radial_80_5067)"/>
<path d="M58.6086 53.2615C58.5392 53.7932 58.0218 54.1311 57.4569 54.0573L33 50.8613L33.2432 49.0005L57.7001 52.1965C58.265 52.2703 58.6781 52.7298 58.6086 53.2615Z" fill="black"/>
<path d="M54.0278 79.7914L54.2737 79.7824L54.2687 79.5365L53.5409 43.6415C53.5378 43.1919 53.1334 42.9464 52.7728 42.9478C52.3812 42.9493 52.0169 43.2586 52.0185 43.6829L52.0185 43.6829L52.0186 43.687L52.7464 79.5838L52.7516 79.8377L53.0054 79.8285L54.0278 79.7914Z" fill="#0E80A4" stroke="#0E80A4" stroke-width="0.5"/>
<path d="M52.8309 54.4411C53.7008 54.4411 54.406 53.736 54.406 52.8661C54.406 51.9962 53.7008 51.291 52.8309 51.291C51.961 51.291 51.2559 51.9962 51.2559 52.8661C51.2559 53.736 51.961 54.4411 52.8309 54.4411Z" fill="#0E80A4"/>
<path d="M53 103C80.6142 103 103 80.6142 103 53C103 25.3858 80.6142 3 53 3C25.3858 3 3 25.3858 3 53C3 80.6142 25.3858 103 53 103Z" stroke="#0E80A4" stroke-width="5" stroke-miterlimit="10"/>
<path d="M238.782 82.2656H222.764V86.9864H238.782V82.2656Z" fill="#878787"/>
<path d="M299.981 82.2656H283.963V86.9864H299.981V82.2656Z" fill="#878787"/>
<path d="M298.848 84.2356H223.387C219.861 84.2356 217 81.2444 217 77.5444V43.6912C217 39.9912 219.861 37 223.387 37H298.862C302.374 37 305.235 39.9912 305.235 43.6912V77.5444C305.235 81.2444 302.374 84.2356 298.848 84.2356Z" fill="#00C9DC"/>
<path d="M298.974 45.4637V75.2482C298.974 76.8076 297.77 78.0693 296.283 78.0693H226.956C225.468 78.0693 224.265 76.8076 224.265 75.2482V45.4637C224.265 43.9043 225.468 42.6426 226.956 42.6426H296.298C297.771 42.6426 298.974 43.9043 298.974 45.4637Z" fill="#081D4F"/>
<path d="M296.284 78.1387H226.956C225.427 78.1387 224.194 76.8487 224.194 75.2469V45.4623C224.194 43.8745 225.441 42.5703 226.956 42.5703H296.298C297.828 42.5703 299.06 43.8604 299.06 45.4623V75.2469C299.046 76.8487 297.813 78.1387 296.284 78.1387ZM226.956 42.7121C225.511 42.7121 224.336 43.9454 224.336 45.4623V75.2469C224.336 76.7637 225.511 77.9971 226.956 77.9971H296.298C297.743 77.9971 298.918 76.7637 298.918 75.2469V45.4623C298.918 43.9454 297.743 42.7121 296.298 42.7121H226.956Z" fill="#021438"/>
<g opacity="0.13">
<path opacity="0.3" d="M276.286 42.6426L237.706 78.0693H227.424C225.866 78.0693 224.605 76.8076 224.605 75.2482V67.1818C231.772 60.0937 241.02 50.9074 249.334 42.6426H276.286Z" fill="white"/>
</g>
<g opacity="0.13">
<path opacity="0.3" d="M298.976 45.4637V61.5254C294.741 65.7075 287.461 72.2995 280.932 78.0693H256.274C264.191 70.0455 281.272 52.7645 291.469 42.6426H296.285C297.772 42.6426 298.976 43.9043 298.976 45.4637Z" fill="white"/>
</g>
<path d="M237.786 69.8474L235.816 67.9692V63.4833L237.786 61.6962V69.8474ZM237.731 52.9067V61.0579L235.762 59.2891V54.785L237.731 52.9067ZM243.636 70.6498L245.514 68.6803H250.018L251.787 70.6498H243.636ZM243.089 61.6962L245.058 63.5927V68.0603L243.089 69.8474V61.6962ZM245.204 62.3527C244.778 62.0123 244.347 61.6779 243.909 61.3497L245.204 60.3832H250.182L251.459 61.3497L250.182 62.3527H245.204ZM243.617 52.1226H251.769L249.963 54.092H245.496L243.617 52.1226ZM252.316 52.9067V61.0579L250.346 59.2891V54.785L252.316 52.9067ZM261.138 61.5138H263.436V63.7933H261.138V61.5138ZM261.138 56.0979H263.436V58.432H261.138V56.0979Z" fill="white"/>
<path d="M270.113 70.6498L271.955 68.6803H276.477L278.246 70.6498H270.113ZM278.811 69.8474L276.86 67.9692V63.4833L278.811 61.6962V69.8474ZM271.645 62.3527C271.231 62.0123 270.806 61.6779 270.368 61.3497L271.645 60.3832H276.623L277.899 61.3497L276.623 62.3527H271.645ZM270.058 52.1226H278.228L276.441 54.092H271.936L270.058 52.1226ZM278.756 52.9067V61.0579L276.805 59.2891V54.785L278.756 52.9067ZM284.643 70.6498L286.521 68.6803H291.025L292.794 70.6498H284.643ZM284.096 61.6962L286.065 63.5927V68.0603L284.096 69.8474V61.6962ZM293.378 69.8474L291.408 67.9692V63.4833L293.378 61.6962V69.8474ZM284.625 52.1226H292.776L290.971 54.092H286.503L284.625 52.1226ZM284.041 61.0579V52.9067L286.011 54.6755V59.1979L284.041 61.0579ZM293.323 52.9067V61.0579L291.354 59.2891V54.785L293.323 52.9067Z" fill="white"/>
<path d="M28.1134 156.152C27.2612 156.152 26.5002 155.939 25.8306 155.513C25.161 155.077 24.6334 154.448 24.2479 153.626C23.8624 152.794 23.6696 151.81 23.6696 150.674C23.6696 149.537 23.8624 148.558 24.2479 147.736C24.6334 146.904 25.161 146.275 25.8306 145.849C26.5002 145.413 27.2612 145.195 28.1134 145.195C28.9656 145.195 29.7265 145.413 30.3962 145.849C31.0759 146.275 31.6086 146.904 31.9941 147.736C32.3796 148.558 32.5724 149.537 32.5724 150.674C32.5724 151.81 32.3796 152.794 31.9941 153.626C31.6086 154.448 31.0759 155.077 30.3962 155.513C29.7265 155.939 28.9656 156.152 28.1134 156.152ZM28.1134 154.433C28.8743 154.433 29.4729 154.118 29.9092 153.489C30.3556 152.86 30.5788 151.921 30.5788 150.674C30.5788 149.426 30.3556 148.487 29.9092 147.858C29.4729 147.229 28.8743 146.915 28.1134 146.915C27.3626 146.915 26.764 147.229 26.3176 147.858C25.8814 148.487 25.6632 149.426 25.6632 150.674C25.6632 151.921 25.8814 152.86 26.3176 153.489C26.764 154.118 27.3626 154.433 28.1134 154.433ZM37.5009 145.195C38.9619 145.195 40.0931 145.651 40.8946 146.565C41.7063 147.478 42.1121 148.786 42.1121 150.491C42.1121 151.688 41.894 152.713 41.4577 153.565C41.0214 154.407 40.4076 155.051 39.6163 155.498C38.835 155.934 37.927 156.152 36.8922 156.152C36.3443 156.152 35.8269 156.096 35.3399 155.985C34.863 155.863 34.4471 155.691 34.092 155.467L34.8225 153.976C35.35 154.321 36.0247 154.493 36.8465 154.493C37.8712 154.493 38.6727 154.179 39.251 153.55C39.8293 152.921 40.1185 152.013 40.1185 150.826V150.811C39.804 151.176 39.4032 151.455 38.9162 151.648C38.4292 151.83 37.8814 151.921 37.2726 151.921C36.5726 151.921 35.9435 151.79 35.3855 151.526C34.8275 151.252 34.3913 150.866 34.0768 150.369C33.7622 149.872 33.605 149.299 33.605 148.65C33.605 147.96 33.7775 147.356 34.1224 146.839C34.4674 146.311 34.9341 145.905 35.5225 145.621C36.111 145.337 36.7704 145.195 37.5009 145.195ZM37.6531 150.369C38.2923 150.369 38.8097 150.197 39.2054 149.852C39.6112 149.507 39.8141 149.071 39.8141 148.543C39.8141 148.026 39.6163 147.599 39.2206 147.265C38.835 146.92 38.2973 146.747 37.6074 146.747C36.9885 146.747 36.4863 146.915 36.1008 147.249C35.7153 147.574 35.5225 148.01 35.5225 148.558C35.5225 149.116 35.7153 149.558 36.1008 149.882C36.4863 150.207 37.0038 150.369 37.6531 150.369Z" fill="#369CB7"/>
<path d="M244.352 145.347V156H242.374V147.006H240.122V145.347H244.352ZM254.181 154.326V156H246.329V154.676L250.559 150.658C251.036 150.202 251.356 149.806 251.518 149.471C251.691 149.126 251.777 148.786 251.777 148.452C251.777 147.955 251.61 147.574 251.275 147.31C250.94 147.046 250.448 146.915 249.799 146.915C248.713 146.915 247.881 147.285 247.303 148.026L245.918 146.96C246.334 146.402 246.892 145.971 247.592 145.667C248.302 145.352 249.093 145.195 249.966 145.195C251.123 145.195 252.046 145.469 252.736 146.017C253.426 146.565 253.771 147.31 253.771 148.254C253.771 148.832 253.649 149.375 253.405 149.882C253.162 150.389 252.695 150.968 252.005 151.617L249.159 154.326H254.181Z" fill="#369CB7"/>
<path d="M279.205 149.745C280.189 149.867 280.94 150.202 281.457 150.75C281.974 151.298 282.233 151.982 282.233 152.804C282.233 153.423 282.076 153.986 281.761 154.493C281.447 155.001 280.97 155.406 280.331 155.711C279.702 156.005 278.931 156.152 278.018 156.152C277.257 156.152 276.521 156.046 275.811 155.833C275.111 155.609 274.512 155.305 274.015 154.919L274.867 153.382C275.253 153.707 275.72 153.966 276.268 154.159C276.826 154.341 277.399 154.433 277.987 154.433C278.687 154.433 279.235 154.29 279.631 154.006C280.037 153.712 280.24 153.316 280.24 152.819C280.24 152.322 280.047 151.937 279.661 151.663C279.286 151.379 278.708 151.237 277.926 151.237H276.952V149.882L279.372 147.006H274.533V145.347H281.792V146.671L279.205 149.745ZM287.971 156.152C287.119 156.152 286.358 155.939 285.688 155.513C285.019 155.077 284.491 154.448 284.106 153.626C283.72 152.794 283.527 151.81 283.527 150.674C283.527 149.537 283.72 148.558 284.106 147.736C284.491 146.904 285.019 146.275 285.688 145.849C286.358 145.413 287.119 145.195 287.971 145.195C288.823 145.195 289.584 145.413 290.254 145.849C290.934 146.275 291.466 146.904 291.852 147.736C292.237 148.558 292.43 149.537 292.43 150.674C292.43 151.81 292.237 152.794 291.852 153.626C291.466 154.448 290.934 155.077 290.254 155.513C289.584 155.939 288.823 156.152 287.971 156.152ZM287.971 154.433C288.732 154.433 289.331 154.118 289.767 153.489C290.213 152.86 290.436 151.921 290.436 150.674C290.436 149.426 290.213 148.487 289.767 147.858C289.331 147.229 288.732 146.915 287.971 146.915C287.22 146.915 286.622 147.229 286.175 147.858C285.739 148.487 285.521 149.426 285.521 150.674C285.521 151.921 285.739 152.86 286.175 153.489C286.622 154.118 287.22 154.433 287.971 154.433Z" fill="#369CB7"/>
<path d="M69.2047 149.745C70.1888 149.867 70.9396 150.202 71.457 150.75C71.9745 151.298 72.2332 151.982 72.2332 152.804C72.2332 153.423 72.0759 153.986 71.7614 154.493C71.4469 155.001 70.97 155.406 70.3309 155.711C69.7018 156.005 68.9308 156.152 68.0177 156.152C67.2567 156.152 66.5212 156.046 65.811 155.833C65.1109 155.609 64.5124 155.305 64.0152 154.919L64.8675 153.382C65.253 153.707 65.7197 153.966 66.2675 154.159C66.8256 154.341 67.3988 154.433 67.9872 154.433C68.6873 154.433 69.2351 154.29 69.6308 154.006C70.0366 153.712 70.2396 153.316 70.2396 152.819C70.2396 152.322 70.0468 151.937 69.6613 151.663C69.2859 151.379 68.7076 151.237 67.9264 151.237H66.9524V149.882L69.3721 147.006H64.5326V145.347H71.7918V146.671L69.2047 149.745ZM77.971 156.152C77.1188 156.152 76.3578 155.939 75.6882 155.513C75.0186 155.077 74.491 154.448 74.1055 153.626C73.72 152.794 73.5272 151.81 73.5272 150.674C73.5272 149.537 73.72 148.558 74.1055 147.736C74.491 146.904 75.0186 146.275 75.6882 145.849C76.3578 145.413 77.1188 145.195 77.971 145.195C78.8232 145.195 79.5841 145.413 80.2538 145.849C80.9335 146.275 81.4662 146.904 81.8517 147.736C82.2372 148.558 82.43 149.537 82.43 150.674C82.43 151.81 82.2372 152.794 81.8517 153.626C81.4662 154.448 80.9335 155.077 80.2538 155.513C79.5841 155.939 78.8232 156.152 77.971 156.152ZM77.971 154.433C78.7319 154.433 79.3305 154.118 79.7668 153.489C80.2132 152.86 80.4364 151.921 80.4364 150.674C80.4364 149.426 80.2132 148.487 79.7668 147.858C79.3305 147.229 78.7319 146.915 77.971 146.915C77.2202 146.915 76.6216 147.229 76.1752 147.858C75.739 148.487 75.5208 149.426 75.5208 150.674C75.5208 151.921 75.739 152.86 76.1752 153.489C76.6216 154.118 77.2202 154.433 77.971 154.433Z" fill="#369CB7"/>
<defs>
<radialGradient id="paint0_radial_80_5067" cx="0" cy="0" r="1" gradientUnits="userSpaceOnUse" gradientTransform="translate(52.8293 52.8559) scale(2.23489)">
<stop/>
<stop offset="0.3022" stop-color="#050505"/>
<stop offset="0.6568" stop-color="#131312"/>
<stop offset="1" stop-color="#282826"/>
</radialGradient>
</defs>
</svg>
