<svg width="370" height="57" viewBox="0 0 370 57" fill="none" xmlns="http://www.w3.org/2000/svg">
<g clip-path="url(#clip0_5611_99196)">
<path d="M420 57V0L-50 0V57L420 57Z" fill="#FECC7B"/>
<g clip-path="url(#clip1_5611_99196)">
<path d="M5.67228 1.7959H4.83691V17.5027H5.67228V1.7959Z" fill="black"/>
<path d="M29.3969 1.7959H28.5615V17.5027H29.3969V1.7959Z" fill="black"/>
<path d="M53.0375 1.7959H52.2021V17.5027H53.0375V1.7959Z" fill="black"/>
<path d="M76.7631 1.7959H75.9277V17.5027H76.7631V1.7959Z" fill="black"/>
<path d="M100.403 1.7959H99.5674V17.5027H100.403V1.7959Z" fill="black"/>
<path d="M124.128 1.7959H123.293V17.5027H124.128V1.7959Z" fill="black"/>
<path d="M147.769 1.7959H146.934V17.5027H147.769V1.7959Z" fill="black"/>
<path d="M171.493 1.7959H170.657V17.5027H171.493V1.7959Z" fill="black"/>
<path d="M195.134 1.7959H194.299V17.5027H195.134V1.7959Z" fill="black"/>
<path d="M218.774 1.7959H217.938V17.5027H218.774V1.7959Z" fill="black"/>
<path d="M242.499 1.7959H241.664V17.5027H242.499V1.7959Z" fill="black"/>
<path d="M266.138 1.7959H265.303V17.5027H266.138V1.7959Z" fill="black"/>
<path d="M289.865 1.7959H289.029V17.5027H289.865V1.7959Z" fill="black"/>
<path d="M313.504 1.7959H312.669V17.5027H313.504V1.7959Z" fill="black"/>
<path d="M337.229 1.7959H336.394V17.5027H337.229V1.7959Z" fill="black"/>
<path d="M8.09513 1.7959H7.25977V9.81122H8.09513V1.7959Z" fill="black"/>
<path d="M10.435 1.7959H9.59961V9.81122H10.435V1.7959Z" fill="black"/>
<path d="M12.7738 1.7959H11.9385V9.81122H12.7738V1.7959Z" fill="black"/>
<path d="M15.1957 1.7959H14.3604V9.81122H15.1957V1.7959Z" fill="black"/>
<path d="M17.5356 1.7959H16.7002V13.8594H17.5356V1.7959Z" fill="black"/>
<path d="M41.1762 1.7959H40.3408V13.8594H41.1762V1.7959Z" fill="black"/>
<path d="M64.8998 1.7959H64.0645V13.8594H64.8998V1.7959Z" fill="black"/>
<path d="M88.5414 1.7959H87.7061V13.8594H88.5414V1.7959Z" fill="black"/>
<path d="M112.265 1.7959H111.43V13.8594H112.265V1.7959Z" fill="black"/>
<path d="M135.906 1.7959H135.07V13.8594H135.906V1.7959Z" fill="black"/>
<path d="M159.63 1.7959H158.795V13.8594H159.63V1.7959Z" fill="black"/>
<path d="M183.272 1.7959H182.437V13.8594H183.272V1.7959Z" fill="black"/>
<path d="M206.995 1.7959H206.159V13.8594H206.995V1.7959Z" fill="black"/>
<path d="M230.635 1.7959H229.8V13.8594H230.635V1.7959Z" fill="black"/>
<path d="M254.361 1.7959H253.525V13.8594H254.361V1.7959Z" fill="black"/>
<path d="M278.001 1.7959H277.166V13.8594H278.001V1.7959Z" fill="black"/>
<path d="M301.725 1.7959H300.89V13.8594H301.725V1.7959Z" fill="black"/>
<path d="M325.367 1.7959H324.531V13.8594H325.367V1.7959Z" fill="black"/>
<path d="M19.8744 1.7959H19.0391V9.81122H19.8744V1.7959Z" fill="black"/>
<path d="M22.2963 1.7959H21.4609V9.81122H22.2963V1.7959Z" fill="black"/>
<path d="M24.6361 1.7959H23.8008V9.81122H24.6361V1.7959Z" fill="black"/>
<path d="M26.975 1.7959H26.1396V9.81122H26.975V1.7959Z" fill="black"/>
<path d="M31.7367 1.7959H30.9014V9.81122H31.7367V1.7959Z" fill="black"/>
<path d="M34.0756 1.7959H33.2402V9.81122H34.0756V1.7959Z" fill="black"/>
<path d="M36.4975 1.7959H35.6621V9.81122H36.4975V1.7959Z" fill="black"/>
<path d="M38.8373 1.7959H38.002V9.81122H38.8373V1.7959Z" fill="black"/>
<path d="M43.599 1.7959H42.7637V9.81122H43.599V1.7959Z" fill="black"/>
<path d="M45.9369 1.7959H45.1016V9.81122H45.9369V1.7959Z" fill="black"/>
<path d="M48.3598 1.7959H47.5244V9.81122H48.3598V1.7959Z" fill="black"/>
<path d="M50.6996 1.7959H49.8643V9.81122H50.6996V1.7959Z" fill="black"/>
<path d="M55.4604 1.7959H54.625V9.81122H55.4604V1.7959Z" fill="black"/>
<path d="M57.7992 1.7959H56.9639V9.81122H57.7992V1.7959Z" fill="black"/>
<path d="M60.1391 1.7959H59.3037V9.81122H60.1391V1.7959Z" fill="black"/>
<path d="M62.561 1.7959H61.7256V9.81122H62.561V1.7959Z" fill="black"/>
<path d="M67.2397 1.7959H66.4043V9.81122H67.2397V1.7959Z" fill="black"/>
<path d="M69.6625 1.7959H68.8271V9.81122H69.6625V1.7959Z" fill="black"/>
<path d="M72.0004 1.7959H71.165V9.81122H72.0004V1.7959Z" fill="black"/>
<path d="M74.3403 1.7959H73.5049V9.81122H74.3403V1.7959Z" fill="black"/>
<path d="M79.101 1.7959H78.2656V9.81122H79.101V1.7959Z" fill="black"/>
<path d="M81.4418 1.7959H80.6064V9.81122H81.4418V1.7959Z" fill="black"/>
<path d="M83.8637 1.7959H83.0283V9.81122H83.8637V1.7959Z" fill="black"/>
<path d="M86.2016 1.7959H85.3662V9.81122H86.2016V1.7959Z" fill="black"/>
<path d="M90.9643 1.7959H90.1289V9.81122H90.9643V1.7959Z" fill="black"/>
<path d="M93.3022 1.7959H92.4668V9.81122H93.3022V1.7959Z" fill="black"/>
<path d="M95.642 1.7959H94.8066V9.81122H95.642V1.7959Z" fill="black"/>
<path d="M98.0649 1.7959H97.2295V9.81122H98.0649V1.7959Z" fill="black"/>
<path d="M102.827 1.7959H101.991V9.81122H102.827V1.7959Z" fill="black"/>
<path d="M105.165 1.7959H104.33V9.81122H105.165V1.7959Z" fill="black"/>
<path d="M107.503 1.7959H106.668V9.81122H107.503V1.7959Z" fill="black"/>
<path d="M109.927 1.7959H109.092V9.81122H109.927V1.7959Z" fill="black"/>
<path d="M114.605 1.7959H113.77V9.81122H114.605V1.7959Z" fill="black"/>
<path d="M117.028 1.7959H116.192V9.81122H117.028V1.7959Z" fill="black"/>
<path d="M119.366 1.7959H118.53V9.81122H119.366V1.7959Z" fill="black"/>
<path d="M121.705 1.7959H120.87V9.81122H121.705V1.7959Z" fill="black"/>
<path d="M126.466 1.7959H125.631V9.81122H126.466V1.7959Z" fill="black"/>
<path d="M128.806 1.7959H127.971V9.81122H128.806V1.7959Z" fill="black"/>
<path d="M131.229 1.7959H130.394V9.81122H131.229V1.7959Z" fill="black"/>
<path d="M133.567 1.7959H132.731V9.81122H133.567V1.7959Z" fill="black"/>
<path d="M138.33 1.7959H137.494V9.81122H138.33V1.7959Z" fill="black"/>
<path d="M140.667 1.7959H139.832V9.81122H140.667V1.7959Z" fill="black"/>
<path d="M143.006 1.7959H142.171V9.81122H143.006V1.7959Z" fill="black"/>
<path d="M145.43 1.7959H144.595V9.81122H145.43V1.7959Z" fill="black"/>
<path d="M150.107 1.7959H149.271V9.81122H150.107V1.7959Z" fill="black"/>
<path d="M152.531 1.7959H151.695V9.81122H152.531V1.7959Z" fill="black"/>
<path d="M154.87 1.7959H154.034V9.81122H154.87V1.7959Z" fill="black"/>
<path d="M157.207 1.7959H156.372V9.81122H157.207V1.7959Z" fill="black"/>
<path d="M161.97 1.7959H161.135V9.81122H161.97V1.7959Z" fill="black"/>
<path d="M164.393 1.7959H163.558V9.81122H164.393V1.7959Z" fill="black"/>
<path d="M166.731 1.7959H165.896V9.81122H166.731V1.7959Z" fill="black"/>
<path d="M169.071 1.7959H168.235V9.81122H169.071V1.7959Z" fill="black"/>
<path d="M173.832 1.7959H172.997V9.81122H173.832V1.7959Z" fill="black"/>
<path d="M176.171 1.7959H175.336V9.81122H176.171V1.7959Z" fill="black"/>
<path d="M178.593 1.7959H177.758V9.81122H178.593V1.7959Z" fill="black"/>
<path d="M180.933 1.7959H180.098V9.81122H180.933V1.7959Z" fill="black"/>
<path d="M185.694 1.7959H184.858V9.81122H185.694V1.7959Z" fill="black"/>
<path d="M188.034 1.7959H187.198V9.81122H188.034V1.7959Z" fill="black"/>
<path d="M190.372 1.7959H189.536V9.81122H190.372V1.7959Z" fill="black"/>
<path d="M192.794 1.7959H191.959V9.81122H192.794V1.7959Z" fill="black"/>
<path d="M197.472 1.7959H196.637V9.81122H197.472V1.7959Z" fill="black"/>
<path d="M199.895 1.7959H199.06V9.81122H199.895V1.7959Z" fill="black"/>
<path d="M202.235 1.7959H201.399V9.81122H202.235V1.7959Z" fill="black"/>
<path d="M204.573 1.7959H203.737V9.81122H204.573V1.7959Z" fill="black"/>
<path d="M209.335 1.7959H208.5V9.81122H209.335V1.7959Z" fill="black"/>
<path d="M211.673 1.7959H210.838V9.81122H211.673V1.7959Z" fill="black"/>
<path d="M214.095 1.7959H213.26V9.81122H214.095V1.7959Z" fill="black"/>
<path d="M216.435 1.7959H215.6V9.81122H216.435V1.7959Z" fill="black"/>
<path d="M221.197 1.7959H220.361V9.81122H221.197V1.7959Z" fill="black"/>
<path d="M223.536 1.7959H222.7V9.81122H223.536V1.7959Z" fill="black"/>
<path d="M225.958 1.7959H225.123V9.81122H225.958V1.7959Z" fill="black"/>
<path d="M228.297 1.7959H227.462V9.81122H228.297V1.7959Z" fill="black"/>
<path d="M233.059 1.7959H232.224V9.81122H233.059V1.7959Z" fill="black"/>
<path d="M235.398 1.7959H234.562V9.81122H235.398V1.7959Z" fill="black"/>
<path d="M237.736 1.7959H236.9V9.81122H237.736V1.7959Z" fill="black"/>
<path d="M240.16 1.7959H239.324V9.81122H240.16V1.7959Z" fill="black"/>
<path d="M244.836 1.7959H244.001V9.81122H244.836V1.7959Z" fill="black"/>
<path d="M247.26 1.7959H246.425V9.81122H247.26V1.7959Z" fill="black"/>
<path d="M249.599 1.7959H248.764V9.81122H249.599V1.7959Z" fill="black"/>
<path d="M251.938 1.7959H251.103V9.81122H251.938V1.7959Z" fill="black"/>
<path d="M256.7 1.7959H255.864V9.81122H256.7V1.7959Z" fill="black"/>
<path d="M259.038 1.7959H258.203V9.81122H259.038V1.7959Z" fill="black"/>
<path d="M261.462 1.7959H260.627V9.81122H261.462V1.7959Z" fill="black"/>
<path d="M263.8 1.7959H262.965V9.81122H263.8V1.7959Z" fill="black"/>
<path d="M268.562 1.7959H267.727V9.81122H268.562V1.7959Z" fill="black"/>
<path d="M270.901 1.7959H270.065V9.81122H270.901V1.7959Z" fill="black"/>
<path d="M273.239 1.7959H272.403V9.81122H273.239V1.7959Z" fill="black"/>
<path d="M275.663 1.7959H274.827V9.81122H275.663V1.7959Z" fill="black"/>
<path d="M280.34 1.7959H279.505V9.81122H280.34V1.7959Z" fill="black"/>
<path d="M282.763 1.7959H281.928V9.81122H282.763V1.7959Z" fill="black"/>
<path d="M285.101 1.7959H284.266V9.81122H285.101V1.7959Z" fill="black"/>
<path d="M287.524 1.7959H286.688V9.81122H287.524V1.7959Z" fill="black"/>
<path d="M292.202 1.7959H291.366V9.81122H292.202V1.7959Z" fill="black"/>
<path d="M294.624 1.7959H293.789V9.81122H294.624V1.7959Z" fill="black"/>
<path d="M296.965 1.7959H296.13V9.81122H296.965V1.7959Z" fill="black"/>
<path d="M299.302 1.7959H298.467V9.81122H299.302V1.7959Z" fill="black"/>
<path d="M304.065 1.7959H303.229V9.81122H304.065V1.7959Z" fill="black"/>
<path d="M306.404 1.7959H305.568V9.81122H306.404V1.7959Z" fill="black"/>
<path d="M308.826 1.7959H307.99V9.81122H308.826V1.7959Z" fill="black"/>
<path d="M311.165 1.7959H310.33V9.81122H311.165V1.7959Z" fill="black"/>
<path d="M315.926 1.7959H315.091V9.81122H315.926V1.7959Z" fill="black"/>
<path d="M318.266 1.7959H317.431V9.81122H318.266V1.7959Z" fill="black"/>
<path d="M320.605 1.7959H319.77V9.81122H320.605V1.7959Z" fill="black"/>
<path d="M323.028 1.7959H322.192V9.81122H323.028V1.7959Z" fill="black"/>
<path d="M327.705 1.7959H326.87V9.81122H327.705V1.7959Z" fill="black"/>
<path d="M330.128 1.7959H329.293V9.81122H330.128V1.7959Z" fill="black"/>
<path d="M332.467 1.7959H331.632V9.81122H332.467V1.7959Z" fill="black"/>
<path d="M334.806 1.7959H333.971V9.81122H334.806V1.7959Z" fill="black"/>
<path d="M7.76157 25.4383C7.76157 26.6528 7.59449 27.5434 7.17681 28.1101C6.75913 28.6768 6.17438 29.0007 5.42255 29.0007C4.67073 29.0007 4.08597 28.6768 3.66829 28.1101C3.16707 27.5434 3 26.6528 3 25.4383C3 24.2239 3.16707 23.3333 3.58475 22.7666C4.00244 22.1998 4.58719 21.876 5.33902 21.876C6.09084 21.876 6.6756 22.1998 7.09328 22.7666C7.51096 23.3333 7.76157 24.3049 7.76157 25.4383ZM3.83536 25.4383C3.83536 26.4099 3.9189 27.2195 4.16951 27.6243C4.42012 28.1101 4.8378 28.353 5.33902 28.353C5.84023 28.353 6.25791 28.1101 6.50852 27.6243C6.75913 27.1386 6.84267 26.4099 6.84267 25.4383C6.84267 24.4668 6.75913 23.7381 6.50852 23.2523C6.25791 22.7666 5.84023 22.5237 5.33902 22.5237C4.8378 22.5237 4.42012 22.7666 4.16951 23.1714C3.9189 23.7381 3.83536 24.4668 3.83536 25.4383Z" fill="black"/>
<path d="M29.4812 28.9198H28.7294V23.9811C28.7294 23.5763 28.7294 23.1715 28.7294 22.8476C28.6459 22.9286 28.5623 23.0095 28.4788 23.0905C28.3953 23.1715 27.9776 23.4953 27.3093 23.9811L26.8916 23.4144L28.8129 21.957H29.4812V28.9198Z" fill="black"/>
<path d="M54.7923 28.9187H50.1143V28.271L52.0356 26.4088C52.6203 25.8421 52.9545 25.4373 53.2051 25.1944C53.3722 24.9515 53.5392 24.7086 53.6228 24.4657C53.7063 24.2228 53.7899 23.9799 53.7899 23.7371C53.7899 23.3322 53.7063 23.0893 53.4557 22.8465C53.2051 22.6036 52.871 22.5226 52.4533 22.5226C52.1191 22.5226 51.8685 22.6036 51.6179 22.6845C51.3673 22.7655 51.0332 22.9274 50.699 23.1703L50.2813 22.6036C50.9496 22.0368 51.6179 21.7939 52.4533 21.7939C53.1216 21.7939 53.6228 21.9559 54.0405 22.2797C54.4581 22.6036 54.6252 23.0893 54.6252 23.6561C54.6252 24.0609 54.4581 24.5467 54.2075 24.9515C53.9569 25.3563 53.4557 25.923 52.7874 26.5707L51.2002 28.0281H54.7923V28.9187Z" fill="black"/>
<path d="M78.6842 23.6572C78.6842 24.0621 78.5172 24.4669 78.2666 24.7098C78.0159 24.9527 77.6818 25.1955 77.1806 25.2765C77.7653 25.3575 78.183 25.5194 78.4336 25.8432C78.6842 26.1671 78.8513 26.4909 78.8513 26.9767C78.8513 27.6244 78.6007 28.1102 78.183 28.515C77.6818 28.8389 77.0135 29.0818 76.1782 29.0818C75.7605 29.0818 75.4263 29.0818 75.1757 29.0008C74.8416 28.9198 74.591 28.8389 74.2568 28.6769V27.9483C74.591 28.1102 74.9251 28.1912 75.2593 28.2721C75.5934 28.3531 75.9275 28.3531 76.2617 28.3531C77.5147 28.3531 78.0995 27.8673 78.0995 26.9767C78.0995 26.1671 77.4312 25.6813 76.0946 25.6813H75.4263V25.0336H76.1782C76.7629 25.0336 77.1806 24.9527 77.5147 24.7098C77.8489 24.4669 78.016 24.143 78.016 23.7382C78.016 23.4144 77.9324 23.1715 77.6818 22.9286C77.4312 22.6857 77.0971 22.6047 76.6794 22.6047C76.3452 22.6047 76.0946 22.6857 75.7605 22.7667C75.5099 22.8476 75.1757 23.0095 74.8416 23.2524L74.4239 22.6857C74.758 22.4428 75.0922 22.2809 75.4263 22.119C75.844 21.957 76.1782 21.957 76.6794 21.957C77.3477 21.957 77.9324 22.119 78.2666 22.4428C78.4336 22.6857 78.6842 23.0905 78.6842 23.6572Z" fill="black"/>
<path d="M102.325 27.3797H101.239V28.9989H100.487V27.3797H96.9785V26.732L100.404 22.0361H101.239V26.732H102.325V27.3797ZM100.487 26.651V24.3841C100.487 23.8983 100.487 23.4125 100.571 22.8458C100.404 23.1696 100.236 23.4125 100.153 23.5744L97.8974 26.651H100.487Z" fill="black"/>
<path d="M123.794 24.7079C124.546 24.7079 125.131 24.8698 125.548 25.2746C125.966 25.5985 126.216 26.1652 126.216 26.732C126.216 27.4606 125.966 28.0274 125.548 28.4322C125.047 28.837 124.462 29.0799 123.627 29.0799C122.791 29.0799 122.207 28.918 121.789 28.6751V27.9464C122.04 28.1084 122.29 28.1893 122.624 28.2703C122.959 28.3512 123.293 28.3512 123.627 28.3512C124.212 28.3512 124.629 28.1893 124.963 27.9464C125.298 27.7035 125.465 27.2987 125.465 26.8129C125.465 25.8414 124.88 25.3556 123.627 25.3556C123.293 25.3556 122.875 25.4366 122.374 25.5175L121.956 25.2746L122.207 22.0361H125.799V22.7648H122.959L122.791 24.8698C123.042 24.7079 123.46 24.7079 123.794 24.7079Z" fill="black"/>
<path d="M145.346 26.0051C145.346 24.6287 145.596 23.6572 146.181 22.9285C146.766 22.2808 147.518 21.876 148.604 21.876C148.938 21.876 149.272 21.876 149.439 21.9569V22.6046C149.188 22.5237 148.938 22.5237 148.604 22.5237C147.852 22.5237 147.267 22.7666 146.849 23.2523C146.432 23.7381 146.181 24.4668 146.181 25.4383H146.265C146.599 24.8716 147.184 24.6287 147.935 24.6287C148.604 24.6287 149.105 24.7906 149.439 25.1954C149.773 25.6003 150.024 26.086 150.024 26.7337C150.024 27.4624 149.857 28.0291 149.439 28.434C149.021 28.8388 148.52 29.0817 147.768 29.0817C147.016 29.0817 146.432 28.8388 146.014 28.272C145.513 27.7053 145.346 26.8957 145.346 26.0051ZM147.768 28.353C148.269 28.353 148.604 28.1911 148.854 27.9482C149.105 27.7053 149.272 27.2195 149.272 26.7337C149.272 26.248 149.188 25.9241 148.938 25.6812C148.687 25.4383 148.353 25.2764 147.852 25.2764C147.518 25.2764 147.267 25.3574 147.016 25.4383C146.766 25.5193 146.599 25.6812 146.432 25.9241C146.265 26.167 146.181 26.3289 146.181 26.5718C146.181 26.8957 146.265 27.2195 146.348 27.4624C146.515 27.7053 146.682 27.9482 146.933 28.1101C147.184 28.272 147.434 28.353 147.768 28.353Z" fill="black"/>
<path d="M170.24 28.918L173.164 22.7648H169.321V22.0361H174.083V22.6029L171.159 28.918H170.24Z" fill="black"/>
<path d="M195.383 21.876C196.052 21.876 196.553 22.0379 196.971 22.2808C197.388 22.5237 197.555 23.0095 197.555 23.4952C197.555 23.8191 197.472 24.1429 197.221 24.4668C196.971 24.7097 196.636 25.0335 196.135 25.1954C196.72 25.4383 197.138 25.7622 197.388 26.0051C197.639 26.3289 197.722 26.6528 197.722 27.0576C197.722 27.6243 197.555 28.1101 197.138 28.434C196.72 28.7578 196.135 28.9197 195.467 28.9197C194.715 28.9197 194.13 28.7578 193.713 28.434C193.295 28.1101 193.128 27.6243 193.128 27.0576C193.128 26.248 193.629 25.6812 194.632 25.1954C194.214 24.9526 193.88 24.7097 193.629 24.3858C193.462 24.062 193.295 23.8191 193.295 23.4143C193.295 22.9285 193.462 22.5237 193.88 22.1998C194.214 22.0379 194.715 21.876 195.383 21.876ZM193.796 27.2195C193.796 27.6243 193.963 27.8672 194.214 28.1101C194.464 28.353 194.882 28.434 195.383 28.434C195.885 28.434 196.219 28.353 196.553 28.1101C196.804 27.8672 196.971 27.6243 196.971 27.2195C196.971 26.8957 196.804 26.6528 196.553 26.4099C196.302 26.167 195.885 25.9241 195.216 25.6812C194.715 25.9241 194.381 26.086 194.13 26.3289C193.963 26.5718 193.796 26.8147 193.796 27.2195ZM195.383 22.5237C194.966 22.5237 194.632 22.6046 194.464 22.8475C194.214 23.0095 194.13 23.2523 194.13 23.5762C194.13 23.9 194.214 24.1429 194.381 24.3049C194.548 24.5477 194.966 24.7097 195.467 24.9526C195.968 24.7906 196.302 24.5477 196.469 24.3049C196.636 24.062 196.72 23.8191 196.72 23.5762C196.72 23.2523 196.636 23.0095 196.386 22.8475C196.135 22.6856 195.801 22.5237 195.383 22.5237Z" fill="black"/>
<path d="M221.363 24.9526C221.363 27.7053 220.277 29.0007 218.105 29.0007C217.688 29.0007 217.437 29.0007 217.186 28.9197V28.272C217.437 28.353 217.771 28.434 218.105 28.434C218.857 28.434 219.442 28.1911 219.859 27.7053C220.277 27.2195 220.444 26.4909 220.528 25.5193H220.444C220.277 25.7622 220.027 26.0051 219.692 26.086C219.358 26.248 219.024 26.3289 218.69 26.3289C218.022 26.3289 217.52 26.167 217.186 25.7622C216.852 25.3574 216.602 24.8716 216.602 24.2239C216.602 23.4952 216.769 22.9285 217.186 22.5237C217.604 22.1189 218.189 21.876 218.857 21.876C219.358 21.876 219.776 21.9569 220.11 22.1998C220.444 22.4427 220.778 22.7666 220.945 23.2523C221.28 23.8191 221.363 24.3049 221.363 24.9526ZM218.941 22.6046C218.439 22.6046 218.105 22.7666 217.855 23.0095C217.604 23.3333 217.437 23.7381 217.437 24.2239C217.437 24.7097 217.52 25.0335 217.771 25.2764C218.022 25.5193 218.356 25.6812 218.857 25.6812C219.191 25.6812 219.442 25.6003 219.692 25.5193C219.943 25.4383 220.11 25.2764 220.277 25.0335C220.444 24.7906 220.528 24.6287 220.528 24.3858C220.528 24.062 220.444 23.7381 220.361 23.4952C220.194 23.2523 220.027 23.0095 219.776 22.8475C219.525 22.6856 219.275 22.6046 218.941 22.6046Z" fill="black"/>
<path d="M240.827 28.9198H240.075V23.9811C240.075 23.5763 240.075 23.1715 240.075 22.8476C239.992 22.9286 239.908 23.0095 239.824 23.0905C239.741 23.1715 239.323 23.4953 238.655 23.9811L238.237 23.4144L240.159 21.957H240.827V28.9198Z" fill="black"/>
<path d="M247.76 25.4383C247.76 26.6528 247.593 27.5434 247.175 28.1101C246.758 28.6768 246.173 29.0007 245.421 29.0007C244.669 29.0007 244.084 28.6768 243.667 28.1101C243.249 27.5434 243.082 26.6528 243.082 25.4383C243.082 24.2239 243.249 23.3333 243.667 22.7666C244.084 22.1998 244.669 21.876 245.421 21.876C246.173 21.876 246.758 22.1998 247.175 22.7666C247.593 23.4143 247.76 24.3049 247.76 25.4383ZM243.917 25.4383C243.917 26.4099 244.001 27.2195 244.252 27.6243C244.502 28.1101 244.92 28.353 245.421 28.353C245.922 28.353 246.34 28.1101 246.591 27.6243C246.841 27.1386 246.925 26.4099 246.925 25.4383C246.925 24.4668 246.841 23.7381 246.591 23.2523C246.34 22.7666 245.922 22.5237 245.421 22.5237C244.92 22.5237 244.502 22.7666 244.252 23.1714C244.001 23.7381 243.917 24.4668 243.917 25.4383Z" fill="black"/>
<path d="M264.301 28.9198H263.549V23.9811C263.549 23.5763 263.549 23.1715 263.549 22.8476C263.465 22.9286 263.382 23.0095 263.298 23.0905C263.215 23.1715 262.797 23.4953 262.129 23.9811L261.711 23.4144L263.632 21.957H264.301V28.9198Z" fill="black"/>
<path d="M269.062 28.9198H268.31V23.9811C268.31 23.5763 268.31 23.1715 268.31 22.8476C268.227 22.9286 268.143 23.0095 268.06 23.0905C267.976 23.1715 267.559 23.4953 266.89 23.9811L266.473 23.4144L268.394 21.957H269.062V28.9198Z" fill="black"/>
<path d="M287.776 28.9179H287.024V23.9791C287.024 23.5743 287.024 23.1695 287.024 22.8457C286.941 22.9266 286.857 23.0076 286.774 23.0886C286.69 23.1695 286.272 23.4934 285.604 23.9791L285.187 23.4124L287.108 21.9551H287.776V28.9179Z" fill="black"/>
<path d="M294.459 28.9187H289.781V28.271L291.703 26.4088C292.287 25.8421 292.622 25.4373 292.872 25.1944C293.039 24.9515 293.206 24.7086 293.29 24.4657C293.373 24.2228 293.457 23.9799 293.457 23.7371C293.457 23.3322 293.373 23.0893 293.123 22.8465C292.872 22.6036 292.538 22.5226 292.12 22.5226C291.786 22.5226 291.536 22.6036 291.285 22.6845C291.034 22.7655 290.7 22.9274 290.366 23.1703L289.948 22.6036C290.617 22.0368 291.285 21.7939 292.12 21.7939C292.789 21.7939 293.29 21.9559 293.708 22.2797C294.125 22.6036 294.292 23.0893 294.292 23.6561C294.292 24.0609 294.125 24.5467 293.875 24.9515C293.624 25.3563 293.123 25.923 292.454 26.5708L290.867 28.0281H294.543V28.9187H294.459Z" fill="black"/>
<path d="M311.668 28.9198H310.916V23.9811C310.916 23.5763 310.916 23.1715 310.916 22.8476C310.832 22.9286 310.749 23.0095 310.665 23.0905C310.582 23.1715 310.164 23.4953 309.496 23.9811L309.078 23.4144L311 21.957H311.668V28.9198Z" fill="black"/>
<path d="M318.101 23.6572C318.101 24.0621 317.934 24.4669 317.684 24.7098C317.433 24.9527 317.099 25.1955 316.598 25.2765C317.182 25.3575 317.6 25.5194 317.851 25.8432C318.101 26.1671 318.268 26.4909 318.268 26.9767C318.268 27.6244 318.018 28.1102 317.6 28.515C317.099 28.8389 316.431 29.0818 315.595 29.0818C315.177 29.0818 314.843 29.0818 314.593 29.0008C314.259 28.9198 314.008 28.8389 313.674 28.6769V27.9483C314.008 28.1102 314.342 28.1912 314.676 28.2721C315.01 28.3531 315.345 28.3531 315.679 28.3531C316.932 28.3531 317.516 27.8673 317.516 26.9767C317.516 26.1671 316.848 25.6813 315.512 25.6813H314.843V25.0336H315.595C316.18 25.0336 316.598 24.9527 316.932 24.7098C317.266 24.4669 317.433 24.143 317.433 23.7382C317.433 23.4144 317.349 23.1715 317.099 22.9286C316.848 22.7667 316.514 22.6047 316.096 22.6047C315.762 22.6047 315.512 22.6857 315.177 22.7667C314.927 22.8476 314.593 23.0095 314.259 23.2524L313.841 22.6857C314.175 22.4428 314.509 22.2809 314.843 22.119C315.261 21.957 315.595 21.957 316.096 21.957C316.765 21.957 317.349 22.119 317.684 22.4428C317.934 22.6857 318.101 23.0905 318.101 23.6572Z" fill="black"/>
<path d="M334.889 28.9198H334.138V23.9811C334.138 23.5763 334.138 23.1715 334.138 22.8476C334.054 22.9286 333.971 23.0095 333.887 23.0905C333.803 23.1715 333.386 23.4953 332.717 23.9811L332.3 23.4144L334.221 21.957H334.889V28.9198Z" fill="black"/>
<path d="M342.074 27.3816H340.988V29.0009H340.236V27.3816H336.728V26.7339L340.152 22.0381H340.988V26.7339H342.074V27.3816ZM340.236 26.653V24.386C340.236 23.9002 340.236 23.4145 340.32 22.8477C340.152 23.1716 339.985 23.4145 339.902 23.5764L337.646 26.653H340.236Z" fill="black"/>
<path d="M361.288 1.7959H360.452V17.5027H361.288V1.7959Z" fill="black"/>
<path d="M339.985 1.7959H339.149V9.81122H339.985V1.7959Z" fill="black"/>
<path d="M342.325 1.7959H341.489V9.81122H342.325V1.7959Z" fill="black"/>
<path d="M344.747 1.7959H343.912V9.81122H344.747V1.7959Z" fill="black"/>
<path d="M347.085 1.7959H346.25V9.81122H347.085V1.7959Z" fill="black"/>
<path d="M349.424 1.7959H348.589V13.8594H349.424V1.7959Z" fill="black"/>
<path d="M351.848 1.7959H351.013V9.81122H351.848V1.7959Z" fill="black"/>
<path d="M354.186 1.7959H353.351V9.81122H354.186V1.7959Z" fill="black"/>
<path d="M356.525 1.7959H355.689V9.81122H356.525V1.7959Z" fill="black"/>
<path d="M358.949 1.7959H358.113V9.81122H358.949V1.7959Z" fill="black"/>
<path d="M358.863 28.9198H358.111V23.9811C358.111 23.5763 358.111 23.1715 358.111 22.8476C358.028 22.9286 357.944 23.0095 357.861 23.0905C357.777 23.1715 357.359 23.4953 356.691 23.9811L356.273 23.4144L358.195 21.957H358.863V28.9198Z" fill="black"/>
<path d="M363.123 24.7099C363.875 24.7099 364.46 24.8718 364.877 25.2766C365.295 25.6004 365.546 26.1672 365.546 26.7339C365.546 27.4626 365.295 28.0293 364.877 28.4341C364.376 28.839 363.791 29.0819 362.956 29.0819C362.121 29.0819 361.536 28.9199 361.118 28.677V27.9484C361.369 28.1103 361.619 28.1913 361.954 28.2722C362.288 28.3532 362.622 28.3532 362.956 28.3532C363.541 28.3532 363.958 28.1913 364.293 27.9484C364.627 27.7055 364.794 27.3007 364.794 26.8149C364.794 25.8433 364.209 25.3576 362.956 25.3576C362.622 25.3576 362.204 25.4385 361.703 25.5195L361.285 25.2766L361.536 22.0381H365.128V22.7668H362.204L362.037 24.8718C362.371 24.7099 362.789 24.7099 363.123 24.7099Z" fill="black"/>
</g>
<g clip-path="url(#clip2_5611_99196)">
<path d="M320.737 50.5814C319.901 50.5814 319.317 49.9403 319.317 49.1284C319.317 48.3164 319.943 47.6754 320.737 47.6754C321.572 47.6754 322.157 48.3164 322.157 49.1284C322.157 49.9403 321.572 50.5814 320.737 50.5814ZM323.953 50.4959C323.66 50.4959 323.535 50.3249 323.535 50.0685V46.4788H322.198V47.1626C321.781 46.6497 321.196 46.3506 320.486 46.3506C319.024 46.3506 317.938 47.5472 317.938 49.1284C317.938 50.7096 319.024 51.9061 320.486 51.9061C321.238 51.9061 321.864 51.5215 322.282 50.966C322.491 51.5215 322.95 51.8207 323.66 51.8207H324.036V50.4959H323.953Z" fill="#9C6A17"/>
<path d="M327.46 51.9061C328.839 51.9061 329.924 51.0087 330.175 49.7267H328.755C328.546 50.2395 328.045 50.5814 327.46 50.5814C326.625 50.5814 326.04 49.9403 326.04 49.1284C326.04 48.3164 326.667 47.6754 327.46 47.6754C328.045 47.6754 328.546 48.0173 328.755 48.5301H330.175C329.924 47.248 328.839 46.3506 327.46 46.3506C325.873 46.3506 324.662 47.5472 324.662 49.1284C324.662 50.7096 325.873 51.9061 327.46 51.9061Z" fill="#9C6A17"/>
<path d="M334.06 47.7179V46.4786H332.849V45.0684H331.596V46.0513C331.596 46.3504 331.471 46.4786 331.178 46.4786H330.719V47.7179H331.554V50.1111C331.554 51.2222 332.181 51.7778 333.35 51.7778H334.06V50.5384H333.559C333.141 50.5384 332.891 50.282 332.891 49.8547V47.7179H334.06Z" fill="#9C6A17"/>
<path d="M335.187 51.7778H336.523V46.4786H335.187V51.7778ZM335.855 45.7094C336.314 45.7094 336.69 45.3248 336.69 44.8547C336.69 44.3846 336.314 44 335.855 44C335.395 44 335.02 44.3846 335.02 44.8547C335.02 45.3248 335.354 45.7094 335.855 45.7094Z" fill="#9C6A17"/>
<path d="M340.951 47.7179V46.4786H339.739V45.0684H338.486V46.0513C338.486 46.3504 338.361 46.4786 338.069 46.4786H337.609V47.7179H338.445V50.1111C338.445 51.2222 339.071 51.7778 340.241 51.7778H340.951V50.5384H340.449C340.032 50.5384 339.781 50.282 339.781 49.8547V47.7179H340.951Z" fill="#9C6A17"/>
<path d="M347.507 50.4964C347.215 50.4964 347.09 50.3254 347.09 50.069V48.4451C347.09 47.2058 346.296 46.3938 345.043 46.3938C344.375 46.3938 343.79 46.693 343.373 47.2058V44.2998H342.036V51.8212H343.373V48.9152C343.373 48.1887 343.874 47.7186 344.584 47.7186C345.252 47.7186 345.711 48.1887 345.711 48.9152V50.3682C345.711 51.3511 346.213 51.8212 347.215 51.8212H347.591V50.4964H347.507Z" fill="#9C6A17"/>
<path d="M348.468 51.7778H349.804V46.4786H348.468V51.7778ZM349.136 45.7094C349.595 45.7094 349.971 45.3248 349.971 44.8547C349.971 44.3846 349.595 44 349.136 44C348.677 44 348.301 44.3846 348.301 44.8547C348.301 45.3248 348.677 45.7094 349.136 45.7094Z" fill="#9C6A17"/>
<path d="M356.654 50.4961C356.361 50.4961 356.236 50.3252 356.236 50.0688V48.4448C356.236 47.2055 355.443 46.3936 354.19 46.3936C353.521 46.3936 352.937 46.65 352.519 47.1628V46.479H351.183V51.7782H352.519V48.8722C352.519 48.1457 353.02 47.6756 353.73 47.6756C354.398 47.6756 354.858 48.1457 354.858 48.8722V50.3252C354.858 51.3081 355.359 51.7782 356.361 51.7782H356.737V50.4534H356.654V50.4961Z" fill="#9C6A17"/>
<path fill-rule="evenodd" clip-rule="evenodd" d="M313.804 46.5206C313.804 46.4778 313.804 46.4778 313.804 46.4351C313.762 46.3069 313.72 46.1359 313.637 45.965C313.553 45.7941 313.344 45.5377 313.01 45.4949C312.676 45.4522 312.384 45.6231 312.175 45.7941C311.966 45.965 311.799 46.2214 311.757 46.5206C311.715 46.8624 311.841 47.0761 312.008 47.2471C312.133 47.3753 312.3 47.4607 312.384 47.5035C312.425 47.5462 312.467 47.5462 312.509 47.5462C312.509 47.5462 312.509 47.5462 312.551 47.5462L311.632 52.0334L312.759 52.2898L313.72 47.6317L315.934 47.7171C315.85 47.8454 315.808 47.9736 315.725 48.1018C315.558 48.4436 315.391 48.7855 315.265 49.1274C315.14 49.4265 315.015 49.8539 315.057 50.1958C315.098 50.6231 315.224 51.0932 315.599 51.4778C315.975 51.8197 316.477 52.0334 317.145 52.1616L317.688 52.2471L317.897 51.0932L317.354 51.0077C316.769 50.8795 316.518 50.7513 316.393 50.6231C316.268 50.5377 316.226 50.3667 316.184 50.0676V50.0248C316.184 49.9821 316.184 49.9821 316.226 49.9394C316.268 49.8539 316.268 49.7257 316.351 49.5975C316.477 49.2983 316.602 48.9992 316.769 48.7001C316.978 48.1018 317.312 47.5462 317.312 47.5462C317.312 47.5035 317.395 47.418 317.395 47.2471C317.395 47.1616 317.354 47.0334 317.312 46.9052C317.228 46.777 317.145 46.7342 317.061 46.6915C316.978 46.6488 316.894 46.6488 316.852 46.6488L313.804 46.5206Z" fill="#9C6A17"/>
<path d="M295.051 51.4783C294.884 51.1792 294.591 50.9228 294.341 50.7091C294.048 50.4954 293.714 50.239 293.38 50.1108C293.046 49.9826 292.67 50.0253 292.336 50.1535C292.044 50.239 291.793 50.4527 291.668 50.7518C291.543 51.0937 291.543 51.3929 291.793 51.6493C292.044 51.8629 292.378 52.0339 292.67 52.0766C292.754 52.0766 293.004 52.1194 293.088 52.0339C293.171 51.9484 293.13 51.6493 293.13 51.5638C293.046 51.2647 292.754 51.0082 292.503 51.2647C292.253 51.5211 291.877 51.051 292.127 50.7946C292.42 50.4954 292.879 50.4954 293.213 50.7091C293.547 50.9228 293.714 51.3501 293.714 51.7775C293.714 52.2048 293.589 52.5894 293.171 52.6749C292.795 52.8031 292.336 52.7177 292.002 52.5467C291.668 52.3758 291.334 52.1194 291.125 51.7775C290.958 51.3929 291 50.9228 291.167 50.5382C291.501 49.7262 292.336 49.4271 293.13 49.4698C293.631 49.5125 294.09 49.8117 294.466 50.0681C294.842 50.3672 295.26 50.6664 295.51 51.0937C295.677 51.4356 295.218 51.8202 295.051 51.4783Z" fill="#9C6A17"/>
<path d="M302.193 48.1022C302.277 48.786 301.985 49.3843 301.567 49.427C301.149 49.4697 300.732 48.9142 300.648 48.2304C300.565 47.5467 300.857 46.9484 301.275 46.9056C301.692 46.8629 302.11 47.4185 302.193 48.1022Z" fill="#9C6A17"/>
<path d="M294.174 48.7438C294.174 50.8379 295.886 52.2481 297.933 52.2481C299.979 52.2481 301.608 51.137 301.65 48.7438C301.691 46.6498 299.979 44.9404 297.933 44.9404C295.844 44.9404 294.174 46.6071 294.174 48.7438Z" fill="#9C6A17"/>
<path d="M298.935 45.1536C298.935 44.9826 297.849 44.9399 297.557 44.2989C297.515 44.2134 297.515 44.1279 297.515 44.1279C297.39 44.1707 297.181 44.2561 296.972 44.4698C296.763 44.6835 296.721 44.8972 296.68 44.9826C296.638 44.9826 296.513 44.8972 296.429 44.8117C296.346 44.6835 296.346 44.5125 296.346 44.4698C296.262 44.5553 296.137 44.6408 296.053 44.8117C295.761 45.2818 295.886 45.7519 295.928 45.8801C298.392 45.4955 298.935 45.2818 298.935 45.1536Z" fill="#9C6A17"/>
<path d="M296.221 50.4528C296.429 51.4357 297.682 51.9913 298.977 51.6494C300.314 51.3503 301.232 50.2819 301.024 49.3417C300.815 48.3588 299.562 47.8033 298.225 48.1451C296.931 48.4443 296.054 49.4699 296.221 50.4528Z" fill="#FECC7B"/>
<path d="M295.804 48.6574C295.971 49.5121 296.722 50.0677 297.474 49.854C298.226 49.6403 298.727 48.7856 298.56 47.9309C298.393 47.0762 297.641 46.5207 296.89 46.7343C296.096 46.9053 295.637 47.76 295.804 48.6574Z" fill="#FECC7B"/>
<path d="M300.48 47.3759C300.647 48.2733 300.188 49.128 299.52 49.2989C298.81 49.4699 298.1 48.9143 297.974 48.0596C297.766 47.1622 298.225 46.3075 298.935 46.1366C299.603 45.9229 300.313 46.4784 300.48 47.3759Z" fill="#FECC7B"/>
<path d="M294.759 50.709C294.508 50.7518 294.257 50.6236 294.049 50.3672C293.84 50.1107 293.631 49.7261 293.547 49.2988C293.464 48.8714 293.506 48.4441 293.589 48.1022C293.715 47.7603 293.923 47.5466 294.174 47.5039C294.425 47.4184 294.675 47.5466 294.884 47.8031C295.093 48.0595 295.302 48.4441 295.385 48.8714C295.469 49.2988 295.427 49.7261 295.343 50.068C295.176 50.4526 295.009 50.6663 294.759 50.709Z" fill="#9C6A17"/>
<path d="M295.177 50.0687C295.052 50.3679 294.885 50.5388 294.718 50.5816L294.76 50.838C295.094 50.7525 295.303 50.4961 295.428 50.1542L295.177 50.0687ZM295.219 48.9576C295.303 49.385 295.261 49.7696 295.177 50.0687L295.47 50.1542C295.595 49.8123 295.637 49.3422 295.553 48.8722L295.219 48.9576ZM294.76 47.932C294.968 48.1457 295.135 48.5303 295.219 48.9576L295.511 48.9149C295.428 48.4448 295.219 48.0175 295.01 47.761L294.76 47.932ZM294.175 47.6328C294.342 47.5901 294.593 47.6756 294.76 47.932L294.968 47.7183C294.76 47.4619 294.467 47.291 294.133 47.3337L294.175 47.6328ZM293.757 48.1457C293.841 47.8465 294.008 47.6756 294.175 47.6328L294.133 47.3337C293.799 47.4192 293.59 47.6756 293.465 48.0175L293.757 48.1457ZM293.674 49.2568C293.59 48.8294 293.632 48.4448 293.715 48.1457L293.465 48.0175C293.34 48.3593 293.298 48.8294 293.381 49.2995L293.674 49.2568ZM294.133 50.2824C293.924 50.0687 293.757 49.6841 293.674 49.2568L293.381 49.2995C293.465 49.7696 293.674 50.1969 293.883 50.4534L294.133 50.2824ZM294.718 50.5816C294.551 50.6243 294.342 50.5388 294.133 50.2824L293.924 50.4534C294.175 50.7525 294.467 50.9234 294.801 50.838L294.718 50.5816ZM295.303 50.1115L295.428 50.1542L295.303 50.1115ZM295.386 48.9149L295.261 48.9576L295.386 48.9149ZM294.885 47.8038L295.01 47.7183L294.885 47.8038ZM294.175 47.5046L294.133 47.3337L294.175 47.5046ZM293.59 48.1029L293.465 48.0175L293.59 48.1029ZM293.548 49.2995L293.674 49.2568L293.548 49.2995ZM294.008 50.3679L293.924 50.4534L294.008 50.3679ZM294.76 50.7098L294.718 50.5816L294.76 50.7098Z" fill="#FECC7B"/>
<path d="M294.216 49.2565C294.717 50.3249 294.8 51.1369 295.176 51.0514C295.552 50.9659 295.636 49.8121 295.51 48.8719C295.385 47.9745 294.633 47.3334 294.508 47.4616C294.341 47.5044 294.09 48.3591 294.216 49.2565Z" fill="#9C6A17"/>
<path d="M299.854 50.4532C299.812 50.4959 299.311 51.0942 298.434 51.0942C297.807 51.0942 297.223 50.7523 296.889 50.2822C297.014 50.3677 297.557 50.8378 298.392 50.8805C299.186 50.8805 299.687 50.5386 299.854 50.4532Z" fill="#9C6A17"/>
<path d="M298.268 49.7691C298.309 49.7691 298.476 49.8118 298.685 49.8118C298.894 49.7691 299.019 49.7263 299.061 49.6836C298.936 49.6836 298.811 49.7263 298.685 49.7263C298.518 49.7691 298.351 49.7691 298.268 49.7691Z" fill="#9C6A17"/>
<path d="M301.608 48.8721C301.65 48.8721 301.692 48.8721 301.692 48.9148L301.859 52.2909C301.859 52.3336 301.859 52.3336 301.817 52.3763L298.894 53.8721H298.852L295.72 52.8037C295.678 52.8037 295.678 52.761 295.678 52.761L295.511 49.3849C295.511 49.3422 295.511 49.3422 295.553 49.3422H295.594L298.685 50.4533C298.727 50.4533 298.727 50.4533 298.768 50.4533L301.608 48.8721Z" fill="#9C6A17"/>
<path d="M298.851 50.5378L301.691 49.0421L301.524 48.7002L298.684 50.1959L298.851 50.5378ZM298.642 50.5378C298.726 50.5805 298.767 50.5378 298.851 50.5378L298.684 50.2387H298.726L298.642 50.5378ZM298.726 50.5378V50.1959V50.5378ZM295.552 49.4267L298.642 50.5378L298.767 50.1959L295.677 49.1275L295.552 49.4267ZM295.593 49.4694V49.1275V49.4694ZM295.677 49.4267L295.635 49.4694C295.593 49.4694 295.593 49.4694 295.552 49.4694L295.677 49.1275C295.593 49.0848 295.51 49.1275 295.468 49.1703L295.677 49.4267ZM295.677 49.3412C295.677 49.384 295.677 49.384 295.635 49.4267L295.426 49.1703C295.385 49.213 295.343 49.2985 295.343 49.384L295.677 49.3412ZM295.886 52.7173L295.719 49.3412H295.385L295.552 52.7173H295.886ZM295.802 52.5891C295.844 52.5891 295.886 52.6746 295.886 52.6746L295.552 52.7173C295.552 52.8028 295.593 52.8882 295.719 52.931L295.802 52.5891ZM295.76 52.5891V52.931V52.5891ZM298.935 53.7002L295.802 52.6318L295.677 52.9737L298.809 54.0421L298.935 53.7002ZM298.851 53.6575V53.9993V53.6575ZM298.809 53.7002C298.851 53.7002 298.893 53.7002 298.893 53.7002L298.767 53.9993C298.809 54.0421 298.893 53.9993 298.935 53.9993L298.809 53.7002ZM298.767 53.7429L299.018 53.9993L298.767 53.7429ZM301.775 52.2045L298.851 53.7002L299.018 53.9993L301.942 52.5036L301.775 52.2045ZM301.691 52.2899C301.691 52.2472 301.691 52.2045 301.733 52.2045L301.858 52.5036C301.942 52.4609 301.983 52.3754 301.983 52.2899H301.691ZM301.524 48.9566L301.691 52.3327H302.025L301.858 48.9139L301.524 48.9566ZM301.691 49.0421C301.649 49.0848 301.607 49.0421 301.566 49.0421C301.524 49.0421 301.524 48.9993 301.524 48.9566H301.858C301.858 48.7857 301.691 48.6575 301.524 48.7429L301.691 49.0421ZM298.767 50.3669L298.684 50.1959L298.767 50.3669ZM298.726 50.3669L298.767 50.1959H298.726H298.684V50.3669H298.726ZM298.726 50.3669L298.684 50.5378H298.726H298.767V50.3669H298.726ZM295.593 49.2985L295.635 49.1275H295.593V49.2985ZM295.593 49.2985L295.552 49.4694H295.593V49.2985ZM295.552 49.2985L295.677 49.4267L295.552 49.2985ZM295.51 49.3412H295.677H295.51ZM295.719 52.7173H295.552H295.719ZM295.76 52.76L295.719 52.931H295.76H295.802V52.76H295.76ZM295.76 52.76L295.802 52.5891H295.76H295.719V52.76H295.76ZM298.851 53.8284L298.809 53.9993H298.851H298.893V53.8284H298.851ZM298.851 53.8284L298.893 53.6575H298.851H298.809V53.8284H298.851ZM298.893 53.8284L298.976 53.9993H299.018L298.893 53.8284ZM298.893 53.8284L298.809 53.6575H298.767L298.893 53.8284ZM301.816 52.3754L301.733 52.2045L301.816 52.3754ZM301.858 52.2899H302.025H301.858ZM301.691 48.9139H301.858H301.691ZM301.607 48.8711L301.691 49.0421L301.607 48.8711Z" fill="#FECC7B"/>
<path d="M298.852 53.7437L298.685 50.6668L298.935 50.624L299.06 53.6155L298.852 53.7437Z" fill="#FECC7B"/>
<path d="M295.928 49.0855L295.886 49.2564V49.2137V49.0855V49L298.141 49.8974L295.928 49.0855Z" fill="#9C6A17"/>
<path d="M295.844 49.0857L296.012 49.1285L295.844 49.0857ZM295.97 49.0003L295.886 49.1712L295.97 49.0003ZM298.183 49.8122L295.97 49.0003L295.928 49.1712L298.1 49.9832L298.183 49.8122ZM295.844 49.043L298.1 49.9832L298.142 49.8122L295.886 48.8721L295.844 49.043ZM295.97 49.0857V48.9575H295.803V49.0857H295.97ZM295.97 49.214V49.0857L295.803 49.1285V49.2567L295.97 49.214ZM295.97 49.1712L295.844 49.2994L295.97 49.1712ZM295.844 49.0857V49.214H296.012V49.0857H295.844ZM295.928 49.0857L295.97 49.0003L295.886 48.9575V49.0857H295.928ZM295.928 49.0857L295.886 49.1712L295.928 49.0857ZM298.142 49.8977L298.1 49.9832L298.142 49.8122V49.8977ZM295.886 49.0003L295.928 48.9148L295.803 48.8721V49.0003H295.886ZM295.886 49.0857H295.803H295.886ZM295.886 49.214H295.803V49.2567L295.886 49.214ZM295.886 49.2567L295.844 49.2994L295.97 49.4276V49.2567H295.886ZM295.928 49.0857H295.844H295.928Z" fill="#FECC7B"/>
<path d="M301.65 48.9571L301.567 48.6152L299.27 50.1537L301.567 48.8289V48.7862V48.8289L301.65 48.9571Z" fill="#9C6A17"/>
<path d="M301.733 48.9564H301.566H301.733ZM301.65 49.0419V48.8709V49.0419ZM301.483 48.8709L301.566 48.9991L301.691 48.9137L301.608 48.7855L301.483 48.8709ZM301.483 48.8282L301.65 48.7427L301.483 48.8282ZM301.608 48.8709L301.524 48.7L301.608 48.8709ZM299.311 50.1957L301.608 48.8709L301.524 48.7427L299.227 50.0675L299.311 50.1957ZM301.483 48.5718L299.186 50.0675L299.269 50.1957L301.566 48.7L301.483 48.5718ZM301.733 48.9137L301.65 48.6145L301.483 48.6573L301.566 48.9564L301.733 48.9137ZM301.65 48.9564V49.0419H301.733V48.9564H301.65ZM301.65 48.9564L301.566 48.9991L301.608 49.0419H301.65V48.9564ZM301.566 48.8282L301.483 48.8709L301.566 48.8282ZM301.566 48.7855L301.65 48.7427L301.608 48.7L301.524 48.7427L301.566 48.7855ZM301.566 48.8282L301.524 48.7427L301.566 48.8282ZM299.269 50.153L299.227 50.0675L299.311 50.1957L299.269 50.153ZM301.566 48.6145L301.65 48.5718L301.608 48.4863L301.524 48.5291L301.566 48.6145ZM301.65 48.9564H301.733H301.65Z" fill="#FECC7B"/>
<path d="M295.894 52.5466C296.332 52.5383 296.683 52.302 296.678 52.0188C296.673 51.7357 296.314 51.5128 295.875 51.5211C295.437 51.5294 295.086 51.7657 295.091 52.0488C295.096 52.332 295.456 52.5548 295.894 52.5466Z" fill="#9C6A17"/>
<path d="M295.892 52.3328C296.145 52.3282 296.349 52.1904 296.346 52.0253C296.343 51.8601 296.135 51.73 295.881 51.7347C295.628 51.7394 295.424 51.8771 295.427 52.0423C295.43 52.2074 295.638 52.3375 295.892 52.3328Z" fill="#FECC7B"/>
<path d="M296.68 51.5212C296.68 51.863 296.304 52.1194 295.845 52.1194C295.385 52.1194 295.01 51.863 294.968 51.5639C294.968 51.2647 295.344 50.9656 295.803 50.9656C296.262 50.9229 296.638 51.1793 296.68 51.5212Z" fill="#9C6A17"/>
<path d="M296.304 51.3927C296.304 51.5636 296.095 51.7345 295.844 51.7345C295.594 51.7345 295.385 51.6063 295.385 51.3927C295.385 51.2217 295.594 51.0508 295.844 51.0508C296.095 51.0508 296.304 51.2217 296.304 51.3927Z" fill="#FECC7B"/>
<path d="M296.555 50.9232C296.555 51.1796 296.221 51.3933 295.761 51.3933C295.344 51.3933 294.968 51.1796 294.968 50.9232V50.8805C295.01 50.6241 295.344 50.4531 295.761 50.4531C296.179 50.4959 296.555 50.6668 296.555 50.9232Z" fill="#9C6A17"/>
<path d="M296.221 50.9229C296.221 51.0939 296.012 51.2648 295.761 51.2648C295.594 51.2648 295.344 51.1366 295.302 50.9657V50.9229C295.302 50.752 295.552 50.5811 295.761 50.5811C296.012 50.5811 296.221 50.752 296.221 50.9229Z" fill="#FECC7B"/>
<path d="M295.51 50.1533C295.427 50.1961 295.176 50.2815 295.051 50.5379C294.968 50.7089 294.926 50.8798 294.926 50.9653C295.093 50.8371 295.302 50.7089 295.469 50.5379C295.51 50.4097 295.552 50.2815 295.51 50.1533Z" fill="#9C6A17"/>
<path d="M295.51 50.7521C295.426 50.8375 295.384 50.9658 295.301 51.0512C295.301 51.0085 295.217 50.7948 295.301 50.5384C295.343 50.3247 295.468 50.2393 295.51 50.2393C295.426 50.4102 295.384 50.6239 295.426 50.7093C295.468 50.7521 295.51 50.7521 295.51 50.7521Z" fill="#FECC7B"/>
<path d="M300.982 51.3081C300.982 51.6072 301.358 51.8209 301.734 51.7782C302.151 51.7354 302.444 51.479 302.444 51.2226C302.444 50.9235 302.068 50.7098 301.692 50.7525C301.274 50.7525 300.94 51.0089 300.982 51.3081Z" fill="#9C6A17"/>
<path d="M301.724 50.9654C301.471 50.9831 301.275 51.1311 301.286 51.2959C301.297 51.4607 301.511 51.58 301.764 51.5623C302.017 51.5446 302.214 51.3967 302.203 51.2318C302.192 51.067 301.978 50.9477 301.724 50.9654Z" fill="#FECC7B"/>
<path d="M300.858 50.7951C300.858 51.0943 301.275 51.3507 301.735 51.3079C302.194 51.2652 302.57 50.9661 302.528 50.6669C302.528 50.3678 302.111 50.1114 301.651 50.1541C301.192 50.1968 300.816 50.4532 300.858 50.7951Z" fill="#9C6A17"/>
<path d="M301.618 50.2463C301.296 50.2683 301.045 50.4389 301.057 50.6273C301.069 50.8157 301.34 50.9506 301.663 50.9286C301.985 50.9065 302.236 50.7359 302.224 50.5475C302.212 50.3591 301.94 50.2243 301.618 50.2463Z" fill="#FECC7B"/>
<path d="M300.982 50.1964C300.982 50.4528 301.358 50.6238 301.734 50.6238C302.151 50.581 302.444 50.3674 302.444 50.1109V50.0682C302.402 49.8118 302.068 49.6836 301.692 49.6836C301.274 49.7263 300.94 49.94 300.982 50.1964Z" fill="#9C6A17"/>
<path d="M301.316 50.1959C301.316 50.3669 301.525 50.5378 301.776 50.4951C301.943 50.4951 302.193 50.3241 302.193 50.1532V50.1105C302.193 49.9395 301.943 49.7686 301.734 49.8113C301.483 49.8113 301.316 49.9823 301.316 50.1959Z" fill="#FECC7B"/>
<path d="M301.774 49.3418C301.858 49.3845 302.109 49.47 302.276 49.7264C302.401 49.8974 302.443 50.0683 302.443 50.1538C302.234 50.0256 302.025 49.8974 301.816 49.7691C301.816 49.6837 301.816 49.6409 301.774 49.5555C301.774 49.47 301.774 49.3845 301.774 49.3418Z" fill="#9C6A17"/>
<path d="M301.942 49.8978C302.026 49.9833 302.109 50.0688 302.193 50.1542C302.193 50.1115 302.235 49.8978 302.151 49.6841C302.067 49.5132 301.9 49.4705 301.9 49.4277C302.026 49.5987 302.067 49.7696 302.026 49.8123C301.984 49.8551 301.984 49.8978 301.942 49.8978Z" fill="#FECC7B"/>
<path d="M297.807 48.7435C297.849 49.0427 297.682 49.2991 297.431 49.3418C297.181 49.3846 296.972 49.1709 296.93 48.8717C296.846 48.5726 297.013 48.3162 297.264 48.2734C297.515 48.2734 297.765 48.4444 297.807 48.7435Z" fill="#9C6A17"/>
<path d="M297.348 48.5298C297.348 48.7008 297.265 48.829 297.139 48.8717C297.014 48.8717 296.889 48.7863 296.889 48.6153C296.889 48.4444 296.972 48.3162 297.097 48.2734C297.223 48.2734 297.306 48.4016 297.348 48.5298Z" fill="#FECC7B"/>
<path d="M299.812 48.2736C299.854 48.5728 299.687 48.8292 299.478 48.8719C299.269 48.9147 299.06 48.701 299.019 48.4018C299.019 48.1027 299.144 47.8463 299.394 47.8463C299.603 47.8036 299.812 48.0172 299.812 48.2736Z" fill="#9C6A17"/>
<path d="M299.478 47.9737C299.478 48.0591 299.394 48.1446 299.269 48.1873C299.144 48.1873 299.019 48.1446 299.019 48.0164C299.019 47.9309 299.102 47.8455 299.227 47.8027C299.353 47.8027 299.478 47.8882 299.478 47.9737Z" fill="#FECC7B"/>
<path d="M295.886 49.0859V49.2569L296.095 49.3423L296.011 49.1714L295.886 49.0859Z" fill="#FECC7B"/>
<path d="M295.886 49.0859L297.389 49.727L298.684 50.2398L295.928 49.1714L295.886 49.0859Z" fill="#9C6A17"/>
<path d="M300.982 49.1712L299.27 50.1541L300.564 49.5131L301.65 49.0003L301.567 48.8721L300.982 49.1712Z" fill="#FECC7B"/>
<path d="M301.399 48.8721L299.979 49.5986L298.685 50.2396L301.358 48.9148L301.399 48.8721Z" fill="#9C6A17"/>
<path d="M308.166 46.3506C307.456 46.3506 306.871 46.6497 306.454 47.1626V46.4788H305.117V53.7865H306.454V51.0942C306.871 51.607 307.456 51.9061 308.166 51.9061C309.628 51.9061 310.714 50.7096 310.714 49.1284C310.714 47.5472 309.628 46.3506 308.166 46.3506ZM307.915 50.6241C307.707 50.6241 307.54 50.5814 307.331 50.4959C306.871 50.3249 306.537 49.8549 306.454 49.342C306.454 49.2566 306.454 49.2138 306.454 49.1284C306.454 49.0429 306.454 49.0002 306.454 48.9147C306.537 48.3591 306.83 47.9318 307.331 47.7608C307.498 47.6754 307.707 47.6326 307.915 47.6326C308.709 47.6326 309.377 48.3164 309.377 49.1284C309.377 49.9403 308.751 50.6241 307.915 50.6241Z" fill="#9C6A17"/>
<path d="M359.745 49.4703C359.745 49.2993 359.787 49.0857 359.912 48.8293C359.995 48.5728 360.162 48.3164 360.288 48.06C360.413 47.8036 360.58 47.5899 360.664 47.4617C360.705 47.3763 360.747 47.3335 360.789 47.2908L360.831 47.2481L361.165 46.778L361.29 46.6498L360.037 46.3934L359.912 46.4788L359.87 46.5216C359.828 46.5643 359.787 46.6498 359.745 46.7352C359.619 46.9062 359.452 47.1626 359.327 47.419C359.16 47.6754 358.993 48.0173 358.868 48.3592C358.826 48.4874 358.742 48.6583 358.742 48.872V44.2139H357.531V51.7352H358.742V50.154C359.035 51.2224 360.121 51.778 361.29 51.9916L361.833 52.0771L362.042 50.9233L361.499 50.8378C360.288 50.6241 359.745 50.0686 359.745 49.4703Z" fill="#9C6A17"/>
</g>
</g>
<defs>
<clipPath id="clip0_5611_99196">
<rect width="57" height="370" fill="white" transform="translate(370) rotate(90)"/>
</clipPath>
<clipPath id="clip1_5611_99196">
<rect width="363" height="37" fill="white" transform="translate(3 -8)"/>
</clipPath>
<clipPath id="clip2_5611_99196">
<rect width="71" height="10" fill="white" transform="translate(291 44)"/>
</clipPath>
</defs>
</svg>
