<svg width="223" height="32" viewBox="0 0 223 32" fill="none" xmlns="http://www.w3.org/2000/svg">
<path d="M0.0186127 6.05075C0.00833319 3.28934 2.23856 1.04245 4.99997 1.03217L48.9997 0.868377C51.7611 0.858097 54.008 3.08833 54.0182 5.84973L54.0927 25.8496C54.103 28.611 51.8727 30.8579 49.1113 30.8682L5.11164 31.032C2.35024 31.0422 0.103343 28.812 0.0930635 26.0506L0.0186127 6.05075Z" fill="#9DD765"/>
<path d="M26.2709 20.3871L26.2767 21.9531L17.2228 21.9868L17.2183 20.7629L22.3298 15.7938C22.9516 15.1915 23.3696 14.6739 23.584 14.2411C23.7984 13.7963 23.9047 13.3519 23.9031 12.9079C23.9006 12.2479 23.6647 11.7388 23.1954 11.3805C22.738 11.0102 22.0773 10.8267 21.2133 10.8299C19.8213 10.8351 18.749 11.2951 17.9964 12.2099L16.7685 11.1525C17.2582 10.5506 17.8985 10.0802 18.6892 9.7413C19.492 9.40231 20.3853 9.23098 21.3693 9.22732C22.6893 9.22241 23.7405 9.53649 24.5229 10.1696C25.3052 10.7907 25.6984 11.6412 25.7024 12.7212C25.7049 13.3932 25.5632 14.0297 25.2775 14.6308C24.9917 15.2319 24.4483 15.9179 23.6471 16.6889L19.809 20.4112L26.2709 20.3871ZM36.837 9.31374L36.8415 10.5377L31.7899 21.9326L29.8819 21.9397L34.8268 10.8872L29.0669 10.9087L29.0752 13.1587L27.3472 13.1651L27.333 9.34912L36.837 9.31374Z" fill="#205B64"/>
<path d="M84.1113 5.84961C84.1113 3.08819 86.3499 0.849609 89.1113 0.849609H133.111C135.873 0.849609 138.111 3.08819 138.111 5.84961V25.8496C138.111 28.611 135.873 30.8496 133.111 30.8496H89.1113C86.3499 30.8496 84.1113 28.611 84.1113 25.8496V5.84961Z" fill="#9DD765"/>
<path d="M115.143 14.7756V16.3236L107.079 19.5096V18.0156L113.487 15.5496L107.079 13.0836V11.5896L115.143 14.7756Z" fill="#205B64"/>
<path d="M89.1113 1.84961H133.111V-0.150391H89.1113V1.84961ZM137.111 5.84961V25.8496H139.111V5.84961H137.111ZM133.111 29.8496H89.1113V31.8496H133.111V29.8496ZM85.1113 25.8496V5.84961H83.1113V25.8496H85.1113ZM89.1113 29.8496C86.9022 29.8496 85.1113 28.0587 85.1113 25.8496H83.1113C83.1113 29.1633 85.7976 31.8496 89.1113 31.8496V29.8496ZM137.111 25.8496C137.111 28.0587 135.32 29.8496 133.111 29.8496V31.8496C136.425 31.8496 139.111 29.1633 139.111 25.8496H137.111ZM133.111 1.84961C135.32 1.84961 137.111 3.64047 137.111 5.84961H139.111C139.111 2.5359 136.425 -0.150391 133.111 -0.150391V1.84961ZM89.1113 -0.150391C85.7976 -0.150391 83.1113 2.5359 83.1113 5.84961H85.1113C85.1113 3.64047 86.9022 1.84961 89.1113 1.84961V-0.150391Z" fill="#9DD765"/>
<path d="M194.135 20.2836V21.8496H185.081V20.6256L190.211 15.6756C190.835 15.0756 191.255 14.5596 191.471 14.1276C191.687 13.6836 191.795 13.2396 191.795 12.7956C191.795 12.1356 191.561 11.6256 191.093 11.2656C190.637 10.8936 189.977 10.7076 189.113 10.7076C187.721 10.7076 186.647 11.1636 185.891 12.0756L184.667 11.0136C185.159 10.4136 185.801 9.94561 186.593 9.60961C187.397 9.27361 188.291 9.10561 189.275 9.10561C190.595 9.10561 191.645 9.42361 192.425 10.0596C193.205 10.6836 193.595 11.5356 193.595 12.6156C193.595 13.2876 193.451 13.9236 193.163 14.5236C192.875 15.1236 192.329 15.8076 191.525 16.5756L187.673 20.2836H194.135ZM200.998 14.1996C201.826 14.1996 202.564 14.3556 203.212 14.6676C203.872 14.9796 204.388 15.4296 204.76 16.0176C205.132 16.5936 205.318 17.2596 205.318 18.0156C205.318 18.8076 205.12 19.5036 204.724 20.1036C204.34 20.7036 203.806 21.1716 203.122 21.5076C202.45 21.8316 201.694 21.9936 200.854 21.9936C199.162 21.9936 197.854 21.4476 196.93 20.3556C196.018 19.2636 195.562 17.7156 195.562 15.7116C195.562 14.3076 195.808 13.1136 196.3 12.1296C196.804 11.1336 197.5 10.3836 198.388 9.87961C199.288 9.36361 200.332 9.10561 201.52 9.10561C202.132 9.10561 202.708 9.17161 203.248 9.30361C203.788 9.42361 204.256 9.60361 204.652 9.84361L203.968 11.2476C203.368 10.8516 202.564 10.6536 201.556 10.6536C200.248 10.6536 199.222 11.0616 198.478 11.8776C197.734 12.6816 197.362 13.8576 197.362 15.4056C197.362 15.5976 197.368 15.7476 197.38 15.8556C197.74 15.3156 198.232 14.9076 198.856 14.6316C199.492 14.3436 200.206 14.1996 200.998 14.1996ZM200.782 20.5356C201.61 20.5356 202.282 20.3136 202.798 19.8696C203.314 19.4256 203.572 18.8316 203.572 18.0876C203.572 17.3436 203.308 16.7556 202.78 16.3236C202.264 15.8796 201.568 15.6576 200.692 15.6576C200.128 15.6576 199.624 15.7656 199.18 15.9816C198.748 16.1976 198.406 16.4916 198.154 16.8636C197.914 17.2356 197.794 17.6496 197.794 18.1056C197.794 18.5496 197.908 18.9576 198.136 19.3296C198.376 19.6896 198.718 19.9836 199.162 20.2116C199.618 20.4276 200.158 20.5356 200.782 20.5356Z" fill="#2F2F2F"/>
<path d="M173.111 1.84961H217.111V-0.150391H173.111V1.84961ZM221.111 5.84961V25.8496H223.111V5.84961H221.111ZM217.111 29.8496H173.111V31.8496H217.111V29.8496ZM169.111 25.8496V5.84961H167.111V25.8496H169.111ZM173.111 29.8496C170.902 29.8496 169.111 28.0587 169.111 25.8496H167.111C167.111 29.1633 169.798 31.8496 173.111 31.8496V29.8496ZM221.111 25.8496C221.111 28.0587 219.32 29.8496 217.111 29.8496V31.8496C220.425 31.8496 223.111 29.1633 223.111 25.8496H221.111ZM217.111 1.84961C219.32 1.84961 221.111 3.64047 221.111 5.84961H223.111C223.111 2.5359 220.425 -0.150391 217.111 -0.150391V1.84961ZM173.111 -0.150391C169.798 -0.150391 167.111 2.5359 167.111 5.84961H169.111C169.111 3.64047 170.902 1.84961 173.111 1.84961V-0.150391Z" fill="#2F2F2F"/>
</svg>
