<svg width="54" height="31" viewBox="0 0 54 31" fill="none" xmlns="http://www.w3.org/2000/svg">
<path d="M0 5.84961C0 3.08819 2.23858 0.849609 5 0.849609H49C51.7614 0.849609 54 3.08819 54 5.84961V25.8496C54 28.611 51.7614 30.8496 49 30.8496H5C2.23858 30.8496 0 28.611 0 25.8496V5.84961Z" fill="#369CB7"/>
<path d="M22.9677 12.7056H31.0317V14.1276H22.9677V12.7056ZM22.9677 16.9716H31.0317V18.3936H22.9677V16.9716Z" fill="white"/>
<path d="M5 1.84961H49V-0.150391H5V1.84961ZM53 5.84961V25.8496H55V5.84961H53ZM49 29.8496H5V31.8496H49V29.8496ZM1 25.8496V5.84961H-1V25.8496H1ZM5 29.8496C2.79086 29.8496 1 28.0587 1 25.8496H-1C-1 29.1633 1.68629 31.8496 5 31.8496V29.8496ZM53 25.8496C53 28.0587 51.2091 29.8496 49 29.8496V31.8496C52.3137 31.8496 55 29.1633 55 25.8496H53ZM49 1.84961C51.2091 1.84961 53 3.64047 53 5.84961H55C55 2.5359 52.3137 -0.150391 49 -0.150391V1.84961ZM5 -0.150391C1.68629 -0.150391 -1 2.5359 -1 5.84961H1C1 3.64047 2.79086 1.84961 5 1.84961V-0.150391Z" fill="#369CB7"/>
</svg>
