<svg width="503" height="45" viewBox="0 0 503 45" fill="none" xmlns="http://www.w3.org/2000/svg">
<path d="M24.296 20.9484C26.096 20.9484 27.416 21.2904 28.256 21.9744C29.108 22.6464 29.534 23.5704 29.534 24.7464C29.534 25.4904 29.354 26.1624 28.994 26.7624C28.646 27.3504 28.112 27.8184 27.392 28.1664C26.684 28.5024 25.808 28.6704 24.764 28.6704C23.876 28.6704 23.018 28.5384 22.19 28.2744C21.362 27.9984 20.678 27.6204 20.138 27.1404L20.966 25.7184C21.398 26.1264 21.95 26.4564 22.622 26.7084C23.294 26.9484 24.002 27.0684 24.746 27.0684C25.694 27.0684 26.426 26.8704 26.942 26.4744C27.47 26.0664 27.734 25.5144 27.734 24.8184C27.734 24.0624 27.446 23.4924 26.87 23.1084C26.294 22.7124 25.31 22.5144 23.918 22.5144H21.056L21.722 15.9264H28.832V17.4924H23.234L22.892 20.9484H24.296Z" fill="#2F2F2F"/>
<path d="M5 8.52637H45V6.52637H5V8.52637ZM49 12.5264V32.5264H51V12.5264H49ZM45 36.5264H5V38.5264H45V36.5264ZM1 32.5264V12.5264H-1V32.5264H1ZM5 36.5264C2.79086 36.5264 1 34.7355 1 32.5264H-1C-1 35.8401 1.68629 38.5264 5 38.5264V36.5264ZM49 32.5264C49 34.7355 47.2091 36.5264 45 36.5264V38.5264C48.3137 38.5264 51 35.8401 51 32.5264H49ZM45 8.52637C47.2091 8.52637 49 10.3172 49 12.5264H51C51 9.21266 48.3137 6.52637 45 6.52637V8.52637ZM5 6.52637C1.68629 6.52637 -1 9.21266 -1 12.5264H1C1 10.3172 2.79086 8.52637 5 8.52637V6.52637Z" fill="#2F2F2F"/>
<path d="M73.5634 24.3664H67.0114V30.8104H63.9874V24.3664H57.4354V21.5224H63.9874V15.0424H67.0114V21.5224H73.5634V24.3664Z" fill="#2F2F2F"/>
<path d="M111.805 25.4304H109.411V28.5264H107.665V25.4304H100.663V24.1704L107.107 15.9264H109.051L102.877 23.8824H107.719V21.1464H109.411V23.8824H111.805V25.4304Z" fill="#2F2F2F"/>
<path d="M86 8.52637H126V6.52637H86V8.52637ZM130 12.5264V32.5264H132V12.5264H130ZM126 36.5264H86V38.5264H126V36.5264ZM82 32.5264V12.5264H80V32.5264H82ZM86 36.5264C83.7909 36.5264 82 34.7355 82 32.5264H80C80 35.8401 82.6863 38.5264 86 38.5264V36.5264ZM130 32.5264C130 34.7355 128.209 36.5264 126 36.5264V38.5264C129.314 38.5264 132 35.8401 132 32.5264H130ZM126 8.52637C128.209 8.52637 130 10.3172 130 12.5264H132C132 9.21266 129.314 6.52637 126 6.52637V8.52637ZM86 6.52637C82.6863 6.52637 80 9.21266 80 12.5264H82C82 10.3172 83.7909 8.52637 86 8.52637V6.52637Z" fill="#2F2F2F"/>
<path d="M138.435 17.2384H154.563V20.0824H138.435V17.2384ZM138.435 25.7704H154.563V28.6144H138.435V25.7704Z" fill="#2F2F2F"/>
<path d="M162 12.5264C162 9.76494 164.239 7.52637 167 7.52637H207C209.761 7.52637 212 9.76494 212 12.5264V32.5264C212 35.2878 209.761 37.5264 207 37.5264H167C164.239 37.5264 162 35.2878 162 32.5264V12.5264Z" fill="#9DD765"/>
<path d="M186.395 15.7824C188.087 15.7824 189.389 16.3284 190.301 17.4204C191.225 18.5124 191.687 20.0604 191.687 22.0644C191.687 23.4684 191.435 24.6684 190.931 25.6644C190.439 26.6484 189.743 27.3984 188.843 27.9144C187.955 28.4184 186.917 28.6704 185.729 28.6704C185.117 28.6704 184.541 28.6104 184.001 28.4904C183.461 28.3584 182.993 28.1724 182.597 27.9324L183.281 26.5284C183.893 26.9244 184.703 27.1224 185.711 27.1224C187.019 27.1224 188.039 26.7204 188.771 25.9164C189.515 25.1004 189.887 23.9184 189.887 22.3704V21.9204C189.527 22.4604 189.029 22.8744 188.393 23.1624C187.757 23.4384 187.043 23.5764 186.251 23.5764C185.423 23.5764 184.679 23.4204 184.019 23.1084C183.371 22.7964 182.861 22.3524 182.489 21.7764C182.129 21.1884 181.949 20.5164 181.949 19.7604C181.949 18.9684 182.141 18.2724 182.525 17.6724C182.921 17.0724 183.455 16.6104 184.127 16.2864C184.799 15.9504 185.555 15.7824 186.395 15.7824ZM186.557 22.1184C187.121 22.1184 187.625 22.0104 188.069 21.7944C188.513 21.5784 188.855 21.2844 189.095 20.9124C189.347 20.5404 189.473 20.1264 189.473 19.6704C189.473 19.2264 189.353 18.8244 189.113 18.4644C188.885 18.0924 188.543 17.7984 188.087 17.5824C187.643 17.3544 187.103 17.2404 186.467 17.2404C185.639 17.2404 184.967 17.4624 184.451 17.9064C183.947 18.3504 183.695 18.9444 183.695 19.6884C183.695 20.4324 183.953 21.0264 184.469 21.4704C184.985 21.9024 185.681 22.1184 186.557 22.1184Z" fill="#065B5B"/>
<path d="M247.897 28.6164C246.985 28.6164 246.163 28.4124 245.431 28.0044C244.699 27.5844 244.123 27.0084 243.703 26.2764C243.283 25.5444 243.073 24.7164 243.073 23.7924C243.073 22.8684 243.283 22.0404 243.703 21.3084C244.123 20.5764 244.699 20.0064 245.431 19.5984C246.163 19.1904 246.985 18.9864 247.897 18.9864C248.809 18.9864 249.631 19.1904 250.363 19.5984C251.095 20.0064 251.665 20.5764 252.073 21.3084C252.493 22.0404 252.703 22.8684 252.703 23.7924C252.703 24.7164 252.493 25.5444 252.073 26.2764C251.665 27.0084 251.095 27.5844 250.363 28.0044C249.631 28.4124 248.809 28.6164 247.897 28.6164ZM247.897 27.4824C248.569 27.4824 249.169 27.3324 249.697 27.0324C250.237 26.7204 250.657 26.2824 250.957 25.7184C251.257 25.1544 251.407 24.5124 251.407 23.7924C251.407 23.0724 251.257 22.4304 250.957 21.8664C250.657 21.3024 250.237 20.8704 249.697 20.5704C249.169 20.2584 248.569 20.1024 247.897 20.1024C247.225 20.1024 246.619 20.2584 246.079 20.5704C245.551 20.8704 245.131 21.3024 244.819 21.8664C244.519 22.4304 244.369 23.0724 244.369 23.7924C244.369 24.5124 244.519 25.1544 244.819 25.7184C245.131 26.2824 245.551 26.7204 246.079 27.0324C246.619 27.3324 247.225 27.4824 247.897 27.4824ZM256.536 20.9124C256.836 20.2764 257.28 19.7964 257.868 19.4724C258.468 19.1484 259.206 18.9864 260.082 18.9864V20.2284L259.776 20.2104C258.78 20.2104 258 20.5164 257.436 21.1284C256.872 21.7404 256.59 22.5984 256.59 23.7024V28.5264H255.312V19.0584H256.536V20.9124Z" fill="#2F2F2F"/>
<path d="M321.805 25.4304H319.411V28.5264H317.665V25.4304H310.663V24.1704L317.107 15.9264H319.051L312.877 23.8824H317.719V21.1464H319.411V23.8824H321.805V25.4304Z" fill="#2F2F2F"/>
<path d="M296 8.52637H336V6.52637H296V8.52637ZM340 12.5264V32.5264H342V12.5264H340ZM336 36.5264H296V38.5264H336V36.5264ZM292 32.5264V12.5264H290V32.5264H292ZM296 36.5264C293.791 36.5264 292 34.7355 292 32.5264H290C290 35.8401 292.686 38.5264 296 38.5264V36.5264ZM340 32.5264C340 34.7355 338.209 36.5264 336 36.5264V38.5264C339.314 38.5264 342 35.8401 342 32.5264H340ZM336 8.52637C338.209 8.52637 340 10.3172 340 12.5264H342C342 9.21266 339.314 6.52637 336 6.52637V8.52637ZM296 6.52637C292.686 6.52637 290 9.21266 290 12.5264H292C292 10.3172 293.791 8.52637 296 8.52637V6.52637Z" fill="#2F2F2F"/>
<path d="M364.563 24.3664H358.011V30.8104H354.987V24.3664H348.435V21.5224H354.987V15.0424H358.011V21.5224H364.563V24.3664Z" fill="#2F2F2F"/>
<path d="M396.296 20.9484C398.096 20.9484 399.416 21.2904 400.256 21.9744C401.108 22.6464 401.534 23.5704 401.534 24.7464C401.534 25.4904 401.354 26.1624 400.994 26.7624C400.646 27.3504 400.112 27.8184 399.392 28.1664C398.684 28.5024 397.808 28.6704 396.764 28.6704C395.876 28.6704 395.018 28.5384 394.19 28.2744C393.362 27.9984 392.678 27.6204 392.138 27.1404L392.966 25.7184C393.398 26.1264 393.95 26.4564 394.622 26.7084C395.294 26.9484 396.002 27.0684 396.746 27.0684C397.694 27.0684 398.426 26.8704 398.942 26.4744C399.47 26.0664 399.734 25.5144 399.734 24.8184C399.734 24.0624 399.446 23.4924 398.87 23.1084C398.294 22.7124 397.31 22.5144 395.918 22.5144H393.056L393.722 15.9264H400.832V17.4924H395.234L394.892 20.9484H396.296Z" fill="#2F2F2F"/>
<path d="M377 8.52637H417V6.52637H377V8.52637ZM421 12.5264V32.5264H423V12.5264H421ZM417 36.5264H377V38.5264H417V36.5264ZM373 32.5264V12.5264H371V32.5264H373ZM377 36.5264C374.791 36.5264 373 34.7355 373 32.5264H371C371 35.8401 373.686 38.5264 377 38.5264V36.5264ZM421 32.5264C421 34.7355 419.209 36.5264 417 36.5264V38.5264C420.314 38.5264 423 35.8401 423 32.5264H421ZM417 8.52637C419.209 8.52637 421 10.3172 421 12.5264H423C423 9.21266 420.314 6.52637 417 6.52637V8.52637ZM377 6.52637C373.686 6.52637 371 9.21266 371 12.5264H373C373 10.3172 374.791 8.52637 377 8.52637V6.52637Z" fill="#2F2F2F"/>
<path d="M429.435 17.2384H445.563V20.0824H429.435V17.2384ZM429.435 25.7704H445.563V28.6144H429.435V25.7704Z" fill="#2F2F2F"/>
<path d="M453 12.5264C453 9.76494 455.239 7.52637 458 7.52637H498C500.761 7.52637 503 9.76494 503 12.5264V32.5264C503 35.2878 500.761 37.5264 498 37.5264H458C455.239 37.5264 453 35.2878 453 32.5264V12.5264Z" fill="#9DD765"/>
<path d="M477.395 15.7824C479.087 15.7824 480.389 16.3284 481.301 17.4204C482.225 18.5124 482.687 20.0604 482.687 22.0644C482.687 23.4684 482.435 24.6684 481.931 25.6644C481.439 26.6484 480.743 27.3984 479.843 27.9144C478.955 28.4184 477.917 28.6704 476.729 28.6704C476.117 28.6704 475.541 28.6104 475.001 28.4904C474.461 28.3584 473.993 28.1724 473.597 27.9324L474.281 26.5284C474.893 26.9244 475.703 27.1224 476.711 27.1224C478.019 27.1224 479.039 26.7204 479.771 25.9164C480.515 25.1004 480.887 23.9184 480.887 22.3704V21.9204C480.527 22.4604 480.029 22.8744 479.393 23.1624C478.757 23.4384 478.043 23.5764 477.251 23.5764C476.423 23.5764 475.679 23.4204 475.019 23.1084C474.371 22.7964 473.861 22.3524 473.489 21.7764C473.129 21.1884 472.949 20.5164 472.949 19.7604C472.949 18.9684 473.141 18.2724 473.525 17.6724C473.921 17.0724 474.455 16.6104 475.127 16.2864C475.799 15.9504 476.555 15.7824 477.395 15.7824ZM477.557 22.1184C478.121 22.1184 478.625 22.0104 479.069 21.7944C479.513 21.5784 479.855 21.2844 480.095 20.9124C480.347 20.5404 480.473 20.1264 480.473 19.6704C480.473 19.2264 480.353 18.8244 480.113 18.4644C479.885 18.0924 479.543 17.7984 479.087 17.5824C478.643 17.3544 478.103 17.2404 477.467 17.2404C476.639 17.2404 475.967 17.4624 475.451 17.9064C474.947 18.3504 474.695 18.9444 474.695 19.6884C474.695 20.4324 474.953 21.0264 475.469 21.4704C475.985 21.9024 476.681 22.1184 477.557 22.1184Z" fill="#065B5B"/>
</svg>
